<svg id="ico_hotball" xmlns="http://www.w3.org/2000/svg" width="60" height="60" viewBox="0 0 60 60">
    <defs>
        <clipPath id="clip-path">
            <path id="사각형_522" data-name="사각형 522" class="cls-1" d="M0 0h37v21.99H0z"/>
        </clipPath>
<!--        <style>-->
<!--            .cls-1{fill:#fff}-->
<!--        </style>-->
    </defs>
    <circle id="타원_53" data-name="타원 53" cx="30" cy="30" r="30" style="opacity:.11;fill:#fff"/>
    <g id="그룹_1516" data-name="그룹 1516" transform="translate(11.5 19.004)">
        <g id="그룹_1515" data-name="그룹 1515" style="clip-path:url(#clip-path)">
            <path id="패스_911" data-name="패스 911" class="cls-1" d="M17.579 21.99a11 11 0 1 1 11-11 11.008 11.008 0 0 1-11 11m0-20.851A9.855 9.855 0 1 0 27.435 11a9.867 9.867 0 0 0-9.856-9.86" transform="translate(.92)"/>
            <path id="패스_912" data-name="패스 912" class="cls-1" d="M4.347 14.782a.427.427 0 0 1-.382-.235c-1.93-3.821-.094-8.453-.015-8.647a.427.427 0 1 1 .791.32c-.017.044-1.765 4.472-.015 7.943a.427.427 0 0 1-.38.62" transform="translate(.431 .787)"/>
            <path id="패스_913" data-name="패스 913" class="cls-1" d="M1.576 16.554a.429.429 0 0 1-.4-.268A14.949 14.949 0 0 1 1.2 4.5a.427.427 0 0 1 .761.389 14.356 14.356 0 0 0 .016 11.075.428.428 0 0 1-.237.556.441.441 0 0 1-.16.031" transform="translate(0 .597)"/>
            <path id="패스_914" data-name="패스 914" class="cls-1" d="M28.323 14.782a.427.427 0 0 1-.381-.62c1.756-3.48 0-7.9-.015-7.943a.427.427 0 1 1 .792-.32c.079.195 1.915 4.827-.015 8.648a.425.425 0 0 1-.382.235" transform="translate(3.899 .787)"/>
            <path id="패스_915" data-name="패스 915" class="cls-1" d="M31.131 16.554a.441.441 0 0 1-.16-.031.428.428 0 0 1-.237-.556 14.356 14.356 0 0 0 .016-11.075.427.427 0 0 1 .761-.389 14.949 14.949 0 0 1 .016 11.783.429.429 0 0 1-.4.268" transform="translate(4.291 .597)"/>
            <path id="패스_916" data-name="패스 916" class="cls-1" d="M15.657 4.322s3 1.59 2.272 4.316a5.689 5.689 0 0 0-.218 1.582 1.534 1.534 0 0 0 2.635 1 2.259 2.259 0 0 0 .711-1.475 5.12 5.12 0 0 1 .466 2 4.726 4.726 0 0 1-5.948 4.56A4.55 4.55 0 0 1 12.1 12.1a3.615 3.615 0 0 1 1.19-2.909c1.091-.955 3.034-2.145 2.363-4.866" transform="translate(1.69 .604)"/>
        </g>
    </g>
</svg>
