<svg id="ico_hotback" xmlns="http://www.w3.org/2000/svg" width="60" height="60" viewBox="0 0 60 60">
    <defs>
        <clipPath id="clip-path">
            <path id="사각형_523" data-name="사각형 523" class="cls-1" d="M0 0h28.363v18.445H0z"/>
        </clipPath>
<!--        <style>-->
<!--            .cls-1{fill:#fff}-->
<!--        </style>-->
    </defs>
    <circle id="타원_53" data-name="타원 53" cx="30" cy="30" r="30" style="opacity:.11;fill:#fff"/>
    <g id="그룹_1517" data-name="그룹 1517" transform="translate(15.818 20.777)">
        <g id="그룹_1517-2" data-name="그룹 1517" style="clip-path:url(#clip-path)">
            <path id="패스_918" data-name="패스 918" class="cls-1" d="M15.491 13.254a5.121 5.121 0 0 1-1.768.23H7.44l-2.169 3.3a3.024 3.024 0 0 1-1.147 1.147 5.137 5.137 0 0 1-1.766.23H0q2.274-3.471 4.553-6.945A3.043 3.043 0 0 1 5.7 10.074a5.155 5.155 0 0 1 1.768-.23h6.283l2.165-3.305a3.069 3.069 0 0 1 1.147-1.147 5.192 5.192 0 0 1 1.769-.229h2.358q-2.274 3.474-4.553 6.944a3.054 3.054 0 0 1-1.147 1.147" transform="translate(0 .28)"/>
            <path id="패스_919" data-name="패스 919" class="cls-1" d="M19.141 4.665a1.923 1.923 0 0 1-2.16-2.193V2.16A1.908 1.908 0 0 1 19.141 0h.313a1.908 1.908 0 0 1 2.159 2.16v.312a1.923 1.923 0 0 1-2.159 2.193z" transform="translate(.921)"/>
            <path id="패스_920" data-name="패스 920" class="cls-1" d="M23.229 5.163s2.05 1.085 1.551 2.947a3.891 3.891 0 0 0-.149 1.081 1.048 1.048 0 0 0 1.8.684 1.551 1.551 0 0 0 .485-1.008 3.5 3.5 0 0 1 .318 1.364 3.227 3.227 0 0 1-4.061 3.113A3.106 3.106 0 0 1 20.8 10.47a2.466 2.466 0 0 1 .813-1.985c.744-.653 2.072-1.464 1.613-3.322" transform="translate(1.128 .28)"/>
        </g>
    </g>
</svg>
