<svg height="60" viewBox="0 0 60 60" width="60" xmlns="http://www.w3.org/2000/svg" xmlns:xlink="http://www.w3.org/1999/xlink"><clipPath id="a"><path d="m0 0h22.054v18.446h-22.054z"/></clipPath><g fill="#fff"><circle cx="30" cy="30" opacity=".11" r="30"/><g clip-path="url(#a)" transform="translate(18.973 20.777)"><path d="m15.16 13.464a5.011 5.011 0 0 1 -1.73.225h-6.149l-2.122 3.234a2.959 2.959 0 0 1 -1.122 1.122 5.027 5.027 0 0 1 -1.728.225h-2.309q2.225-3.4 4.456-6.8a2.978 2.978 0 0 1 1.122-1.121 5.044 5.044 0 0 1 1.73-.225h6.149l2.119-3.234a3 3 0 0 1 1.124-1.12 5.081 5.081 0 0 1 1.731-.224h2.308q-2.225 3.4-4.456 6.8a2.988 2.988 0 0 1 -1.122 1.122" transform="translate(0 .175)"/><path d="m19.095 4.948a1.882 1.882 0 0 1 -2.114-2.148v-.3a1.868 1.868 0 0 1 2.114-2.117h.305a1.867 1.867 0 0 1 2.114 2.117v.3a1.881 1.881 0 0 1 -2.114 2.148z" transform="translate(.538 .012)"/><path d="m8.632 0s2.006 1.062 1.518 2.884a3.808 3.808 0 0 0 -.15 1.057 1.025 1.025 0 0 0 1.761.67 1.518 1.518 0 0 0 .475-.986 3.426 3.426 0 0 1 .312 1.335 3.158 3.158 0 0 1 -3.971 3.046 3.039 3.039 0 0 1 -2.319-2.812 2.413 2.413 0 0 1 .8-1.943c.724-.639 2.023-1.433 1.574-3.251" transform="translate(.198)"/></g></g></svg>