<svg id="ico_led" xmlns="http://www.w3.org/2000/svg" width="60" height="60" viewBox="0 0 60 60">
  <defs>
    <style>
      .cls-1, .cls-3 {
        fill: #fff;
      }

      .cls-1 {
        opacity: 0.11;
      }

      .cls-2 {
        opacity: 0.87;
      }
    </style>
  </defs>
  <circle id="타원_5" data-name="타원 5" class="cls-1" cx="30" cy="30" r="30"/>
  <g id="idea" class="cls-2" transform="translate(6.583 13.603)">
    <path id="XMLID_49_" class="cls-3" d="M26.9,25.162V26a1.334,1.334,0,0,1-1.132,1.321l-.207.764a.951.951,0,0,1-.918.705H22.586a.951.951,0,0,1-.918-.705l-.2-.764A1.34,1.34,0,0,1,20.328,26v-.841a.809.809,0,0,1,.812-.812h4.947A.818.818,0,0,1,26.9,25.162Zm3.81-11.34a7.058,7.058,0,0,1-1.991,4.923,6.5,6.5,0,0,0-1.742,3.531,1.173,1.173,0,0,1-1.161.989h-4.4a1.162,1.162,0,0,1-1.155-.984A6.577,6.577,0,0,0,18.5,18.74a7.093,7.093,0,1,1,12.2-4.918Zm-6.292-4.3a.8.8,0,0,0-.8-.8A5.124,5.124,0,0,0,18.5,13.846a.8.8,0,1,0,1.6,0,3.524,3.524,0,0,1,3.519-3.519A.8.8,0,0,0,24.416,9.527Zm-.8-5.125a.8.8,0,0,0,.8-.8V.8a.8.8,0,0,0-1.6,0V3.6A.8.8,0,0,0,23.617,4.4ZM14.2,13.817a.8.8,0,0,0-.8-.8H10.6a.8.8,0,1,0,0,1.6h2.8A.8.8,0,0,0,14.2,13.817Zm22.431-.8h-2.8a.8.8,0,1,0,0,1.6h2.8a.8.8,0,1,0,0-1.6Zm-20.8,7.459-1.985,1.985a.8.8,0,0,0,1.126,1.132l1.985-1.985a.8.8,0,0,0-1.126-1.132ZM30.839,7.394a.8.8,0,0,0,.563-.231l1.985-1.985a.8.8,0,0,0-1.132-1.132L30.27,6.031a.8.8,0,0,0,0,1.132A.812.812,0,0,0,30.839,7.394ZM15.831,7.157a.8.8,0,0,0,1.126-1.132L14.972,4.041a.8.8,0,0,0-1.132,1.132ZM31.4,20.476a.8.8,0,1,0-1.132,1.132l1.985,1.985a.8.8,0,0,0,1.126-1.132Z" transform="translate(0)"/>
  </g>
</svg>
