<svg id="ico_hotline" xmlns="http://www.w3.org/2000/svg" width="40" height="40" viewBox="0 0 40 40">
  <defs>
    <style>
      .cls-1 {
        fill: none;
      }

      .cls-2 {
        fill: #fff;
      }
    </style>
  </defs>
  <rect id="사각형_433" data-name="사각형 433" class="cls-1" width="40" height="40"/>
  <g id="그룹_841" data-name="그룹 841" transform="translate(-408.011 -64.368)">
    <g id="그룹_839" data-name="그룹 839" transform="translate(412.151 72.439)">
      <path id="패스_330" data-name="패스 330" class="cls-2" d="M434.564,87.624a7.452,7.452,0,0,1-2.558.331h-9.089l-3.137,4.78a4.4,4.4,0,0,1-1.658,1.659,7.465,7.465,0,0,1-2.558.333h-3.413q3.295-5.022,6.591-10.046a4.4,4.4,0,0,1,1.658-1.659,7.47,7.47,0,0,1,2.555-.331h9.092q1.567-2.392,3.134-4.782a4.428,4.428,0,0,1,1.658-1.658,7.484,7.484,0,0,1,2.558-.333h3.413q-3.295,5.025-6.587,10.046A4.433,4.433,0,0,1,434.564,87.624Z" transform="translate(-412.151 -68.045)"/>
      <path id="패스_331" data-name="패스 331" class="cls-2" d="M431.241,77.813q-3.122,0-3.124-3.171v-.453q0-3.127,3.124-3.124h.453q3.127,0,3.127,3.124v.453q0,3.173-3.127,3.171Z" transform="translate(-402.218 -71.065)"/>
    </g>
    <g id="그룹_840" data-name="그룹 840" transform="translate(418.967 68.856)">
      <path id="패스_332" data-name="패스 332" class="cls-2" d="M419.69,68.948l-.057-.092h-1.942l.143.281a7.3,7.3,0,0,1-.381,7.262,6.332,6.332,0,0,0-.167,6.915l.057.088h1.929l-.151-.284a6.806,6.806,0,0,1,.412-6.939A6.9,6.9,0,0,0,419.69,68.948Z" transform="translate(-416.353 -68.856)"/>
      <path id="패스_333" data-name="패스 333" class="cls-2" d="M422.271,68.948l-.055-.092h-1.942l.141.281a7.286,7.286,0,0,1-.381,7.262,6.329,6.329,0,0,0-.165,6.915l.057.088h1.929l-.151-.284a6.808,6.808,0,0,1,.41-6.939A6.885,6.885,0,0,0,422.271,68.948Z" transform="translate(-414.747 -68.856)"/>
      <path id="패스_334" data-name="패스 334" class="cls-2" d="M424.852,68.948l-.057-.092h-1.94l.143.281a7.3,7.3,0,0,1-.381,7.262,6.327,6.327,0,0,0-.167,6.915l.057.088h1.929l-.151-.284a6.8,6.8,0,0,1,.41-6.939A6.889,6.889,0,0,0,424.852,68.948Z" transform="translate(-413.141 -68.856)"/>
    </g>
  </g>
</svg>
