<svg id="ico_legangle_down" xmlns="http://www.w3.org/2000/svg" width="50" height="34" viewBox="0 0 50 34">
    <defs>
        <style>
            .cls-2{fill:#fff}
        </style>
    </defs>
    <g id="그룹_1133" data-name="그룹 1133" transform="translate(-232.318 -181.454)">
        <g id="그룹_804" data-name="그룹 804" transform="translate(249.029 186.394)">
            <path id="패스_261" data-name="패스 261" class="cls-2" d="M201.521 195.227a5.633 5.633 0 0 1-1.952.254h-6.939q-1.2 1.825-2.391 3.65a3.385 3.385 0 0 1-1.269 1.267 5.7 5.7 0 0 1-1.951.253h-2.6q2.512-3.834 5.028-7.67a3.38 3.38 0 0 1 1.267-1.267 5.747 5.747 0 0 1 1.953-.253h6.933l2.393-3.65a3.389 3.389 0 0 1 1.267-1.267 5.711 5.711 0 0 1 1.953-.254h2.6q-2.513 3.837-5.029 7.67a3.353 3.353 0 0 1-1.263 1.267z" transform="translate(-184.414 -180.28)"/>
            <path id="패스_262" data-name="패스 262" class="cls-2" d="M202.905 186.546a2.124 2.124 0 0 1-2.385-2.422v-.345a2.108 2.108 0 0 1 2.385-2.385h.346a2.108 2.108 0 0 1 2.385 2.385v.345a2.124 2.124 0 0 1-2.385 2.422z" transform="translate(-180.749 -181.394)"/>
        </g>
        <path id="패스_464" data-name="패스 464" class="cls-2" d="M186.937 187.592a15.608 15.608 0 0 0-1.588 1.35 13.427 13.427 0 0 0-1.32 1.489 12.715 12.715 0 0 0-1.058 1.63 13.268 13.268 0 0 0-.819 1.8 15.009 15.009 0 0 0-.576 1.981 17.478 17.478 0 0 0-.333 2.188 27.714 27.714 0 0 0-.093 2.463v.277h2.037l-2.935 3.979-2.934-3.979h1.913l-.007-.291c-.153-6.869 2.381-11.872 7.739-15.259v2.357z" transform="translate(63 5.87)"/>
    </g>
</svg>
