<svg id="ico_bright_02" xmlns="http://www.w3.org/2000/svg" width="40" height="40" viewBox="0 0 40 40">
  <defs>
    <style>
      .cls-1 {
        fill: #8e8e8e;
      }
    </style>
  </defs>
  <g id="그룹_15" data-name="그룹 15">
    <g id="그룹_14" data-name="그룹 14">
      <path id="패스_35" data-name="패스 35" class="cls-1" d="M92.326,78.16a10.077,10.077,0,0,0-7.083-2.96,9.858,9.858,0,0,0-7.083,2.96,10.043,10.043,0,0,0,7.083,17.126,9.858,9.858,0,0,0,7.083-2.96,10.077,10.077,0,0,0,2.96-7.083A9.858,9.858,0,0,0,92.326,78.16Z" transform="translate(-65.243 -65.243)"/>
      <path id="패스_36" data-name="패스 36" class="cls-1" d="M142.177,6.832a1.4,1.4,0,0,0,1.377-1.377V1.377a1.377,1.377,0,1,0-2.754,0V5.455A1.4,1.4,0,0,0,142.177,6.832Z" transform="translate(-122.177)"/>
      <path id="패스_37" data-name="패스 37" class="cls-1" d="M221.3,46.617l2.913-2.913A1.348,1.348,0,1,0,222.31,41.8L219.4,44.71a1.348,1.348,0,0,0,1.907,1.907Z" transform="translate(-190.043 -35.918)"/>
      <path id="패스_38" data-name="패스 38" class="cls-1" d="M256.255,140.8h-4.078a1.377,1.377,0,1,0,0,2.754h4.078a1.377,1.377,0,1,0,0-2.754Z" transform="translate(-217.632 -122.177)"/>
      <path id="패스_39" data-name="패스 39" class="cls-1" d="M220.9,219A1.348,1.348,0,0,0,219,220.9l2.913,2.913a1.348,1.348,0,0,0,1.907-1.907Z" transform="translate(-189.696 -189.696)"/>
      <path id="패스_40" data-name="패스 40" class="cls-1" d="M142.177,250.8a1.4,1.4,0,0,0-1.377,1.377v4.078a1.377,1.377,0,0,0,2.754,0v-4.078A1.4,1.4,0,0,0,142.177,250.8Z" transform="translate(-122.177 -217.632)"/>
      <path id="패스_41" data-name="패스 41" class="cls-1" d="M44.31,219,41.4,221.91a1.348,1.348,0,0,0,1.907,1.907l2.913-2.913A1.348,1.348,0,0,0,44.31,219Z" transform="translate(-35.571 -189.696)"/>
      <path id="패스_42" data-name="패스 42" class="cls-1" d="M6.832,142.177A1.4,1.4,0,0,0,5.455,140.8H1.377a1.377,1.377,0,1,0,0,2.754H5.455A1.4,1.4,0,0,0,6.832,142.177Z" transform="translate(0 -122.177)"/>
      <path id="패스_43" data-name="패스 43" class="cls-1" d="M44.31,46.617a1.348,1.348,0,0,0,1.907-1.907L43.3,41.8A1.348,1.348,0,0,0,41.4,43.7Z" transform="translate(-35.571 -35.918)"/>
    </g>
  </g>
</svg>
