<svg height="60" viewBox="0 0 60 60" width="60" xmlns="http://www.w3.org/2000/svg"><g fill="#fff"><circle cx="30" cy="30" opacity=".11" r="30"/><path d="m11.616 20.809a3.406 3.406 0 0 1 -3.444 3.367 3.406 3.406 0 0 1 -3.444-3.367v-17.442a3.406 3.406 0 0 1 3.445-3.367 3.406 3.406 0 0 1 3.444 3.367z" opacity=".87" transform="translate(15.395 18.365)"/><path d="m36.5 20.809a3.406 3.406 0 0 1 -3.444 3.367 3.406 3.406 0 0 1 -3.444-3.367v-17.442a3.407 3.407 0 0 1 3.447-3.367 3.406 3.406 0 0 1 3.441 3.367z" opacity=".87" transform="translate(3.119 18.365)"/></g></svg>