<svg id="ico_speaker_02" xmlns="http://www.w3.org/2000/svg" width="42.855" height="40" viewBox="0 0 42.855 40">
<!--  <defs>-->
<!--    <style>-->
<!--      .cls-1 {-->
<!--        fill: #8e8e8e;-->
<!--      }-->
<!--    </style>-->
<!--  </defs>-->
  <path id="패스_553" data-name="패스 553" class="cls-1" d="M24.927,16.132a1.426,1.426,0,0,0-1.513.171L9.505,27.42H2.86A2.863,2.863,0,0,0,0,30.277V41.705a2.861,2.861,0,0,0,2.86,2.857H9.505L23.411,55.679a1.433,1.433,0,0,0,1.516.169,1.426,1.426,0,0,0,.809-1.286V17.42A1.433,1.433,0,0,0,24.927,16.132Z" transform="translate(0 -15.99)"/>
  <path id="패스_554" data-name="패스 554" class="cls-1" d="M344.186,122.663a1.429,1.429,0,1,0-2.01,2.033,11.372,11.372,0,0,1,0,16.123,1.427,1.427,0,1,0,2.01,2.027,14.222,14.222,0,0,0,0-20.183Z" transform="translate(-311.251 -112.757)"/>
  <path id="패스_555" data-name="패스 555" class="cls-1" d="M389.305,77.539a1.43,1.43,0,0,0-2.016,2.028,17.027,17.027,0,0,1,0,24.188,1.43,1.43,0,0,0,2.016,2.028,19.886,19.886,0,0,0,0-28.244Z" transform="translate(-352.335 -71.662)"/>
</svg>
