<svg id="ico_mute" xmlns="http://www.w3.org/2000/svg" width="40" height="40" viewBox="0 0 40 40">
<!--  <defs>-->
<!--    <style>-->
<!--      .cls-1 {-->
<!--        fill: #8e8e8e;-->
<!--      }-->
<!--    </style>-->
<!--  </defs>-->
  <path id="패스_44" data-name="패스 44" class="cls-1" d="M199.441,1.448a1.442,1.442,0,0,0-.807-1.3,1.4,1.4,0,0,0-1.527.173L184.341,10.5l15.1,15.1Z" transform="translate(-167.97 0)"/>
  <path id="패스_45" data-name="패스 45" class="cls-1" d="M39.627,37.621,2.483.485A1.428,1.428,0,0,0,.463,2.5l8.989,8.99H8.615a2.9,2.9,0,0,0-2.857,2.857V25.778a2.865,2.865,0,0,0,2.857,2.857h6.629L29.158,39.747a1.457,1.457,0,0,0,.886.314,1.672,1.672,0,0,0,.629-.143,1.43,1.43,0,0,0,.8-1.286V33.511l6.132,6.13a1.429,1.429,0,1,0,2.023-2.02Z" transform="translate(-0.045 -0.061)"/>
</svg>
