<svg id="ico_legangle_up" xmlns="http://www.w3.org/2000/svg" width="50" height="34" viewBox="0 0 50 34">
  <defs>
    <style>
      .cls-1, .cls-2 {
        fill: #fff;
      }

      .cls-1 {
        opacity: 0;
      }

      .cls-3 {
        fill: #1a1311;
      }
    </style>
  </defs>
  <rect id="사각형_17" data-name="사각형 17" class="cls-1" width="50" height="34"/>
  <g id="그룹_1131" data-name="그룹 1131" transform="translate(-69.92 -589.613)">
    <path id="패스_263" data-name="패스 263" class="cls-2" d="M89.51,187.291a2.315,2.315,0,0,0,2.6-2.639v-.376a2.3,2.3,0,0,0-2.6-2.6h-.376a2.3,2.3,0,0,0-2.6,2.6v.376a2.315,2.315,0,0,0,2.6,2.639" transform="translate(23.035 412.878)"/>
    <line id="선_1962" data-name="선 1962" class="cls-3" x1="0.376" transform="translate(112.168 600.169)"/>
    <path id="패스_264" data-name="패스 264" class="cls-2" d="M96.117,186.636,90.634,195a3.658,3.658,0,0,1-1.379,1.38,6.143,6.143,0,0,1-2.128.277H79.562l-4.2,2.232a3.686,3.686,0,0,1-1.874.546,6.221,6.221,0,0,1-2-.779L69,197.283l8.826-4.689a4.345,4.345,0,0,1,1.77-.324h7.564l2.607-3.977a3.692,3.692,0,0,1,1.38-1.382,6.249,6.249,0,0,1,2.129-.276Z" transform="translate(17.41 414.47)"/>
    <path id="패스_463" data-name="패스 463" class="cls-2" d="M70.668,202.173a16.793,16.793,0,0,1-1.709-1.453,14.452,14.452,0,0,1-1.42-1.6,13.68,13.68,0,0,1-1.139-1.754,14.274,14.274,0,0,1-.881-1.932A16.09,16.09,0,0,1,64.9,193.3a18.806,18.806,0,0,1-.358-2.354c-.069-.779-.1-1.621-.1-2.65V188h2.191l-3.158-4.281L60.318,188h2.058l-.008.313c-.165,7.391,2.562,12.774,8.326,16.418v-2.536Z" transform="translate(14.624 413.533)"/>
  </g>
</svg>
