<svg id="ico_bodyangle_down" xmlns="http://www.w3.org/2000/svg" width="50" height="34" viewBox="0 0 50 34">
  <defs>
    <style>
      .cls-1, .cls-2 {
        fill: #fff;
      }

      .cls-1 {
        opacity: 0;
      }
    </style>
  </defs>
  <rect id="사각형_17" data-name="사각형 17" class="cls-1" width="50" height="34"/>
  <g id="그룹_805" data-name="그룹 805" transform="translate(11.745 3.784)">
    <path id="패스_265" data-name="패스 265" class="cls-2" d="M433.972,199.041a7.057,7.057,0,0,1-2.437.317H422.88q-1.492,2.278-2.987,4.552a4.186,4.186,0,0,1-1.58,1.58,7.109,7.109,0,0,1-2.435.317h-3.249q3.138-4.784,6.274-9.568a4.21,4.21,0,0,1,1.581-1.58,7.107,7.107,0,0,1,2.432-.315h8.658q1.494-2.278,2.984-4.554a4.217,4.217,0,0,1,1.58-1.58,7.132,7.132,0,0,1,2.435-.315h3.251q-3.138,4.786-6.273,9.566A4.217,4.217,0,0,1,433.972,199.041Z" transform="translate(-412.629 -180.397)"/>
    <path id="패스_266" data-name="패스 266" class="cls-2" d="M432.418,189.211q-2.975,0-2.977-3.021v-.431a2.63,2.63,0,0,1,2.977-2.975h.43a2.63,2.63,0,0,1,2.978,2.975v.431q0,3.019-2.978,3.021Z" transform="translate(-404.778 -182.784)"/>
  </g>
  <path id="패스_466" data-name="패스 466" class="cls-2" d="M413.233,194.776a18.342,18.342,0,0,1,1.6-1.913,16.1,16.1,0,0,1,1.765-1.595,15.59,15.59,0,0,1,1.936-1.282,16.076,16.076,0,0,1,2.139-1,18.029,18.029,0,0,1,2.359-.709,21.111,21.111,0,0,1,2.613-.421c.864-.084,1.8-.128,2.94-.138l.332,0,.022,2.434,4.724-3.55-4.787-3.464.021,2.286-.348,0c-8.209-.11-14.159,2.972-18.15,9.411l2.817-.025Z" transform="translate(-401.927 -178.835)"/>
</svg>
