<svg height="60" viewBox="0 0 60 60" width="60" xmlns="http://www.w3.org/2000/svg"><g fill="#fff"><circle cx="30" cy="30" opacity=".11" r="30"/><path d="m530.558 85.982a17.819 17.819 0 0 0 15.674 0 .309.309 0 0 0 -.219-.578 29.775 29.775 0 0 1 -15.236 0 .309.309 0 0 0 -.219.578z" opacity=".87" transform="translate(-508.488 -47.011)"/><path d="m549.312 81.786a24.7 24.7 0 0 1 -22.339 0 .308.308 0 0 1 .192-.584 50.064 50.064 0 0 0 21.955 0 .308.308 0 0 1 .192.584z" opacity=".87" transform="translate(-508.3 -47.296)"/><path d="m547.438 72.334a2.079 2.079 0 0 1 -1.257-3.079c.044-.105.086-.208.129-.311a2.061 2.061 0 0 1 3.047-1.27c.105.042.208.085.313.127a2.064 2.064 0 0 1 1.269 3.048c-.044.106-.084.209-.128.312a2.079 2.079 0 0 1 -3.06 1.3z" opacity=".87" transform="translate(-507.461 -48.142)"/><path d="m540.682 78.9a5.214 5.214 0 0 1 -1.79-.5q-3.02-1.294-6.041-2.587l-3.391 2.411a3.121 3.121 0 0 1 -1.558.673 5.215 5.215 0 0 1 -1.79-.5q-1.134-.487-2.269-.97 3.565-2.534 7.127-5.064a3.131 3.131 0 0 1 1.558-.676 5.251 5.251 0 0 1 1.79.5q3.02 1.292 6.041 2.588 1.7-1.208 3.392-2.41a3.1 3.1 0 0 1 1.557-.674 5.146 5.146 0 0 1 1.79.5l2.27.969q-3.568 2.54-7.128 5.07a3.133 3.133 0 0 1 -1.558.67z" opacity=".87" transform="translate(-508.582 -47.919)"/></g></svg>