<svg xmlns="http://www.w3.org/2000/svg" width="60" height="60" viewBox="0 0 60 60">
    <circle data-name="타원 53" cx="30" cy="30" r="30" style="opacity:.11;fill:#fff"/>
    <path data-name="패스 917" d="M3.508-5.228H1.2l3.34-12.646a6.442 6.442 0 0 1 .4-1.051 2.146 2.146 0 0 1 .544-.7 1.892 1.892 0 0 1 .774-.369A4.992 4.992 0 0 1 7.4-20.1a2.984 2.984 0 0 1 1.843.442 1.941 1.941 0 0 1 .461.608 5.846 5.846 0 0 1 .35.922l3.558 12.9h-2.325L10.052-9.6H5.407q-.221 0-.369.009a.527.527 0 0 0-.24.065 1.056 1.056 0 0 0-.295.535zm1.512-5.954a.728.728 0 0 1 .24-.212.665.665 0 0 1 .332-.083h3.981l-1.235-5.272q-.092-.406-.175-.673a2.329 2.329 0 0 0-.175-.433.7.7 0 0 0-.59-.295.746.746 0 0 0-.645.277 1.686 1.686 0 0 0-.194.433q-.083.267-.194.691zm15.355 5.954a8.725 8.725 0 0 1-2.313-.249 2.61 2.61 0 0 1-1.336-.8 2.924 2.924 0 0 1-.636-1.438 12.612 12.612 0 0 1-.157-2.157V-19.92h1.124a1.046 1.046 0 0 1 .811.24 1.091 1.091 0 0 1 .2.719v8.553a14.789 14.789 0 0 0 .074 1.668 1.7 1.7 0 0 0 .369.949 1.347 1.347 0 0 0 .829.461 8.348 8.348 0 0 0 1.548.111h5.788v1.991zm13.069 0a8.725 8.725 0 0 1-2.313-.249 2.61 2.61 0 0 1-1.336-.8 2.924 2.924 0 0 1-.636-1.438A12.612 12.612 0 0 1 29-9.874V-19.92h1.124a1.046 1.046 0 0 1 .811.24 1.091 1.091 0 0 1 .2.719v8.553a14.789 14.789 0 0 0 .074 1.668 1.7 1.7 0 0 0 .369.949 1.347 1.347 0 0 0 .829.461 8.348 8.348 0 0 0 1.548.111h5.788v1.991z" transform="translate(9.523 42.666)" style="fill:#fff"/>
</svg>
