<svg height="60" viewBox="0 0 60 60" width="60" xmlns="http://www.w3.org/2000/svg"><g fill="#fff"><circle cx="30" cy="30" opacity=".11" r="30"/><g transform="translate(-48.312 -50.514)"><path d="m67.487 79.162a10.872 10.872 0 0 1 19.338-5.362q1.766 2.221 3.551 4.454-.219-5.234-.438-10.454c-.78.862-1.568 1.733-2.344 2.607a13.71 13.71 0 0 0 -22.926 8.339c1.072.164 2.137.317 3.209.47"/><path d="m65.882 79.627q.219 5.228.438 10.458 1.17-1.305 2.344-2.611a13.711 13.711 0 0 0 22.926-8.347c-.941-.138-1.883-.278-2.82-.412a10.873 10.873 0 0 1 -19.338 5.366q-1.777-2.232-3.551-4.454" transform="translate(.366 3.148)"/><path d="m80.515 80.625a4.6 4.6 0 1 0 -6.178 2.062 4.6 4.6 0 0 0 6.178-2.062" transform="translate(1.915 1.948)"/></g></g></svg>