<svg width="113" height="18" viewBox="0 0 113 18" fill="none" xmlns="http://www.w3.org/2000/svg">
<path d="M6.69309 8.52675C8.0742 7.92852 8.67369 6.31004 8.67369 4.76121C8.67369 1.69634 7.31535 0 4.24578 0H0V18H4.51897C7.77825 18 9 15.7546 9 12.7881C9 10.473 8.1425 9.22741 6.69309 8.52675ZM2.86088 2.5445H3.94604C5.21712 2.5445 5.81661 3.41725 5.81661 5.08901C5.81661 6.58457 4.98187 7.38356 3.89671 7.38356H2.86088V2.5445ZM4.05986 15.4596H2.86088V9.92807H3.78668C5.4941 9.92807 6.13912 10.8459 6.13912 12.6938C6.13912 14.5418 5.58516 15.4637 4.05986 15.4637V15.4596Z" fill="white"/>
<path d="M16.4981 0C13.4176 0 12 2.01329 12 4.48904V13.511C12 15.9867 13.4176 18 16.4981 18C19.5785 18 21 15.9867 21 13.511V4.48904C21 2.01329 19.5785 0 16.4981 0ZM18.0597 13.4392C18.0597 14.7468 17.682 15.3728 16.4981 15.3728C15.3142 15.3728 14.9364 14.7468 14.9364 13.4392V4.5608C14.9364 3.25316 15.3142 2.61927 16.4981 2.61927C17.682 2.61927 18.0597 3.25316 18.0597 4.5608V13.4392Z" fill="white"/>
<path d="M97.349 10.2968H97.2984L93.721 0H91V18H93.651V6.76076H93.6977L97.4386 18H100V0H97.349V10.2968Z" fill="white"/>
<path d="M82.8656 10.0223H86.5672V7.3344H82.8656V2.69611H87.677V0H80V18H88V15.308H82.8656V10.0223Z" fill="white"/>
<path d="M108.358 0H104V18H108.358C111.388 18 113 16.2545 113 12.5668V5.43729C113 1.7496 111.388 0 108.358 0ZM110.06 12.9397C110.06 14.8368 109.518 15.4555 107.953 15.4555H106.932V2.53631H107.953C109.514 2.53631 110.06 3.16731 110.06 5.06032V12.9356V12.9397Z" fill="white"/>
<path d="M77 0H74V18H77V0Z" fill="white"/>
<path d="M42.0679 6.855H42.0213L39.9701 0H37L40.5363 10.5181V18H43.4637V10.5181L47 0H44.026L42.0679 6.855Z" fill="white"/>
<path d="M29.356 0H25V18H29.356C32.3845 18 34 16.2545 34 12.5668V5.43729C34 1.7455 32.3884 0 29.356 0ZM31.0571 12.9397C31.0571 14.8368 30.5199 15.4555 28.9511 15.4555H27.9351V2.5445H28.9511C30.5199 2.5445 31.0571 3.17141 31.0571 5.06032V12.9397Z" fill="white"/>
<path d="M70.5464 5.31027C70.5464 1.47098 68.781 0 65.3277 0H61V18H64.0813V10.6205C64.6289 10.6205 65.2746 10.5959 65.6751 10.5468L67.8656 17.9959H71L68.3846 9.84612C69.4307 9.37491 70.5505 8.20305 70.5505 5.30617L70.5464 5.31027ZM65.1765 8.08013H64.0813V2.5445H65.1765C66.8439 2.5445 67.4651 3.17141 67.4651 5.31436C67.4651 7.45732 66.8398 8.08422 65.1765 8.08422V8.08013Z" fill="white"/>
<path d="M49 18H51.8666V10.0223H55.7053V7.3344H51.8666V2.69611H57V0H49V18Z" fill="white"/>
</svg>
