<svg xmlns="http://www.w3.org/2000/svg" width="50" height="34" viewBox="0 0 50 34">
    <defs>
    </defs>
    <g id="ico_leglength" transform="translate(-69.92 -589.613)">
        <g id="그룹_1129" transform="translate(-.392)">
            <g id="그룹_808" transform="translate(83.251 594.554)">
                <path id="패스_271" d="M549.7 197.98a6.667 6.667 0 0 1-2.3.3h-8.171l-2.819 4.3a3.947 3.947 0 0 1-1.492 1.492 6.732 6.732 0 0 1-2.3.3h-3.068q2.958-4.514 5.922-9.031a3.956 3.956 0 0 1 1.492-1.492 6.738 6.738 0 0 1 2.3-.3h8.17l2.817-4.3a3.973 3.973 0 0 1 1.492-1.491 6.7 6.7 0 0 1 2.3-.3h3.068q-2.958 4.518-5.922 9.031a3.966 3.966 0 0 1-1.489 1.491z" class="cls-2" transform="translate(-529.554 -180.379)"/>
                <path id="패스_272" d="M549.575 188.29q-2.812 0-2.808-2.851v-.406a2.481 2.481 0 0 1 2.808-2.809h.407a2.482 2.482 0 0 1 2.809 2.809v.406q0 2.851-2.809 2.851z" class="cls-2" transform="translate(-523.485 -182.224)"/>
            </g>
            <g id="그룹_966" transform="translate(77.312 607.312)">
                <g id="그룹_963" transform="translate(0 1.315)">
                    <path id="패스_467" d="M527 202.546l-1.835-.021 6.518-9.9 1.3.851z" class="cls-2" transform="translate(-525.163 -192.628)"/>
                </g>
                <g id="그룹_965" transform="translate(4.933)">
                    <g id="그룹_964">
                        <path id="패스_468" d="M528.81 192.921l3.384-1.264.182 3.608z" class="cls-2" transform="translate(-528.81 -191.656)"/>
                    </g>
                </g>
            </g>
        </g>
    </g>
</svg>
