<svg xmlns="http://www.w3.org/2000/svg" id="ico_bodyangle_up" width="50" height="34" viewBox="0 0 50 34">
    <defs>
    </defs>
    <g id="그룹_806" transform="translate(11.84 4.148)">
        <path id="패스_267" d="M318.012 198.606a6.954 6.954 0 0 1-2.4.312h-8.532q-1.47 2.244-2.943 4.488a4.13 4.13 0 0 1-1.558 1.557 7.005 7.005 0 0 1-2.4.312h-3.2l6.186-9.431a4.138 4.138 0 0 1 1.557-1.557 7.009 7.009 0 0 1 2.4-.312h8.534l2.942-4.488a4.151 4.151 0 0 1 1.558-1.557 7.011 7.011 0 0 1 2.4-.312h3.2l-6.183 9.429a4.163 4.163 0 0 1-1.561 1.559z" class="cls-2" transform="translate(-296.973 -180.228)"/>
        <path id="패스_268" d="M316.353 188.953q-2.931 0-2.933-2.977v-.424a2.593 2.593 0 0 1 2.933-2.933h.424a2.594 2.594 0 0 1 2.936 2.933v.424q0 2.978-2.936 2.977z" class="cls-2" transform="translate(-289.108 -182.619)"/>
    </g>
    <path id="패스_465" d="M314.114 185.979a18.79 18.79 0 0 0-2.5.216 16.392 16.392 0 0 0-2.334.54 15.552 15.552 0 0 0-2.176.86 16.135 16.135 0 0 0-2.058 1.193 18.137 18.137 0 0 0-1.948 1.54 21.543 21.543 0 0 0-1.852 1.916c-.568.667-1.143 1.413-1.809 2.352l-.194.272 2 1.421-5.656 1.857-.1-5.953 1.877 1.335.2-.29c4.643-6.847 10.621-9.987 18.242-9.571l-1.645 2.312z" class="cls-2" transform="translate(-285.847 -177.988)"/>
</svg>
