<svg xmlns="http://www.w3.org/2000/svg" id="ico_weightlessness" width="60" height="60" viewBox="0 0 60 60">
    <defs>
    </defs>
    <circle id="타원_5" cx="30" cy="30" r="30" fill="#ffffff" opacity="0.11"/>
    <path id="패스_298" d="M530.558 85.982a17.819 17.819 0 0 0 15.674 0 .309.309 0 0 0-.219-.578 29.775 29.775 0 0 1-15.236 0 .309.309 0 0 0-.219.578z" class="cls-2" transform="translate(-508.488 -47.011)"/>
    <path id="패스_299" d="M549.312 81.786a24.7 24.7 0 0 1-22.339 0 .308.308 0 0 1 .192-.584 50.064 50.064 0 0 0 21.955 0 .308.308 0 0 1 .192.584z" class="cls-2" transform="translate(-508.3 -47.296)"/>
    <path id="패스_300" d="M547.438 72.334a2.079 2.079 0 0 1-1.257-3.079l.129-.311a2.061 2.061 0 0 1 3.047-1.27l.313.127a2.064 2.064 0 0 1 1.269 3.048c-.044.106-.084.209-.128.312a2.079 2.079 0 0 1-3.06 1.3z" class="cls-2" transform="translate(-507.461 -48.142)"/>
    <path id="패스_301" d="M540.682 78.9a5.214 5.214 0 0 1-1.79-.5l-6.041-2.587-3.391 2.411a3.121 3.121 0 0 1-1.558.673 5.215 5.215 0 0 1-1.79-.5q-1.134-.487-2.269-.97l7.127-5.064a3.131 3.131 0 0 1 1.558-.676 5.251 5.251 0 0 1 1.79.5q3.02 1.292 6.041 2.588l3.392-2.41a3.1 3.1 0 0 1 1.557-.674 5.146 5.146 0 0 1 1.79.5l2.27.969q-3.568 2.54-7.128 5.07a3.133 3.133 0 0 1-1.558.67z" class="cls-2" transform="translate(-508.582 -47.919)"/>
</svg>
