<svg id="ico_auto_08" xmlns="http://www.w3.org/2000/svg" width="80" height="50" viewBox="0 0 80 50">
<!--    <defs>-->
<!--        <style>-->
<!--            .cls-2{fill:#fff}-->
<!--        </style>-->
<!--    </defs>-->
    <g id="그룹_1301" data-name="그룹 1301" transform="translate(-395.719 -177.395)">
        <path id="패스_734" data-name="패스 734" class="cls-2" d="M412.069 188.012c.053-.166.094-.221.119-.238a.341.341 0 0 1 .074-.023h2.671l.654 2.322.021.077h1.492l-1.987-7.217a5.886 5.886 0 0 0-.183-.487l-.019-.038a1.284 1.284 0 0 0-.281-.368 1.73 1.73 0 0 0-1.077-.266 2.742 2.742 0 0 0-.652.064 1.126 1.126 0 0 0-.467.223 1.2 1.2 0 0 0-.321.419 3.453 3.453 0 0 0-.232.6l-1.829 6.939-.034.134h1.482zm1.135-4.651a.681.681 0 0 1 .085-.2.311.311 0 0 1 .268-.108.322.322 0 0 1 .229.1c.017.034.032.074.051.121l.04.087c.021.1.051.238.091.378l.646 2.762h-2.048a.543.543 0 0 0-.147.021l.676-2.781.017-.074a3.115 3.115 0 0 1 .088-.306z" transform="translate(.562)"/>
        <path id="패스_735" data-name="패스 735" class="cls-2" d="M415.272 182.453a.557.557 0 0 0-.674-.631h-.712v8.278h1.385z" transform="translate(4.91 .054)"/>
        <path id="패스_736" data-name="패스 736" class="cls-2" d="M416.657 186.539c0-.057.015-.081.034-.1a.57.57 0 0 1 .172-.03h1.589l2.176 3.631.03.051h1.532l-2.207-3.686a3.014 3.014 0 0 0 .771-.11 1.294 1.294 0 0 0 .6-.321 1.07 1.07 0 0 0 .272-.538 3.475 3.475 0 0 0 .062-.7v-1.154a4.013 4.013 0 0 0-.074-.748 1.285 1.285 0 0 0-.325-.563 1.643 1.643 0 0 0-.665-.351 5.188 5.188 0 0 0-1.1-.1h-3.8c-.229 0-.327.1-.361.17a.572.572 0 0 0-.087.31v7.8h1.385zm3.642-1.829a1.743 1.743 0 0 1-.017.257.19.19 0 0 1-.113.123.8.8 0 0 1-.323.089 5.763 5.763 0 0 1-.7.032h-2.491v-2.095h2.492a5.294 5.294 0 0 1 .618.028 2.126 2.126 0 0 1 .348.087.458.458 0 0 1 .138.13.729.729 0 0 1 .045.255z" transform="translate(6.468 .054)"/>
        <path id="패스_737" data-name="패스 737" class="cls-2" d="M434.774 183.328h-.631q-4.363 0-4.36 4.36v.631q0 4.424 4.36 4.424h.631q4.366 0 4.36-4.424v-.631q0-4.366-4.36-4.36z" transform="translate(22.787 1.748)"/>
        <path id="패스_738" data-name="패스 738" class="cls-2" d="M450.879 188.961a6.186 6.186 0 0 0-2.314 2.316l-4.373 6.669h-12.681c-.1 0-.189.006-.291.008-5.679-.074-16.292 0-21.7-.077q1.272 2 2.541 4a10.434 10.434 0 0 0 2.288 2.747 6.106 6.106 0 0 0 3.176.71c.3 0 .68.006 1.126.006 1.047 0 2.456-.013 3.969-.025q-3.095 4.714-6.183 9.429h4.763a10.389 10.389 0 0 0 3.563-.463 6.116 6.116 0 0 0 2.316-2.316q2.186-3.337 4.375-6.669h12.682a10.309 10.309 0 0 0 3.569-.463 6.141 6.141 0 0 0 2.314-2.316q4.6-7 9.191-14.016h-4.761a10.421 10.421 0 0 0-3.57.46zm-25.251 11.764q-.813 1.237-1.623 2.475c-2.025.019-3.99.036-5.352.036h-1.1a4.8 4.8 0 0 1-1.957-.3 8.192 8.192 0 0 1-1.761-2.182l-.472-.739c2.19.008 4.668.008 7.1.008h5.666c-.187.239-.354.477-.501.702z" transform="translate(0 7.562)"/>
    </g>
</svg>
