<svg height="50" viewBox="0 0 80 50" width="80" xmlns="http://www.w3.org/2000/svg"><g fill="#fff"><path d="m0 0h80v50h-80z" opacity="0"/><g transform="translate(-854.798 -61.855)"><path d="m902.627 89.656a9.382 9.382 0 0 1 -3.249.422h-11.538q-1.99 3.037-3.982 6.07a5.57 5.57 0 0 1 -2.106 2.106 9.461 9.461 0 0 1 -3.245.422h-4.332q4.177-6.376 8.363-12.755a5.6 5.6 0 0 1 2.106-2.106 9.48 9.48 0 0 1 3.247-.422h11.539q1.993-3.037 3.978-6.07a5.628 5.628 0 0 1 2.108-2.106 9.48 9.48 0 0 1 3.247-.422h4.337q-4.18 6.381-8.363 12.755a5.6 5.6 0 0 1 -2.11 2.106z" transform="translate(2.031 6.48)"/><path d="m895.145 78.193q-3.971 0-3.966-4.026v-.574q0-3.971 3.966-3.966h.574q3.971 0 3.968 3.966v.574q0 4.026-3.968 4.026z" transform="translate(17.908 1.653)"/><path d="m880.45 67.856a8.45 8.45 0 1 0 8.45 8.444 8.46 8.46 0 0 0 -8.45-8.444zm0 1.911a6.53 6.53 0 0 1 6.443 5.583h-3.693a2.907 2.907 0 0 0 -5.5 0h-3.69a6.528 6.528 0 0 1 6.44-5.583zm-6.441 7.493h3.69a2.907 2.907 0 0 0 1.8 1.8v3.692a6.517 6.517 0 0 1 -5.491-5.492zm7.4 5.488v-3.692a2.914 2.914 0 0 0 1.8-1.8h3.69a6.519 6.519 0 0 1 -5.499 5.492z"/></g></g></svg>