<svg id="ico_auto_15" xmlns="http://www.w3.org/2000/svg" width="80" height="50" viewBox="0 0 80 50">
<!--    <defs>-->
<!--        <style>-->
<!--            .cls-2{fill:#fff}-->
<!--        </style>-->
<!--    </defs>-->
    <g id="그룹_1340" data-name="그룹 1340" transform="translate(-1086.865 -176.277)">
        <g id="그룹_1338" data-name="그룹 1338" transform="translate(1104.081 182.275)">
            <g id="그룹_1337" data-name="그룹 1337">
                <g id="그룹_1336" data-name="그룹 1336">
                    <path id="패스_769" data-name="패스 769" class="cls-2" d="M1135.406 203.8a10.313 10.313 0 0 1-3.575.465h-12.706l-4.385 6.683a6.144 6.144 0 0 1-2.319 2.319 10.459 10.459 0 0 1-3.571.463h-4.769q4.6-7.019 9.207-14.042a6.144 6.144 0 0 1 2.319-2.319 10.424 10.424 0 0 1 3.575-.465h12.706l4.379-6.683a6.207 6.207 0 0 1 2.319-2.319 10.5 10.5 0 0 1 3.575-.463h4.771q-4.6 7.025-9.207 14.042a6.162 6.162 0 0 1-2.319 2.319z" transform="translate(-1104.081 -176.431)"/>
                    <path id="패스_770" data-name="패스 770" class="cls-2" d="M1125.43 191.708q-4.371 0-4.368-4.434v-.631q0-4.375 4.368-4.368h.633q4.371 0 4.368 4.368v.631q0 4.435-4.368 4.434z" transform="translate(-1084.862 -182.275)"/>
                </g>
            </g>
        </g>
        <g id="그룹_1339" data-name="그룹 1339" transform="translate(1109.786 183.403)">
            <path id="패스_771" data-name="패스 771" class="cls-2" d="M1109.155 188.185q-2.4 0-2.4-2.528v-.36q0-2.494 2.4-2.492h.348q2.4 0 2.4 2.492v.36q0 2.526-2.4 2.528z" transform="translate(-1106.757 -182.804)"/>
            <path id="패스_772" data-name="패스 772" class="cls-2" d="M1121.557 196.116h-4.385a8.316 8.316 0 0 1-2.878-.373 4.973 4.973 0 0 1-1.865-1.865c-2.469-3.765-2.541-4.172-5.008-7.941h2.974a4.957 4.957 0 0 1 1.865.367c1.65.669 4.884 2.279 6.2 5.02h6.342z" transform="translate(-1106.005 -179.258)"/>
        </g>
    </g>
</svg>
