<svg height="50" viewBox="0 0 80 50" width="80" xmlns="http://www.w3.org/2000/svg"><g fill="#fff"><path d="m0 0h80v50h-80z" opacity="0"/><path d="m555.247 89.7a9.495 9.495 0 0 1 -3.274.425h-11.631q-2.005 3.06-4.014 6.117a5.618 5.618 0 0 1 -2.122 2.124 9.549 9.549 0 0 1 -3.27.425h-4.367q4.209-6.428 8.43-12.858a5.647 5.647 0 0 1 2.122-2.124 9.616 9.616 0 0 1 3.274-.425h11.632q2.008-3.061 4.01-6.119a5.672 5.672 0 0 1 2.124-2.122 9.558 9.558 0 0 1 3.274-.425h4.365q-4.212 6.431-8.43 12.858a5.636 5.636 0 0 1 -2.123 2.124z" transform="translate(-507.428 -55.493)"/><path d="m547.575 78.183q-4 0-4-4.059v-.579q0-4 4-4h.579q4 0 4 4v.579q0 4.06-4 4.059z" transform="translate(-491.292 -60.399)"/><path d="m540.038 68.893-1.027-.592a2.74 2.74 0 0 0 -3.745 1l-7.105 12.049-.037 6.148 5.821-2.81 7.1-12.041a2.748 2.748 0 0 0 -1.007-3.754zm-.659 2.779-6.126 10.388-2.446-1.411 6.121-10.383a.825.825 0 0 1 .5-.382.8.8 0 0 1 .622.082l1.027.592a.819.819 0 0 1 .303 1.113z" transform="translate(-505.952 -61.932)"/></g></svg>