<svg height="50" viewBox="0 0 80 50" width="80" xmlns="http://www.w3.org/2000/svg"><g fill="#fff"><path d="m0 0h80v50h-80z" opacity="0"/><path d="m904.646 771.984a10.307 10.307 0 0 1 -3.575.465h-12.705q-2.194 3.345-4.385 6.683a6.145 6.145 0 0 1 -2.319 2.319 10.457 10.457 0 0 1 -3.571.463h-4.769q4.6-7.019 9.207-14.042a6.144 6.144 0 0 1 2.319-2.319 10.479 10.479 0 0 1 3.575-.465h12.706q2.19-3.341 4.379-6.683a6.183 6.183 0 0 1 2.319-2.317 10.434 10.434 0 0 1 3.577-.465h4.769q-4.6 7.025-9.207 14.042a6.143 6.143 0 0 1 -2.32 2.319z" transform="translate(-856.107 -738.62)"/><path d="m894.671 759.893q-4.371 0-4.368-4.434v-.631q0-4.371 4.368-4.368h.633q4.371 0 4.368 4.368v.631q0 4.435-4.368 4.434z" transform="translate(-836.888 -744.463)"/><path d="m886.829 764.622 10.772.019-1.2 2.085h-9.57a2.775 2.775 0 0 0 -2.155 1.027l-2.784 3.807-2.648.049 3.782-5.15a4.858 4.858 0 0 1 3.803-1.837z" transform="translate(-849.405 -728.435)"/></g></svg>