<svg height="50" viewBox="0 0 80 50" width="80" xmlns="http://www.w3.org/2000/svg"><g fill="#fff"><path d="m0 0h80v50h-80z" opacity="0"/><path d="m1998.378 90.233a10.356 10.356 0 0 1 -3.575.463h-12.7q-2.192 3.344-4.385 6.684a6.117 6.117 0 0 1 -2.32 2.318 10.39 10.39 0 0 1 -3.571.465h-4.77q4.6-7.019 9.207-14.042a6.178 6.178 0 0 1 2.32-2.32 10.491 10.491 0 0 1 3.575-.463h12.7q2.189-3.344 4.379-6.684a6.2 6.2 0 0 1 2.32-2.32 10.493 10.493 0 0 1 3.575-.463h4.77q-4.6 7.025-9.208 14.042a6.15 6.15 0 0 1 -2.317 2.32z" transform="translate(-1952.055 -56.865)"/><path d="m1988.636 78.07q-4.373 0-4.368-4.433v-.637q0-4.369 4.368-4.366h.631q4.373 0 4.368 4.366v.633q0 4.432-4.368 4.433z" transform="translate(-1933.068 -62.637)"/><path d="m1988.072 88.5h-2.479s5.308-8.238 7.367-11.645a8.8 8.8 0 0 0 .8-6.341l1.971-.869c.057.179 1.228 4.759-1.005 8.351-2.099 3.377-6.654 10.504-6.654 10.504z" transform="translate(-1931.607 -61.521)"/></g></svg>