<svg height="50" viewBox="0 0 80 50" width="80" xmlns="http://www.w3.org/2000/svg"><g fill="#fff"><path d="m0 0h80v50h-80z" opacity="0"/><path d="m672.908 771.982a10.371 10.371 0 0 1 -3.576.464h-12.706q-2.192 3.342-4.384 6.682a6.119 6.119 0 0 1 -2.32 2.319 10.452 10.452 0 0 1 -3.57.464h-4.771q4.6-7.019 9.208-14.043a6.164 6.164 0 0 1 2.319-2.319 10.437 10.437 0 0 1 3.574-.464h12.705q2.192-3.342 4.379-6.682a6.194 6.194 0 0 1 2.32-2.319 10.44 10.44 0 0 1 3.576-.464h4.769q-4.6 7.026-9.206 14.043a6.164 6.164 0 0 1 -2.317 2.319z" transform="translate(-624.58 -738.616)"/><path d="m662.947 759.884q-4.374 0-4.369-4.432v-.633q0-4.371 4.369-4.366h.63q4.374 0 4.369 4.366v.633q0 4.435-4.369 4.432z" transform="translate(-605.375 -744.455)"/><path d="m660.525 772.387-2.54-.015 11.029-16.686 2.54.013z" transform="translate(-606.044 -738.542)"/></g></svg>