<svg height="50" viewBox="0 0 80 50" width="80" xmlns="http://www.w3.org/2000/svg"><g fill="#fff"><path d="m0 0h80v50h-80z" opacity="0"/><path d="m555.278 207.494a9.866 9.866 0 0 1 -3.323-.861l-11.221-4.517q-3.125 2.171-6.248 4.343a5.858 5.858 0 0 1 -2.874 1.224 9.921 9.921 0 0 1 -3.319-.861l-4.212-1.7q6.556-4.566 13.126-9.13a5.86 5.86 0 0 1 2.872-1.224 9.977 9.977 0 0 1 3.323.861l11.223 4.517q3.125-2.171 6.244-4.345a5.918 5.918 0 0 1 2.873-1.224 9.989 9.989 0 0 1 3.323.861l4.212 1.7q-6.559 4.569-13.126 9.13a5.865 5.865 0 0 1 -2.873 1.226z" transform="translate(-510.283 -165.496)"/><path d="m548.534 199.109q-3.862-1.557-2.281-5.47l.224-.559q1.557-3.862 5.41-2.305l.558.226q3.862 1.554 2.305 5.41l-.224.558q-1.577 3.915-5.434 2.363z" transform="translate(-488.995 -169.665)"/><path d="m544.67 193.045-5.387-.038a.606.606 0 0 1 -.467-1l3.579-4-3.755-.044.636-1.2 4.446.049a.605.605 0 0 1 .449 1l-3.545 3.965 3.729.049z" transform="translate(-496.01 -173.171)"/><path d="m547.184 193.8-4.2-.03a.474.474 0 0 1 -.364-.784l2.79-3.119-2.927-.034.495-.941 3.468.04a.472.472 0 0 1 .351.782l-2.765 3.093 2.907.038z" transform="translate(-492.242 -171.078)"/><circle cx="27.788" cy="11.943" r="5.625"/><path d="m27.174 1.89h1.229v3.097h-1.229z"/><path d="m0 0h1.229v3.098h-1.229z" transform="matrix(.70710678 -.70710678 .70710678 .70710678 20.078 5.2)"/><path d="m17.718 11.426h3.098v1.229h-3.098z"/><path d="m0 0h3.098v1.229h-3.098z" transform="matrix(.70710678 -.70710678 .70710678 .70710678 32.424 6.522)"/><path d="m27.174 18.864h1.229v3.098h-1.229z"/><path d="m0 0h3.098v1.229h-3.098z" transform="matrix(.70710678 -.70710678 .70710678 .70710678 20.078 18.653)"/><path d="m0 0h1.229v3.098h-1.229z" transform="matrix(.70710678 -.70710678 .70710678 .70710678 32.424 17.331)"/><path d="m34.746 11.426h3.097v1.229h-3.097z"/></g></svg>