<svg height="50" viewBox="0 0 80 50" width="80" xmlns="http://www.w3.org/2000/svg"><g fill="#fff"><path d="m0 0h80v50h-80z" opacity="0"/><path d="m299.921 190.013a1.5 1.5 0 0 0 .546-.278 1.277 1.277 0 0 0 .312-.508 2.507 2.507 0 0 0 .1-.741v-1.081a1.833 1.833 0 0 0 -.123-.675 1.486 1.486 0 0 0 -.459-.514 5.127 5.127 0 0 0 -.849-.446l-.28-.11c-.308-.121-.671-.263-1.087-.418-.45-.161-.8-.291-1.068-.414a2.347 2.347 0 0 1 -.588-.293.437.437 0 0 1 -.212-.236.723.723 0 0 1 -.053-.3v-.414a.617.617 0 0 1 .03-.174.317.317 0 0 1 .07-.144.449.449 0 0 1 .138-.115.513.513 0 0 1 .244-.049h3.977v-1.283h-4.15a1.807 1.807 0 0 0 -1.266.393 1.4 1.4 0 0 0 -.427 1.058v.962a1.838 1.838 0 0 0 .113.737 1.063 1.063 0 0 0 .427.565 2.72 2.72 0 0 0 .826.452c.346.149.811.308 1.3.478a12.761 12.761 0 0 1 1.572.639c.318.185.48.4.48.626v.465a.632.632 0 0 1 -.144.488.839.839 0 0 1 -.495.123h-4.192v1.283h4.453a4.384 4.384 0 0 0 .805-.076z" transform="translate(-279.366 -177.34)"/><path d="m298.681 189.471a1.573 1.573 0 0 0 .794.482 5.438 5.438 0 0 0 1.293.134h3.561v-1.3h-3.281a4.589 4.589 0 0 1 -.828-.059.627.627 0 0 1 -.4-.221.767.767 0 0 1 -.174-.467 6.96 6.96 0 0 1 -.04-.9v-4.691a.721.721 0 0 0 -.142-.467.7.7 0 0 0 -.52-.166h-.722v5.617a7.013 7.013 0 0 0 .089 1.2 1.6 1.6 0 0 0 .37.838z" transform="translate(-275.358 -177.34)"/><path d="m302.458 189.737a2.505 2.505 0 0 0 1.032.4 9.34 9.34 0 0 0 1.4.1 9.617 9.617 0 0 0 1.414-.1 2.6 2.6 0 0 0 1.028-.406 1.981 1.981 0 0 0 .622-.835 4.061 4.061 0 0 0 .2-1.353v-3.081a4.147 4.147 0 0 0 -.2-1.344 1.961 1.961 0 0 0 -.626-.847 2.61 2.61 0 0 0 -1.026-.4 9.776 9.776 0 0 0 -2.816 0 2.529 2.529 0 0 0 -1.032.4 1.866 1.866 0 0 0 -.643.843 3.579 3.579 0 0 0 -.21 1.346v3.081a3.457 3.457 0 0 0 .21 1.355 1.885 1.885 0 0 0 .647.841zm2.434-6.592c.376 0 .7.021.926.04a1.334 1.334 0 0 1 .554.2.912.912 0 0 1 .3.44 3.446 3.446 0 0 1 .1.873v2.618a3.21 3.21 0 0 1 -.1.869.837.837 0 0 1 -.3.442 1.024 1.024 0 0 1 -.556.191 6.27 6.27 0 0 1 -.926.051 6.428 6.428 0 0 1 -.958-.051 1.057 1.057 0 0 1 -.569-.2.756.756 0 0 1 -.28-.452 2.7 2.7 0 0 1 -.1-.845v-2.621a2.943 2.943 0 0 1 .1-.86.786.786 0 0 1 .287-.442 1.2 1.2 0 0 1 .563-.2 7.824 7.824 0 0 1 .959-.053z" transform="translate(-271.563 -177.393)"/><path d="m306.672 189.856a1.212 1.212 0 0 0 .733.183 1.033 1.033 0 0 0 .66-.2 1.273 1.273 0 0 0 .31-.518l1.181-3.755 1.185 3.755a1.1 1.1 0 0 0 .321.52.934.934 0 0 0 .65.2 1.284 1.284 0 0 0 .75-.189.962.962 0 0 0 .285-.546l1.14-7.433h-.658a.9.9 0 0 0 -.561.142.835.835 0 0 0 -.274.563l-.807 5.226-1.019-3.3a1.5 1.5 0 0 0 -.1-.24 1.353 1.353 0 0 0 -.159-.212l-.032-.034a1.349 1.349 0 0 0 -.289-.166 1.24 1.24 0 0 0 -.433-.066 1.108 1.108 0 0 0 -.418.066.9.9 0 0 0 -.493.414 1.65 1.65 0 0 0 -.1.24l-1.017 3.3-.72-4.721-.091-.5a.936.936 0 0 0 -.266-.567 1.006 1.006 0 0 0 -.565-.138h-.663l1.142 7.431a.883.883 0 0 0 .308.545z" transform="translate(-267.491 -177.281)"/><path d="m319.218 183.323h-.631q-4.364 0-4.36 4.362v.631q0 4.425 4.36 4.426h.631q4.364 0 4.36-4.426v-.631q0-4.364-4.36-4.362z" transform="translate(-257.376 -175.649)"/><path d="m335.316 188.96a6.173 6.173 0 0 0 -2.316 2.315l-4.372 6.672h-12.682c-.1 0-.191.006-.291.006-5.681-.072-16.294 0-21.7-.076l2.54 4a10.386 10.386 0 0 0 2.289 2.746 6.09 6.09 0 0 0 3.177.709c.3 0 .68.006 1.126.006 1.047 0 2.457-.011 3.969-.025q-3.093 4.718-6.184 9.431h4.761a10.455 10.455 0 0 0 3.565-.463 6.113 6.113 0 0 0 2.315-2.315q2.188-3.338 4.377-6.672h12.682a10.317 10.317 0 0 0 3.57-.463 6.173 6.173 0 0 0 2.315-2.315q4.6-7.008 9.191-14.018h-4.761a10.43 10.43 0 0 0 -3.571.462zm-25.254 11.765q-.812 1.236-1.622 2.474c-2.026.021-3.992.038-5.354.038-.433 0-.8 0-1.1-.006a4.783 4.783 0 0 1 -1.956-.3 8.3 8.3 0 0 1 -1.763-2.183l-.469-.739c2.19.008 4.668.008 7.1.008h5.666c-.188.245-.356.483-.502.708z" transform="translate(-280.156 -169.836)"/></g></svg>