<svg height="50" viewBox="0 0 80 50" width="80" xmlns="http://www.w3.org/2000/svg"><g fill="#fff"><path d="m0 0h80v50h-80z" opacity="0"/><path d="m789.141 771.984a10.3 10.3 0 0 1 -3.575.465h-12.705q-2.194 3.345-4.385 6.683a6.145 6.145 0 0 1 -2.319 2.319 10.45 10.45 0 0 1 -3.571.463h-4.769q4.6-7.019 9.207-14.042a6.159 6.159 0 0 1 2.319-2.319 10.478 10.478 0 0 1 3.575-.465h12.706q2.19-3.341 4.379-6.683a6.184 6.184 0 0 1 2.319-2.317 10.435 10.435 0 0 1 3.577-.465h4.769q-4.6 7.025-9.207 14.042a6.143 6.143 0 0 1 -2.32 2.319z" transform="translate(-740.602 -738.62)"/><path d="m779.166 759.893q-4.371 0-4.368-4.434v-.631q0-4.371 4.368-4.368h.633q4.371 0 4.368 4.368v.631q0 4.435-4.368 4.434z" transform="translate(-721.383 -744.463)"/><path d="m775.542 769.883-5.675-.017 1.2-2.087h4.475a2.767 2.767 0 0 0 2.153-1.028l4.27-5.7 2.648-.049-5.266 7.048a4.858 4.858 0 0 1 -3.805 1.833z" transform="translate(-726.964 -732.536)"/></g></svg>