<svg height="50" viewBox="0 0 80 50" width="80" xmlns="http://www.w3.org/2000/svg"><g fill="#fff"><path d="m0 0h80v50h-80z" opacity="0"/><circle cx="58.341" cy="29.321" r="1.928"/><circle cx="60.27" cy="24.721" r="1.658"/><circle cx="56.414" cy="34.433" r="1.658"/><circle cx="63.731" cy="21.406" r="1.439"/><circle cx="52.777" cy="37.53" r="1.439"/><circle cx="67.981" cy="20.505" r="1.22"/><circle cx="48.352" cy="37.749" r="1.22"/><path d="m1125.863 759.885q-4.373 0-4.368-4.433v-.632q0-4.373 4.368-4.368h.63q4.373 0 4.37 4.368v.632q0 4.434-4.37 4.433z" transform="translate(-1067.562 -744.455)"/><path d="m1146.252 755.619a10.442 10.442 0 0 0 -3.576.464 6.182 6.182 0 0 0 -2.319 2.319q-2.194 3.344-4.38 6.682h-12.7c-.1 0-.192.006-.292.008-5.692-.072-16.324 0-21.74-.077q1.271 2 2.545 4.006a10.38 10.38 0 0 0 2.293 2.749 6.078 6.078 0 0 0 3.184.711c.3 0 .679.006 1.126.006 1.048 0 2.46-.011 3.976-.026q-3.1 4.724-6.195 9.448h4.77a10.461 10.461 0 0 0 3.571-.464 6.132 6.132 0 0 0 2.319-2.319q2.191-3.344 4.385-6.682h12.7a10.371 10.371 0 0 0 3.575-.464 6.169 6.169 0 0 0 2.319-2.321q4.606-7.018 9.208-14.042zm-35.863 14.766c-.434 0-.8 0-1.1 0a4.788 4.788 0 0 1 -1.959-.3 8.163 8.163 0 0 1 -1.768-2.185l-.471-.743c2.193.009 4.677.009 7.11.009 1.923 0 3.857 0 5.677.006-.183.238-.354.479-.5.7q-.814 1.239-1.627 2.481c-2.029.015-3.999.032-5.362.032z" transform="translate(-1090.439 -738.618)"/></g></svg>