<svg id="ico_auto_19" xmlns="http://www.w3.org/2000/svg" width="80" height="50" viewBox="0 0 80 50">
<!--    <defs>-->
<!--        <style>-->
<!--            .cls-2{fill:#fff}-->
<!--        </style>-->
<!--    </defs>-->
    <g id="그룹_1351" data-name="그룹 1351" transform="translate(-739.791 -62.326)">
        <g id="그룹_1350" data-name="그룹 1350" transform="translate(760.026 70.019)">
            <g id="그룹_1349" data-name="그룹 1349">
                <path id="패스_787" data-name="패스 787" class="cls-2" d="M788.284 89.946a9.843 9.843 0 0 1-3.413.443h-12.128q-2.092 3.193-4.184 6.379a5.854 5.854 0 0 1-2.214 2.214 9.939 9.939 0 0 1-3.409.443h-4.553q4.391-6.7 8.788-13.4a5.861 5.861 0 0 1 2.216-2.214 9.953 9.953 0 0 1 3.411-.443h12.128q2.095-3.193 4.182-6.379a5.918 5.918 0 0 1 2.214-2.216 10.026 10.026 0 0 1 3.413-.441h4.553q-4.391 6.705-8.79 13.4a5.872 5.872 0 0 1-2.214 2.214z" transform="translate(-758.383 -63.82)"/>
                <path id="패스_788" data-name="패스 788" class="cls-2" d="M779.551 78.164q-4.171 0-4.169-4.232v-.6q0-4.171 4.169-4.169h.6q4.174 0 4.169 4.169v.6q0 4.232-4.169 4.232z" transform="translate(-740.826 -69.159)"/>
            </g>
        </g>
        <path id="패스_789" data-name="패스 789" class="cls-2" d="M780.143 76.057a.567.567 0 0 0-.423-.161h-2.25a.585.585 0 1 0 0 1.169h1.567a4.96 4.96 0 0 1-.953 1.986c-1.3 1.628-3.655 2.5-6.784 2.584a7.663 7.663 0 0 0 4.334-3.159c2.289-3.645.659-8.515.587-8.725a.6.6 0 0 0-.343-.356.579.579 0 0 0-.492.026s-.838.435-1.669.876c-.417.222-.836.443-1.146.612-.159.087-.293.159-.382.209-.527.3-.5.638-.376.874a.591.591 0 0 0 .88.207c.185-.116 1.456-.789 2.6-1.386.323 1.321.882 4.578-.657 7.029a6.6 6.6 0 0 1-3.877 2.7 6.727 6.727 0 0 0 2-4.808c-.075-3.9-3.486-6.936-3.877-7.271a.6.6 0 0 0-.8.024c-2.9 2.785-4.206 5.511-3.864 8.1a7.078 7.078 0 0 0 2.025 3.974 6.647 6.647 0 0 1-3.95-2.718c-1.541-2.452-.982-5.71-.659-7.034 1.138.6 2.407 1.271 2.571 1.368a.563.563 0 0 0 .106.069.59.59 0 0 0 .8-.26c.12-.234.148-.575-.376-.872-.089-.051-.224-.122-.382-.209-.313-.169-.73-.39-1.147-.612-.831-.441-1.669-.876-1.669-.876a.594.594 0 0 0-.836.329c-.071.205-1.734 5.031.586 8.725a7.713 7.713 0 0 0 4.454 3.208c-3.169-.106-5.454-.933-6.723-2.521a5.42 5.42 0 0 1-.935-1.931h1.551a.672.672 0 0 0 0-1.336h-2.252a.629.629 0 0 0-.421.209.676.676 0 0 0-.173.455 5.722 5.722 0 0 0 1.273 3.257c1.106 1.4 3.425 3.08 8.259 3.082h.077a.6.6 0 0 0 .589-.6.573.573 0 0 0-.161-.376c.435.091.846.205 1.319.26l.077.006a.407.407 0 0 0 .118-.02.574.574 0 0 0 .262.006.323.323 0 0 0 .094.014l.071-.006a13.282 13.282 0 0 0 1.492-.293.5.5 0 0 0-.146.36.506.506 0 0 0 .146.37.609.609 0 0 0 .441.171h.128c4.787 0 7.107-1.673 8.211-3.076a5.721 5.721 0 0 0 1.27-3.248.564.564 0 0 0-.165-.405zm-8.57-.3c.053 2.759-2.187 4.545-3.076 5.143a6.819 6.819 0 0 1-3.1-4.464c-.274-2.078.77-4.33 3.106-6.7.897.891 3.017 3.284 3.069 6.022z"/>
    </g>
</svg>
