<svg height="50" viewBox="0 0 80 50" width="80" xmlns="http://www.w3.org/2000/svg"><g fill="#fff"><path d="m0 0h80v50h-80z" opacity="0"/><path d="m439.72 771.173a9.387 9.387 0 0 1 -3.24.419h-11.515q-1.985 3.031-3.972 6.057a5.568 5.568 0 0 1 -2.1 2.1 9.486 9.486 0 0 1 -3.238.419h-4.325q4.168-6.361 8.345-12.727a5.582 5.582 0 0 1 2.1-2.1 9.51 9.51 0 0 1 3.24-.419h11.515q1.985-3.031 3.969-6.057a5.6 5.6 0 0 1 2.1-2.1 9.46 9.46 0 0 1 3.242-.421h4.322q-4.167 6.367-8.345 12.727a5.587 5.587 0 0 1 -2.098 2.102z" transform="translate(-391.98 -736.875)"/><path d="m432.269 759.729q-3.962 0-3.957-4.017v-.574q0-3.962 3.957-3.959h.574q3.962 0 3.959 3.959v.574q0 4.017-3.959 4.017z" transform="translate(-376.151 -741.687)"/><path d="m427.18 754.315-11.015-4.575v15.9c-2.123.1-3.733.574-3.733 1.144 0 .643 2.054 1.165 4.587 1.165s4.587-.522 4.587-1.165c0-.568-1.6-1.04-3.712-1.144v-6.212l9.3-4.386a.4.4 0 0 0 -.014-.727z" transform="translate(-390.953 -743.029)"/></g></svg>