<svg id="ico_auto_18" xmlns="http://www.w3.org/2000/svg" width="80" height="50" viewBox="0 0 80 50">
<!--    <defs>-->
<!--        <style>-->
<!--            .cls-3{fill:#fff}.cls-2{fill:none;stroke-linecap:round;stroke-miterlimit:10}.cls-4,.cls-5{stroke:none}.cls-5{fill:#fff}-->
<!--        </style>-->
<!--    </defs>-->
    <g id="그룹_1348" data-name="그룹 1348" transform="translate(-624.138 -58.791)">
        <g id="패스_780" data-name="패스 780" class="cls-2">
            <path class="cls-4" d="m655.123 88.226-2.351-5.74a5.216 5.216 0 0 1-.329-2.753A8.865 8.865 0 0 1 654 77.116l2.494-3.168 4.811 11.9z" transform="translate(11.014 3.232)"/>
            <path class="cls-5" d="m655.682 86.93 4.305-1.652-3.774-9.339-1.417 1.8c-.93 1.183-1.268 1.9-1.388 2.288-.09.3-.056 1.01.31 2.108l1.964 4.795m-.56 1.296-2.35-5.74c-.277-.822-.562-1.985-.33-2.752.213-.69.73-1.561 1.56-2.618l2.494-3.168 4.811 11.903-6.184 2.375z" transform="translate(11.014 3.232)"/>
        </g>
        <g id="패스_781" data-name="패스 781" class="cls-2">
            <path class="cls-4" d="M656.743 77.548q-2.284 2.9-5.228.584l-.415-.332q-2.906-2.286-.62-5.185l.329-.419q2.286-2.906 5.185-.62l.421.329q2.945 2.317.663 5.218z" transform="translate(8.528 .326)"/>
            <path class="cls-5" d="M654 78.153c.662 0 1.3-.402 1.95-1.23l.331-.42c1.178-1.497 1.035-2.598-.491-3.8l-.423-.33c-.666-.525-1.275-.79-1.811-.79-.66 0-1.3.405-1.957 1.24l-.33.42c-.586.745-.848 1.42-.779 2.003.07.583.484 1.177 1.23 1.764l.42.33c.685.54 1.311.813 1.86.813m0 1.009c-.784 0-1.613-.343-2.485-1.03l-.418-.329c-1.938-1.524-2.144-3.247-.62-5.185l.33-.418c1.523-1.938 3.249-2.144 5.184-.62l.42.33c1.964 1.544 2.186 3.282.663 5.218l-.331.42c-.846 1.076-1.76 1.614-2.743 1.614z" transform="translate(8.528 .326)"/>
        </g>
        <g id="그룹_1345" data-name="그룹 1345" transform="translate(667.906 70.194)">
            <path id="패스_782" data-name="패스 782" class="cls-3" d="M663.31 71.553a7.039 7.039 0 0 0-8.347.024l-.169.125.646.977.188-.14a5.841 5.841 0 0 1 7.011-.011l.19.14.653-.99z" transform="translate(-654.794 -70.194)"/>
            <path id="패스_783" data-name="패스 783" class="cls-3" d="M658.471 71.571a4.132 4.132 0 0 0-2.738 1.053l-.145.128.653.986.192-.182a2.952 2.952 0 0 1 4.046-.026l.192.179.651-.985-.147-.128a4.145 4.145 0 0 0-2.704-1.025z" transform="translate(-654.11 -69.008)"/>
        </g>
        <g id="패스_784" data-name="패스 784" class="cls-2">
            <path class="cls-4" d="m653.415 87.011-9.1-3.281a5.261 5.261 0 0 1-2.291-1.561 8.926 8.926 0 0 1-.947-2.9l-.748-3.96 15.257 6.041z" transform="translate(.656 4.405)"/>
            <path class="cls-5" d="m652.827 85.726 1.459-3.804-12.627-5 .408 2.16c.281 1.474.596 2.201.812 2.551.17.266.73.707 1.801 1.156l8.147 2.937m.588 1.285-9.1-3.282c-.801-.333-1.865-.884-2.292-1.56-.38-.615-.696-1.58-.947-2.899l-.748-3.96 15.257 6.041-2.17 5.66z" transform="translate(.656 4.405)"/>
        </g>
        <g id="그룹_1347" data-name="그룹 1347" transform="translate(637.837 76.497)">
            <g id="그룹_1346" data-name="그룹 1346">
                <path id="패스_785" data-name="패스 785" class="cls-3" d="M670.88 91.165a9.912 9.912 0 0 1-3.335-.865l-11.263-4.536q-3.138 2.184-6.273 4.36a5.862 5.862 0 0 1-2.884 1.229 9.98 9.98 0 0 1-3.331-.865l-4.229-1.7q6.583-4.581 13.175-9.163a5.891 5.891 0 0 1 2.884-1.227 9.95 9.95 0 0 1 3.335.865l11.263 4.534 6.269-4.36a5.93 5.93 0 0 1 2.884-1.229 10.01 10.01 0 0 1 3.334.867l4.229 1.7q-6.586 4.587-13.175 9.163a5.9 5.9 0 0 1-2.883 1.227z" transform="translate(-639.566 -69.753)"/>
                <path id="패스_786" data-name="패스 786" class="cls-3" d="M663.983 82.773q-3.875-1.56-2.291-5.488l.225-.562q1.563-3.875 5.432-2.313l.56.225q3.876 1.56 2.313 5.432l-.225.56q-1.581 3.929-5.454 2.37z" transform="translate(-618.072 -73.962)"/>
            </g>
        </g>
    </g>
</svg>
