<svg id="ico_auto_13" xmlns="http://www.w3.org/2000/svg" width="80" height="50" viewBox="0 0 80 50">
<!--    <defs>-->
<!--        <style>-->
<!--            .cls-2{fill:#fff}-->
<!--        </style>-->
<!--    </defs>-->
    <g id="그룹_1330" data-name="그룹 1330" transform="translate(-855.992 -177.186)">
        <path id="패스_761" data-name="패스 761" class="cls-2" d="M907.7 188.185a6.192 6.192 0 0 0-2.318 2.318q-2.191 3.34-4.377 6.678H888.3a10.467 10.467 0 0 0-3.572.464 6.132 6.132 0 0 0-2.318 2.318q-4.6 7.016-9.2 14.036h4.767a10.408 10.408 0 0 0 3.57-.464 6.133 6.133 0 0 0 2.318-2.318l4.381-6.678h12.7a10.322 10.322 0 0 0 3.574-.464 6.157 6.157 0 0 0 2.316-2.318q4.6-7.016 9.2-14.036h-4.767a10.437 10.437 0 0 0-3.569.464z" transform="translate(.17 6.481)"/>
        <path id="패스_762" data-name="패스 762" class="cls-2" d="M895.2 182.554h-.632q-4.369 0-4.364 4.366v.63q0 4.432 4.364 4.432h.632q4.369 0 4.366-4.432v-.63q.001-4.371-4.366-4.366z" transform="translate(19.358 .647)"/>
        <path id="패스_763" data-name="패스 763" class="cls-2" d="M874.311 190.184a5.427 5.427 0 0 0 1.292.134h3.575v-1.305h-3.289a4.569 4.569 0 0 1-.83-.06.629.629 0 0 1-.4-.221.735.735 0 0 1-.174-.471 6.438 6.438 0 0 1-.043-.9v-2.382a6.894 6.894 0 0 1 .043-.913.8.8 0 0 1 .177-.468.656.656 0 0 1 .4-.206 4.5 4.5 0 0 1 .83-.06h2.985v-1.307H875.6a5.371 5.371 0 0 0-1.3.136 1.514 1.514 0 0 0-1.156 1.32 6.183 6.183 0 0 0-.094 1.2v2.97a6.318 6.318 0 0 0 .092 1.2 1.6 1.6 0 0 0 .366.841 1.573 1.573 0 0 0 .803.492z" transform="translate(0 .054)"/>
        <path id="패스_764" data-name="패스 764" class="cls-2" d="M876.934 189.7a1.592 1.592 0 0 0 .8.483 5.478 5.478 0 0 0 1.3.134h3.566v-1.305h-3.289a4.632 4.632 0 0 1-.832-.06.631.631 0 0 1-.4-.219.788.788 0 0 1-.177-.473 6.915 6.915 0 0 1-.04-.9v-.592a.177.177 0 0 1 .064-.1.238.238 0 0 1 .155-.047h3.99v-1.307h-3.917a.833.833 0 0 0-.272.034h-.017v-.368a7.361 7.361 0 0 1 .04-.913.838.838 0 0 1 .177-.468.746.746 0 0 1 .4-.217 4.346 4.346 0 0 1 .832-.06h3.085v-1.307h-3.368a5.42 5.42 0 0 0-1.3.136 1.521 1.521 0 0 0-1.156 1.32 6.448 6.448 0 0 0-.091 1.2v2.97a6.77 6.77 0 0 0 .089 1.2 1.6 1.6 0 0 0 .361.859z" transform="translate(3.862 .054)"/>
        <path id="패스_765" data-name="패스 765" class="cls-2" d="M880.8 189.967a2.5 2.5 0 0 0 1.035.4 9.366 9.366 0 0 0 1.405.1 9.643 9.643 0 0 0 1.418-.1 2.642 2.642 0 0 0 1.03-.407 1.968 1.968 0 0 0 .624-.837 4.071 4.071 0 0 0 .2-1.356v-3.091a4.154 4.154 0 0 0-.2-1.345 1.958 1.958 0 0 0-.628-.849 2.64 2.64 0 0 0-1.028-.4 9.723 9.723 0 0 0-2.823 0 2.539 2.539 0 0 0-1.037.4 1.862 1.862 0 0 0-.643.845 3.575 3.575 0 0 0-.211 1.348v3.091a3.465 3.465 0 0 0 .211 1.358 1.888 1.888 0 0 0 .647.843zm2.44-6.608c.377 0 .7.021.928.04a1.337 1.337 0 0 1 .556.2.915.915 0 0 1 .3.441 3.479 3.479 0 0 1 .1.875v2.625a3.216 3.216 0 0 1-.1.871.839.839 0 0 1-.3.443 1.045 1.045 0 0 1-.558.192 6 6 0 0 1-.928.051 6.182 6.182 0 0 1-.96-.051 1.059 1.059 0 0 1-.57-.2.757.757 0 0 1-.281-.453 2.689 2.689 0 0 1-.1-.847v-2.625a2.946 2.946 0 0 1 .1-.862.787.787 0 0 1 .287-.443 1.25 1.25 0 0 1 .564-.2 8.415 8.415 0 0 1 .965-.057z" transform="translate(7.776)"/>
    </g>
</svg>
