<svg height="50" viewBox="0 0 80 50" width="80" xmlns="http://www.w3.org/2000/svg"><g fill="#fff"><path d="m0 0h80v50h-80z" opacity="0"/><path d="m208.625 774.2a9.846 9.846 0 0 1 -3.324-.861l-11.22-4.519q-3.127 2.174-6.249 4.344a5.856 5.856 0 0 1 -2.873 1.224 9.963 9.963 0 0 1 -3.32-.861l-4.213-1.7q6.557-4.563 13.127-9.13a5.853 5.853 0 0 1 2.873-1.222 9.924 9.924 0 0 1 3.322.861l11.22 4.517 6.247-4.344a5.9 5.9 0 0 1 2.873-1.224 9.966 9.966 0 0 1 3.322.861l4.213 1.7q-6.56 4.569-13.127 9.13a5.877 5.877 0 0 1 -2.871 1.224z" transform="translate(-163.628 -732.205)"/><path d="m202.09 765.778q-3.86-1.556-2.281-5.47l.226-.557q1.553-3.863 5.411-2.306l.557.226q3.863 1.556 2.3 5.411l-.224.559q-1.577 3.916-5.435 2.361z" transform="translate(-142.552 -736.333)"/><path d="m197.636 760.837-8.9-.063a1 1 0 0 1 -.771-1.659l5.909-6.609-6.2-.071 1.051-1.991 7.341.083a1 1 0 0 1 .743 1.659l-5.854 6.549 6.158.082z" transform="translate(-153.774 -742.633)"/><path d="m201.852 762.108-6.937-.049a.78.78 0 0 1 -.6-1.292l4.609-5.154-4.836-.055.82-1.551 5.725.063a.78.78 0 0 1 .579 1.294l-4.566 5.105 4.8.065z" transform="translate(-147.615 -739.209)"/></g></svg>