<svg xmlns="http://www.w3.org/2000/svg" id="ico_mental_02" width="80" height="50" viewBox="0 0 80 50">
    <g id="그룹_361" transform="translate(-1488.027 -630.273)">
        <g id="그룹_359" transform="translate(1506.027 637.562)">
            <path id="패스_92" d="M1536.552 658.079a10.041 10.041 0 0 1-3.484.453h-12.381q-2.134 3.259-4.271 6.511a5.982 5.982 0 0 1-2.26 2.261 10.138 10.138 0 0 1-3.48.453h-4.648q4.482-6.84 8.973-13.684a5.994 5.994 0 0 1 2.261-2.261 10.207 10.207 0 0 1 3.484-.453h12.379q2.136-3.255 4.269-6.511a6.039 6.039 0 0 1 2.26-2.26 10.217 10.217 0 0 1 3.484-.451h4.648q-4.482 6.846-8.973 13.685a5.975 5.975 0 0 1-2.261 2.257z" class="cls-2" transform="translate(-1506.027 -631.409)"/>
            <path id="패스_93" d="M1527.495 646.1q-4.258 0-4.255-4.32v-.617q0-4.261 4.255-4.257h.617q4.261 0 4.257 4.257v.617q0 4.319-4.257 4.32z" class="cls-2" transform="translate(-1487.962 -636.902)"/>
        </g>
        <g id="그룹_360" transform="translate(1510.315 636.273)">
            <path id="패스_94" d="M1509.464 642.593l-.7.705a2.185 2.185 0 0 0 3.091 3.091l3.8-3.8-3.8-3.8a2.186 2.186 0 1 0-3.091 3.093z" class="cls-2" transform="translate(-1508.119 -634.297)"/>
            <path id="패스_95" d="M1514.437 646.9l.707.682a2.182 2.182 0 0 0 3.091 0 2.187 2.187 0 0 0 0-3.091l-3.8-3.8-3.8 3.8a2.186 2.186 0 1 0 3.091 3.091z" class="cls-2" transform="translate(-1506.143 -631.632)"/>
            <path id="패스_96" d="M1518.726 642.593l.7-.7a2.187 2.187 0 0 0-3.093-3.093l-3.8 3.8 3.8 3.8a2.187 2.187 0 0 0 3.091-3.095z" class="cls-2" transform="translate(-1503.478 -634.297)"/>
            <path id="패스_97" d="M1514.439 637.607l-.7-.693a2.186 2.186 0 0 0-3.119 3.064l.029.027 3.8 3.8 3.8-3.8a2.186 2.186 0 1 0-3.093-3.091z" class="cls-2" transform="translate(-1506.143 -636.273)"/>
        </g>
    </g>
</svg>
