<svg xmlns="http://www.w3.org/2000/svg" id="ico_mental_08" width="80" height="50" viewBox="0 0 80 50">
    <g id="그룹_1398" transform="translate(-970.625 -630.17)">
        <g id="그룹_1397" transform="translate(988.787 637.748)">
            <path id="패스_820" d="M1018.809 657.26a9.939 9.939 0 0 1-3.426.445h-12.177l-4.2 6.4a5.9 5.9 0 0 1-2.224 2.224 10.036 10.036 0 0 1-3.422.443h-4.571q4.408-6.728 8.824-13.458a5.9 5.9 0 0 1 2.224-2.222 10 10 0 0 1 3.426-.445h12.177l4.2-6.406a5.938 5.938 0 0 1 2.222-2.222 10.006 10.006 0 0 1 3.426-.445h4.573q-4.408 6.734-8.826 13.458a5.913 5.913 0 0 1-2.226 2.228z" class="cls-2" transform="translate(-988.787 -631.03)"/>
            <path id="패스_821" d="M1009.974 645.449q-4.188 0-4.185-4.249v-.606q0-4.191 4.185-4.185h.606q4.19 0 4.188 4.185v.606q0 4.249-4.187 4.249z" class="cls-2" transform="translate(-971.094 -636.409)"/>
        </g>
        <path id="패스_822" d="M1004.414 647.949a11.718 11.718 0 0 0-2.259-4.465 6.544 6.544 0 0 1-1.514-5.049 8.6 8.6 0 0 1 1.043-3.314 11.867 11.867 0 0 0-3.073 4.047 6.161 6.161 0 0 0-.026 4.977c.241.506 0 .518-.225.057a4.009 4.009 0 0 0-2.571-2.151 2.7 2.7 0 0 1 .559 1.655c-.047.9-.739 1.618-1.708 2.718s-1.345 3.983-.178 5.359a5.39 5.39 0 0 0 2.155 1.482 7.168 7.168 0 0 0 5.208 0c2.584-.951 2.833-3.948 2.589-5.316zm-2.534.367c0 .478 0 1.071-1.1 2.024-.339.294-.579.494-.775.653a.894.894 0 1 1-1.788 0c-.2-.159-.437-.359-.776-.653-1.1-.953-1.1-1.547-1.1-2.024v-.029a1.278 1.278 0 0 1 .329-.784 1.315 1.315 0 0 1 1.018-.455h.01a1.352 1.352 0 0 1 .992.437 1.759 1.759 0 0 1 .325.453l.094.208.094-.208a1.566 1.566 0 0 1 1.316-.89h.01a1.324 1.324 0 0 1 1.02.455 1.286 1.286 0 0 1 .326.784z" class="cls-2" transform="translate(5.151)"/>
    </g>
</svg>
