<svg xmlns="http://www.w3.org/2000/svg" id="ico_mental_01" width="80" height="50" viewBox="0 0 80 50">
    <g id="그룹_358" transform="translate(-1373.539 -630.588)">
        <g id="그룹_357" transform="translate(1390.538 636.588)">
            <path id="패스_89" d="M1421.813 658.158a10.355 10.355 0 0 1-3.57.462h-12.686l-4.376 6.673a6.131 6.131 0 0 1-2.316 2.316 10.452 10.452 0 0 1-3.566.462h-4.763q4.593-7.008 9.193-14.021a6.141 6.141 0 0 1 2.316-2.316 10.455 10.455 0 0 1 3.568-.462h12.687l4.374-6.673a6.174 6.174 0 0 1 2.316-2.316 10.466 10.466 0 0 1 3.57-.462h4.763q-4.593 7.015-9.193 14.021a6.174 6.174 0 0 1-2.317 2.316z" class="cls-2" transform="translate(-1390.538 -630.833)"/>
            <path id="패스_90" d="M1412.111 646.006q-4.366 0-4.361-4.426v-.63q0-4.366 4.361-4.361h.632q4.366 0 4.361 4.361v.63q0 4.425-4.361 4.426z" class="cls-2" transform="translate(-1371.607 -636.588)"/>
        </g>
        <path id="패스_91" d="M1409.651 637.934a3.913 3.913 0 0 0-3.016-1.346h-.031a4.638 4.638 0 0 0-3.9 2.635l-.277.613-.277-.613a5.327 5.327 0 0 0-.962-1.344 4.009 4.009 0 0 0-2.935-1.291h-.033a3.913 3.913 0 0 0-3.016 1.346 3.787 3.787 0 0 0-.972 2.323v.082c0 1.413 0 3.171 3.255 6 1 .867 1.718 1.459 2.3 1.934a12 12 0 0 1 2.646 2.675 11.986 11.986 0 0 1 2.646-2.675c.577-.475 1.3-1.067 2.3-1.934 3.259-2.826 3.256-4.584 3.255-6v-.082a3.785 3.785 0 0 0-.983-2.323zm-4.08 6.8h-2.465v2.478h-1.331v-2.478h-2.491v-1.111h2.491v-2.488h1.331v2.488h2.465z" class="cls-2" transform="translate(4.062)"/>
    </g>
</svg>
