<svg xmlns="http://www.w3.org/2000/svg" id="ico_mental_04" width="80" height="50" viewBox="0 0 80 50">

    <g id="그룹_367" transform="translate(-1719.008 -629.586)">
        <g id="그룹_365" transform="translate(1737.007 636.588)">
            <path id="패스_101" d="M1767.512 657.756a10.107 10.107 0 0 1-3.484.451h-12.371q-2.135 3.257-4.271 6.509a5.96 5.96 0 0 1-2.259 2.259 10.18 10.18 0 0 1-3.478.451h-4.643q4.477-6.836 8.965-13.676a6.017 6.017 0 0 1 2.259-2.259 10.222 10.222 0 0 1 3.482-.45h12.373q2.135-3.257 4.264-6.509a6.034 6.034 0 0 1 2.259-2.259 10.221 10.221 0 0 1 3.482-.451h4.645q-4.479 6.842-8.967 13.676a6 6 0 0 1-2.256 2.258z" class="cls-2" transform="translate(-1737.007 -631.103)"/>
            <path id="패스_102" d="M1758.473 645.774q-4.258 0-4.254-4.318v-.615q0-4.258 4.254-4.254h.614q4.259 0 4.254 4.254v.615q0 4.316-4.254 4.318z" class="cls-2" transform="translate(-1718.966 -636.588)"/>
        </g>
        <g id="그룹_366" transform="translate(1744.647 636.588)">
            <path id="패스_103" fill="none" d="M1746.226 642.1l.3-.277.006-.012c-.137.117-.248.207-.373.309.023-.009.049-.001.067-.02z" transform="translate(-1735.052 -631.11)"/>
            <path id="패스_104" d="M1753.4 637.9a3.8 3.8 0 0 0-2.933-1.309h-.031a4.511 4.511 0 0 0-3.791 2.562l-.271.6a12.438 12.438 0 0 1-1.7 1.663 2.33 2.33 0 0 1-1.145.451c-.209.029-.45-.006-.559.186.021.3.193.629 1.012.692.869.078 1.352-.129 1.518-.6.113-.318.494-1.217 1.008-1.407a.8.8 0 0 1 .492 0l.137.072a3.135 3.135 0 0 0 3.273.106l.318.541a3.464 3.464 0 0 1-1.487.479l2.564 2.525a1.254 1.254 0 0 1 .307.735c2.222-2.245 2.235-3.736 2.233-4.957v-.082a3.677 3.677 0 0 0-.945-2.257z" class="cls-2" transform="translate(-1738.401 -636.588)"/>
            <path id="패스_105" d="M1748.973 649.176l-2.642-2.851.368-.342 2.7 2.9a.628.628 0 0 0 .764.117c.141-.129.287-.264.453-.4a.633.633 0 0 0-.027-.774l-2.677-2.824.363-.344 2.716 2.865a.641.641 0 0 0 .856.086c.125-.1.236-.193.373-.309a.618.618 0 0 0 .2-.43.66.66 0 0 0-.166-.473l-2.906-2.955.356-.352 2.864 2.935a.752.752 0 0 0 .524.254.7.7 0 0 0 .531-.184l.156-.146a.729.729 0 0 0 .244-.512.753.753 0 0 0-.195-.543l-2.986-2.953a4.733 4.733 0 0 1-1.684-.565l-.115-.061a2.682 2.682 0 0 0-.619 1.02 1.967 1.967 0 0 1-1.935 1.059c-.076 0-.158 0-.236-.008-.973-.078-1.467-.539-1.467-1.374 0-.561.619-.641 1.116-.709a2.282 2.282 0 0 0 .868-.221 7.223 7.223 0 0 0 1.7-1.837 7.463 7.463 0 0 0-.977-1.383 3.9 3.9 0 0 0-2.855-1.255h-.033a3.8 3.8 0 0 0-2.933 1.309 3.689 3.689 0 0 0-.944 2.257v.082c0 1.374 0 3.083 3.164 5.831.971.842 1.669 1.417 2.232 1.88a12.607 12.607 0 0 1 2.2 2.12.4.4 0 0 0 .555.029l.207-.184a.411.411 0 0 0 .024-.576z" class="cls-2" transform="translate(-1740.737 -636.588)"/>
        </g>
    </g>
</svg>
