<svg xmlns="http://www.w3.org/2000/svg" id="ico_mental_06" width="80" height="50" viewBox="0 0 80 50">
    <g id="그룹_374" transform="translate(-1949.986 -629.588)">
        <g id="그룹_372" transform="translate(1967.986 636.588)">
            <path id="패스_110" d="M1998.491 657.756a10.107 10.107 0 0 1-3.484.451h-12.371q-2.135 3.257-4.271 6.509a5.972 5.972 0 0 1-2.257 2.259 10.2 10.2 0 0 1-3.48.451h-4.644q4.477-6.836 8.965-13.676a6.02 6.02 0 0 1 2.259-2.259 10.225 10.225 0 0 1 3.482-.45h12.373q2.135-3.257 4.264-6.509a6.038 6.038 0 0 1 2.259-2.259 10.221 10.221 0 0 1 3.482-.451h4.645q-4.479 6.842-8.967 13.676a6 6 0 0 1-2.255 2.258z" class="cls-2" transform="translate(-1967.986 -631.103)"/>
            <path id="패스_111" d="M1989.452 645.774q-4.258 0-4.254-4.318v-.615q0-4.258 4.254-4.254h.614q4.259 0 4.254 4.254v.615q0 4.316-4.254 4.318z" class="cls-2" transform="translate(-1949.945 -636.588)"/>
        </g>
        <g id="그룹_373" transform="translate(1975.585 636.588)">
            <path id="패스_112" d="M1975.016 643.691a10.114 10.114 0 0 1 1.194 1.409 11.392 11.392 0 0 1 2.474-2.519c-.618-.242-1.229-.485-1.788-.754a10.991 10.991 0 0 1-1.88 1.864z" class="cls-2" transform="translate(-1968.216 -631.097)"/>
            <path id="패스_113" d="M1977.763 642.52a21.239 21.239 0 0 1-2.671-1.651 4.714 4.714 0 0 1-1.518 1.315c.616.524 1.151.969 1.565 1.311.34.281.618.512.868.729a11.437 11.437 0 0 0 1.756-1.704z" class="cls-2" transform="translate(-1969.727 -632.101)"/>
            <path id="패스_114" d="M1976.5 643.4a18.1 18.1 0 0 1-4.721-5.348 2.736 2.736 0 0 0-.08.576v.082c0 1.378 0 3.093 3.175 5.849l.063.055a3.768 3.768 0 0 0 1.563-1.214z" class="cls-2" transform="translate(-1971.696 -635.052)"/>
            <path id="패스_115" d="M1976.494 640.518a12.549 12.549 0 0 0 2.23 1.518 21.348 21.348 0 0 0 3.271-3.8 3.879 3.879 0 0 0-.287-.4 3.767 3.767 0 0 0-1.934-1.188 49.891 49.891 0 0 1-3.28 3.87z" class="cls-2" transform="translate(-1966.667 -636.524)"/>
            <path id="패스_116" d="M1976.758 640.129c.35-.328 1.671-1.9 2.984-3.519-.068 0-.121-.023-.191-.023h-.031a4.457 4.457 0 0 0-3.777 2.521c.314.341.648.683 1.015 1.021z" class="cls-2" transform="translate(-1967.453 -636.588)"/>
            <path id="패스_117" d="M1976.077 637.084a3.732 3.732 0 0 0-1.845-.5h-.033a4.031 4.031 0 0 0-1.18.188 18.074 18.074 0 0 0 10.777 8.686 11 11 0 0 0 1.5-1.731c-4.59-.454-7.986-4.806-9.219-6.643z" class="cls-2" transform="translate(-1970.309 -636.588)"/>
            <path id="패스_118" d="M1973.533 636.8a3.813 3.813 0 0 0-1.1.87 3.869 3.869 0 0 0-.537.811c.49 1 3.328 6.177 10.661 8.858.477-.4 1.018-.846 1.743-1.475.031-.027.051-.051.082-.078a18.94 18.94 0 0 1-10.849-8.986z" class="cls-2" transform="translate(-1971.485 -636.362)"/>
            <path id="패스_119" d="M1977.911 641.219a7.846 7.846 0 0 0 2.667.612 5.581 5.581 0 0 0 .594-2.8v-.082a3.268 3.268 0 0 0-.295-1.206 20.981 20.981 0 0 1-2.966 3.476z" class="cls-2" transform="translate(-1965.182 -635.375)"/>
        </g>
    </g>
</svg>
