<svg xmlns="http://www.w3.org/2000/svg" id="ico_mental_05" width="80" height="50" viewBox="0 0 80 50">
    <g id="그룹_371" transform="translate(-1834.496 -629.588)">
        <g id="그룹_368" transform="translate(1852.496 636.588)">
            <path id="패스_106" d="M1883 657.755a10.1 10.1 0 0 1-3.482.45h-12.372l-4.268 6.509a5.975 5.975 0 0 1-2.259 2.259 10.192 10.192 0 0 1-3.478.451h-4.641q4.479-6.836 8.967-13.675a5.99 5.99 0 0 1 2.259-2.259 10.2 10.2 0 0 1 3.482-.451h12.37l4.266-6.509a6.023 6.023 0 0 1 2.259-2.259 10.207 10.207 0 0 1 3.482-.451h4.645q-4.479 6.841-8.966 13.675a6.008 6.008 0 0 1-2.264 2.26z" class="cls-2" transform="translate(-1852.496 -631.104)"/>
            <path id="패스_107" d="M1873.961 645.773q-4.258 0-4.252-4.317v-.615q0-4.258 4.252-4.254h.617q4.258 0 4.253 4.254v.615q0 4.316-4.253 4.317z" class="cls-2" transform="translate(-1834.456 -636.588)"/>
        </g>
        <g id="그룹_370" transform="translate(1859.144 638.769)">
            <path id="패스_108" d="M1865.841 644.622c-.569.01-2.3-.021-3.236.1 0 0-.826-.074-1.559-.182a10.555 10.555 0 0 0-1.874-.852c-.471-.119-1.311-.358-1.311-.358-.868-.344-1.7-.352-2.12.358l4.958 3.033a2.06 2.06 0 0 0 1.538.223l4.481-.129a1.928 1.928 0 0 1 .891-.012l4.608-.141 2.2-3.478c-1.1-.049-4.385-.7-4.385-.7l-1.538-.354a3.891 3.891 0 0 0-1.987.063l-2.044-.133h-2.427a.809.809 0 0 0 0 1.618s3.3.1 3.686.156.322-.086.477.258c.068.137-.106.526-.358.53z" class="cls-2" transform="translate(-1855.742 -633.071)"/>
            <g id="그룹_369" transform="translate(4.256)">
                <path id="패스_109" d="M1859.733 637.653h-.014a1.866 1.866 0 0 0-1.436.641 1.8 1.8 0 0 0-.461 1.1v.039c0 .674 0 1.509 1.549 2.853.475.412.817.694 1.092.92a1.26 1.26 0 1 0 2.519 0c.274-.225.616-.508 1.092-.92 1.549-1.344 1.549-2.179 1.549-2.853v-.033a1.805 1.805 0 0 0-.463-1.1 1.866 1.866 0 0 0-1.436-.641h-.014a2.209 2.209 0 0 0-1.856 1.253l-.131.293-.131-.293a2.636 2.636 0 0 0-.459-.639 1.905 1.905 0 0 0-1.4-.614z" class="cls-2" transform="translate(-1857.82 -637.653)"/>
            </g>
        </g>
    </g>
</svg>
