<svg xmlns="http://www.w3.org/2000/svg" width="30" height="30" viewBox="0 0 30 30">
    <path d="M25.8 11.309 15.191.7a2.393 2.393 0 0 0-3.385 0L1.205 11.3l-.011.011a2.393 2.393 0 0 0 1.593 4.079h.497v7.8a2.8 2.8 0 0 0 2.8 2.8h4.149a.762.762 0 0 0 .767-.752v-6.119a1.28 1.28 0 0 1 1.278-1.278h2.447A1.279 1.279 0 0 1 16 19.119v6.119a.762.762 0 0 0 .762.762h4.149a2.8 2.8 0 0 0 2.8-2.8v-7.8h.389a2.394 2.394 0 0 0 1.7-4.091zm-1.08 2.306a.865.865 0 0 1-.615.255h-1.154a.762.762 0 0 0-.762.762V23.2a1.279 1.279 0 0 1-1.278 1.278h-3.387v-5.359a2.8 2.8 0 0 0-2.8-2.8h-2.449a2.8 2.8 0 0 0-2.8 2.8v5.357h-3.39A1.28 1.28 0 0 1 4.807 23.2v-8.568a.762.762 0 0 0-.762-.762H2.876a.869.869 0 0 1-.6-1.484L12.883 1.778a.87.87 0 0 1 1.23 0l10.6 10.6a.872.872 0 0 1 .007 1.237zm0 0" transform="translate(1.502 2.5)" style="stroke:#fff;stroke-width:.5px;fill:#fff"/>
</svg>
