<svg id="btn_power_off" xmlns="http://www.w3.org/2000/svg" width="30" height="30" viewBox="0 0 30 30">
    <g id="그룹_1215" data-name="그룹 1215" transform="translate(3 2)">
        <path id="패스_674" data-name="패스 674" class="cls-1" d="M37.13 59.494a1.11 1.11 0 0 0-1.436.539 1.028 1.028 0 0 0 .563 1.375 9.4 9.4 0 0 1 5.892 8.617 9.616 9.616 0 0 1-9.818 9.4 9.615 9.615 0 0 1-9.818-9.4 9.4 9.4 0 0 1 5.89-8.617 1.027 1.027 0 0 0 .562-1.375 1.11 1.11 0 0 0-1.437-.538 11.485 11.485 0 0 0-7.2 10.531 11.752 11.752 0 0 0 12 11.487 11.752 11.752 0 0 0 12-11.487 11.483 11.483 0 0 0-7.198-10.532z" transform="translate(-20.331 -55.512)"/>
        <path id="패스_675" data-name="패스 675" class="cls-1" d="M235.021 14.129a1.37 1.37 0 0 0 1.365-1.375V.375a1.365 1.365 0 1 0-2.73 0v12.379a1.37 1.37 0 0 0 1.365 1.375z" transform="translate(-223.021 1)"/>
    </g>
</svg>
