<svg xmlns="http://www.w3.org/2000/svg" id="btn_chair_setting" width="45" height="45" viewBox="0 0 45 45">
    <path id="패스_595" d="M3.207 6.415a3.208 3.208 0 0 0 3.107-2.406h12.128a.8.8 0 0 0 0-1.6H6.314a3.208 3.208 0 1 0-3.107 4.006zm0-4.811a1.6 1.6 0 1 1-1.6 1.6 1.6 1.6 0 0 1 1.6-1.604z" class="cls-2" transform="rotate(180 16.355 16.105)"/>
    <path id="패스_596" d="M16.037 0a3.208 3.208 0 0 0-3.107 2.406H.8a.8.8 0 0 0 0 1.6h12.13A3.208 3.208 0 1 0 16.037 0zm0 4.811a1.6 1.6 0 1 1 1.6-1.6 1.6 1.6 0 0 1-1.6 1.6z" class="cls-2" transform="rotate(180 16.355 9.69)"/>
    <path id="패스_597" d="M18.442 2.406h-5.714a3.208 3.208 0 0 0-6.213 0H.8a.8.8 0 0 0 0 1.6h5.716a3.208 3.208 0 0 0 6.213 0h5.714a.8.8 0 0 0 0-1.6zm-8.82 2.405a1.6 1.6 0 1 1 1.6-1.6 1.6 1.6 0 0 1-1.6 1.6z" class="cls-2" transform="rotate(180 16.355 12.898)"/>
</svg>
