<svg xmlns="http://www.w3.org/2000/svg" id="btn_control" width="45" height="45" viewBox="0 0 45 45">
    <g id="그룹_1508" transform="translate(-976.787 -282.418)">
        <path id="패스_871" d="M1002.337 308.666a4.854 4.854 0 0 1-1.676.217H994.7l-2.056 3.134a2.87 2.87 0 0 1-1.087 1.087 4.88 4.88 0 0 1-1.675.218h-2.232q2.155-3.292 4.317-6.585a2.891 2.891 0 0 1 1.087-1.087 4.894 4.894 0 0 1 1.677-.218h5.957l2.054-3.133a2.894 2.894 0 0 1 1.087-1.088 4.916 4.916 0 0 1 1.676-.217h2.237q-2.157 3.294-4.317 6.584a2.889 2.889 0 0 1-1.088 1.088z" class="cls-2"/>
        <path id="패스_872" d="M1006.672 300.256a1.823 1.823 0 0 1-2.048-2.078v-.3a1.81 1.81 0 0 1 2.048-2.048h.3a1.81 1.81 0 0 1 2.048 2.048v.3a1.823 1.823 0 0 1-2.048 2.078z" class="cls-2"/>
        <g id="그룹_1507">
            <path id="패스_873" d="M1004.018 311.154a.712.712 0 0 1 .134 1.282.74.74 0 0 1-.974-.251.71.71 0 0 1-.077-.537.713.713 0 0 1 .917-.494" class="cls-2"/>
            <path id="패스_874" d="M1008.7 307.34a1.1 1.1 0 0 1 .56.454 1.056 1.056 0 0 1-.358 1.437 1.072 1.072 0 0 1-1.447-.355 1.049 1.049 0 0 1 .359-1.433 1.02 1.02 0 0 1 .886-.1" class="cls-2"/>
            <path id="패스_875" d="M998.742 312.8a.52.52 0 0 1-.062-.4.5.5 0 0 1 .228-.315.541.541 0 0 1 .446-.05.517.517 0 0 1 .274.222.523.523 0 0 1-.171.719.545.545 0 0 1-.715-.176" class="cls-2"/>
            <path id="패스_876" d="M1006.9 309.213a1.694 1.694 0 0 1 .572-2.321 1.726 1.726 0 0 1 2.337.567 1.7 1.7 0 0 1-2 2.485 1.723 1.723 0 0 1-.9-.731m.123-3.073a2.538 2.538 0 0 0-1.158 1.588 2.5 2.5 0 0 0 .3 1.939 2.633 2.633 0 0 0 3.526.864 2.568 2.568 0 0 0-2.666-4.391" class="cls-2"/>
            <path id="패스_877" d="M1002.711 312.477a1.257 1.257 0 0 1-.145-.961 1.231 1.231 0 0 1 .562-.763 1.284 1.284 0 0 1 1.73.419 1.264 1.264 0 0 1-.431 1.736 1.29 1.29 0 0 1-1.049.105 1.265 1.265 0 0 1-.667-.536m1.682-2.419a1.86 1.86 0 0 0-2.425 1.325 1.862 1.862 0 0 0 .214 1.407 1.931 1.931 0 0 0 2.573.632 1.864 1.864 0 0 0 .63-2.567 1.874 1.874 0 0 0-.992-.8" class="cls-2"/>
            <path id="패스_878" d="M1000.012 312.024a.967.967 0 0 1-1.144 1.42.948.948 0 0 1-.512-.414.965.965 0 0 1 .325-1.331 1 1 0 0 1 1.331.325m-2.1 1.275a1.527 1.527 0 0 0 2.039.508 1.478 1.478 0 0 0 .5-2.056 1.453 1.453 0 0 0-.782-.627 1.5 1.5 0 0 0-1.255.133 1.463 1.463 0 0 0-.671.918 1.478 1.478 0 0 0 .171 1.124" class="cls-2"/>
        </g>
    </g>
</svg>
