<svg xmlns="http://www.w3.org/2000/svg" id="ico_alarm" width="55" height="55" viewBox="0 0 55 55">
    <defs>
        <style>
            .cls-2{fill:#ffffff}
        </style>
    </defs>
    <g id="notification" transform="translate(-26.674 14.809)">
        <g id="그룹_1208" transform="translate(42.675)">
            <g id="그룹_1207">
                <path id="패스_652" d="M64.1 21.761l-1.846-3.077a9.139 9.139 0 0 1-1.3-4.7v-2.697a7.534 7.534 0 0 0-5.38-7.207V2.15a2.15 2.15 0 0 0-4.3 0v1.93a7.534 7.534 0 0 0-5.374 7.207v2.695a9.144 9.144 0 0 1-1.3 4.7l-1.848 3.078a.538.538 0 0 0 .46.815h20.424a.537.537 0 0 0 .461-.814z" class="cls-2" transform="translate(-42.675)"/>
            </g>
        </g>
        <g id="그룹_1210" transform="translate(50.039 23.649)">
            <g id="그룹_1209">
                <path id="패스_653" d="M188.815 469.333a3.74 3.74 0 0 0 6.77 0z" class="cls-2" transform="translate(-188.815 -469.333)"/>
            </g>
        </g>
    </g>
</svg>
