<svg xmlns="http://www.w3.org/2000/svg" width="55.5" height="55.5" viewBox="0 0 55.5 55.5">
    <defs>
        <style>
            .cls-2{fill:#4f4f4f;stroke:#4f4f4f;stroke-width:.3px}
        </style>
    </defs>
    <g id="ico_delete_dim" transform="translate(.25 .25)">
        <g id="bin" transform="translate(15.672 12.9)">
            <path id="패스_598" d="M223.079 154.7a.681.681 0 0 0-.681.681v12.867a.681.681 0 1 0 1.362 0v-12.864a.681.681 0 0 0-.681-.684zm0 0" class="cls-2" transform="translate(-208.653 -144.172)"/>
            <path id="패스_599" d="M105.079 154.7a.681.681 0 0 0-.681.681v12.867a.681.681 0 1 0 1.362 0v-12.864a.681.681 0 0 0-.681-.684zm0 0" class="cls-2" transform="translate(-95.9 -144.172)"/>
            <path id="패스_600" fill="#4f4f4f" stroke="#4f4f4f" stroke-width="0.5px" d="M1.93 8.653v16.774a3.756 3.756 0 0 0 1 2.591 3.353 3.353 0 0 0 2.433 1.052h12.88a3.352 3.352 0 0 0 2.433-1.052 3.756 3.756 0 0 0 1-2.591V8.653a2.6 2.6 0 0 0-.667-5.114h-3.488v-.851A2.674 2.674 0 0 0 14.825 0H8.779a2.674 2.674 0 0 0-2.7 2.689v.851H2.6a2.6 2.6 0 0 0-.67 5.113zm16.313 19.054H5.361a2.156 2.156 0 0 1-2.07-2.281V8.713h17.02v16.714a2.156 2.156 0 0 1-2.07 2.281zM7.445 2.688A1.312 1.312 0 0 1 8.779 1.36h6.045a1.312 1.312 0 0 1 1.334 1.328v.851H7.445zM2.6 4.9h18.406a1.225 1.225 0 1 1 0 2.451H2.6a1.225 1.225 0 0 1 0-2.451zm0 0"/>
        </g>
    </g>
</svg>
