<svg xmlns="http://www.w3.org/2000/svg" id="ico_kakao" width="45" height="45" viewBox="0 0 45 45">
    <g id="kakao-talk" transform="translate(8.252 8.48)">
        <path id="패스_672" d="M9.9 9.306L8.77 12.5h2.264z" class="cls-2" transform="translate(1.79 1.572)"/>
        <path id="패스_673" d="M14.748 1C6.6 1 0 6.172 0 12.551c0 4.124 2.76 7.744 6.913 9.786-1.6 5.469-1.638 5.494-1.368 5.652.339.2.779-.006 6.584-4.069a18.866 18.866 0 0 0 2.619.182c8.144 0 14.748-5.172 14.748-11.551S22.892 1 14.748 1zm-7.3 14.776a.852.852 0 0 1-1.7 0v-5.022H4.417a.828.828 0 1 1 0-1.655h4.355a.828.828 0 1 1 0 1.655H7.445zm6.609.8c-.885 0-.721-.694-1.129-1.469h-2.597c-.4.768-.246 1.469-1.129 1.469-.852 0-1-.517-.742-1.316l2.035-5.321a1.281 1.281 0 0 1 1.132-.839 1.28 1.28 0 0 1 1.134.834c1.344 4.166 3.262 6.64 1.294 6.638zm4.841-.113h-2.73c-1.424 0-.558-1.923-.815-6.515a.869.869 0 0 1 1.738 0v4.962H18.9a.776.776 0 1 1 0 1.55zm6.66-.637a.841.841 0 0 1-.331.558c-1.174.886-2.041-1.7-3.187-2.791l-.295.294v1.843a.851.851 0 0 1-1.7 0V9.945a.85.85 0 0 1 1.7 0v1.816c1.569-1.177 2.44-3.281 3.431-2.3.973.966-1.042 1.812-1.877 2.977 1.971 2.719 2.346 2.786 2.259 3.382z" class="cls-2"/>
    </g>
</svg>
