<svg xmlns="http://www.w3.org/2000/svg" id="ico_bright" width="55" height="55" viewBox="0 0 55 55">
    <defs>
    </defs>
    <g id="sun" transform="translate(13.912 14.91)">
        <g id="그룹_1206">
            <g id="그룹_1205">
                <path id="패스_643" d="M86.42 77.139a6.6 6.6 0 0 0-4.64-1.939 6.459 6.459 0 0 0-4.64 1.939 6.58 6.58 0 0 0 4.64 11.22 6.459 6.459 0 0 0 4.64-1.939 6.6 6.6 0 0 0 1.939-4.64 6.459 6.459 0 0 0-1.939-4.641z" class="cls-2" transform="translate(-68.69 -68.69)"/>
                <path id="패스_644" d="M141.7 4.467a.917.917 0 0 0 .9-.9V.9a.9.9 0 1 0-1.8 0v2.667a.917.917 0 0 0 .9.9z" class="cls-2" transform="translate(-128.611)"/>
                <path id="패스_645" d="M220.506 44.811l1.9-1.9a.882.882 0 1 0-1.247-1.247l-1.9 1.9a.882.882 0 0 0 1.247 1.247z" class="cls-2" transform="translate(-200.041 -37.816)"/>
                <path id="패스_646" d="M254.367 140.8H251.7a.9.9 0 1 0 0 1.8h2.666a.9.9 0 1 0 0-1.8z" class="cls-2" transform="translate(-229.088 -128.611)"/>
                <path id="패스_647" d="M220.106 218.86a.882.882 0 0 0-1.247 1.247l1.9 1.9a.882.882 0 0 0 1.247-1.247z" class="cls-2" transform="translate(-199.675 -199.675)"/>
                <path id="패스_648" d="M141.7 250.8a.917.917 0 0 0-.9.9v2.666a.9.9 0 1 0 1.8 0V251.7a.917.917 0 0 0-.9-.9z" class="cls-2" transform="translate(-128.611 -229.087)"/>
                <path id="패스_649" d="M43.164 218.86l-1.9 1.9a.882.882 0 0 0 1.247 1.247l1.9-1.9a.882.882 0 1 0-1.247-1.247z" class="cls-2" transform="translate(-37.451 -199.675)"/>
                <path id="패스_650" d="M4.467 141.7a.917.917 0 0 0-.9-.9H.9a.9.9 0 1 0 0 1.8h2.667a.917.917 0 0 0 .9-.9z" class="cls-2" transform="translate(0 -128.611)"/>
                <path id="패스_651" d="M43.164 44.811a.882.882 0 1 0 1.247-1.247l-1.9-1.9a.882.882 0 0 0-1.247 1.247z" class="cls-2" transform="translate(-37.451 -37.816)"/>
            </g>
        </g>
    </g>
</svg>
