<svg xmlns="http://www.w3.org/2000/svg" width="40" height="40" viewBox="0 0 40 40">
    <g fill="rgba(10,132,255,0.3)" stroke="#0a84ff">
        <rect width="40" height="40" stroke="none" rx="20"/>
        <rect width="39" height="39" x=".5" y=".5" fill="none" rx="19.5"/>
    </g>
    <path fill="#fff" stroke="#fff" stroke-width="0.3px" d="M-9.717 1.157h-1.625l2.352-8.918A4.013 4.013 0 0 1-8.7-8.5a1.43 1.43 0 0 1 .374-.5 1.336 1.336 0 0 1 .546-.26 3.443 3.443 0 0 1 .806-.078 2.122 2.122 0 0 1 1.3.312 1.556 1.556 0 0 1 .325.429 5.786 5.786 0 0 1 .247.65l2.509 9.1h-1.639L-5.1-1.924h-3.539a.432.432 0 0 0-.169.052.694.694 0 0 0-.208.377zm1.066-4.2a.666.666 0 0 1 .168-.157.621.621 0 0 1 .234-.052h2.809l-.871-3.718c-.052-.182-.091-.351-.117-.481-.052-.117-.091-.221-.13-.3a.523.523 0 0 0-.416-.208.521.521 0 0 0-.455.195.9.9 0 0 0-.13.3 4.841 4.841 0 0 0-.143.494zm7.826 4.2V-9.2h.78a.825.825 0 0 1 .585.169.812.812 0 0 1 .143.507v9.681zm5.693-4.732a.865.865 0 0 0-.286.052.271.271 0 0 0-.117.247v4.433H2.957v-9.88a.617.617 0 0 1 .091-.325Q3.127-9.2 3.4-9.2h4.888a6.422 6.422 0 0 1 1.378.13 1.987 1.987 0 0 1 .793.416 1.527 1.527 0 0 1 .377.663 4.932 4.932 0 0 1 .091.923v1.478a4.156 4.156 0 0 1-.078.871 1.186 1.186 0 0 1-.312.624 1.514 1.514 0 0 1-.7.377 4.293 4.293 0 0 1-1.2.143l2.834 4.732h-1.65L6.988-3.575zm2.938-1.274a8.174 8.174 0 0 0 .91-.039 1.054 1.054 0 0 0 .484-.143.349.349 0 0 0 .195-.234 2.482 2.482 0 0 0 .026-.364V-7.02a1.087 1.087 0 0 0-.067-.38.671.671 0 0 0-.234-.234 2.659 2.659 0 0 0-.494-.13 6.879 6.879 0 0 0-.82-.036H4.465v3.12a.285.285 0 0 1 .169-.156c.065 0 .143-.013.247-.013z" transform="translate(20 24)"/>
</svg>
