<svg xmlns="http://www.w3.org/2000/svg" width="55" height="55" viewBox="0 0 55 55">
    <g>
        <g>
            <path fill="#fff" d="M29.144 15.324l-2.56-2.008a9.528 9.528 0 0 0 .085-1.183 9.528 9.528 0 0 0-.085-1.183l2.566-2.008a.6.6 0 0 0 .146-.776l-2.427-4.2a.6.6 0 0 0-.74-.261L23.108 4.92a9.206 9.206 0 0 0-2.05-1.2L20.6.51A.624.624 0 0 0 20 0h-4.857a.613.613 0 0 0-.6.51l-.455 3.215a8.978 8.978 0 0 0-2.05 1.2L9.016 3.7a.607.607 0 0 0-.74.261l-2.427 4.2A.608.608 0 0 0 6 8.942l2.56 2.008a9.528 9.528 0 0 0-.085 1.183 9.528 9.528 0 0 0 .085 1.183L6 15.324a.6.6 0 0 0-.146.776l2.427 4.2a.6.6 0 0 0 .74.261l3.021-1.219a9.206 9.206 0 0 0 2.05 1.2l.455 3.215a.613.613 0 0 0 .6.51H20a.613.613 0 0 0 .6-.51l.455-3.215a8.979 8.979 0 0 0 2.05-1.2l3.021 1.219a.607.607 0 0 0 .74-.261l2.427-4.2a.608.608 0 0 0-.149-.776zM17.57 16.379a4.246 4.246 0 1 1 4.247-4.246 4.243 4.243 0 0 1-4.247 4.246z" transform="translate(10.048 15.838) translate(5.768) translate(-5.768)"/>
        </g>
    </g>
</svg>
