<svg xmlns="http://www.w3.org/2000/svg" width="55" height="55" viewBox="0 0 55 55">
    <g>
        <g>
            <g>
                <g fill="#fff">
                    <path d="M11.509 18.478c-.46 0-.833-.373-.833-.832v-4.097c0-.359.23-.676.57-.79l4.096-1.365.023-.008h.002c.08-.024.159-.035.238-.035.353 0 .666.221.784.552v.001l.006.017c.145.436-.091.908-.527 1.053l-2.8.933c1.38 1.416 3.289 2.223 5.272 2.223.412 0 .827-.035 1.234-.104 4.005-.68 6.71-4.491 6.029-8.496-.604-3.554-3.654-6.134-7.254-6.134-.413 0-.831.035-1.242.105-4.005.68-6.71 4.492-6.029 8.496l.002.014c.073.454-.237.881-.69.954-.045.007-.089.01-.133.01-.411 0-.756-.295-.821-.701-.467-2.76.407-5.618 2.336-7.647C13.475.837 15.775-.15 18.248-.15c2.302 0 4.488.874 6.157 2.461 3.57 3.396 3.712 9.063.316 12.633-1.703 1.79-4.003 2.777-6.476 2.777-2.187 0-4.27-.789-5.903-2.229v2.154c0 .459-.374.832-.833.832z" transform="rotate(180 20.662 32.873) translate(-4.29 28.674) translate(9.461) translate(-9.461)"/>
                    <path d="M11.509 18.328c.377 0 .683-.305.683-.682v-2.494c1.7 1.617 3.878 2.42 6.053 2.42 2.323 0 4.64-.916 6.367-2.732 3.344-3.515 3.205-9.076-.31-12.42C22.601.803 20.421 0 18.247 0c-2.323 0-4.64.915-6.368 2.73-1.906 2.006-2.757 4.792-2.296 7.52.053.336.344.575.673.575.036 0 .072-.003.109-.009.372-.059.626-.409.566-.781l-.002-.012c-.695-4.093 2.059-7.974 6.152-8.67.425-.072.85-.107 1.267-.107 3.599 0 6.779 2.592 7.402 6.259.695 4.093-2.06 7.974-6.152 8.669-.42.071-.84.106-1.26.106-2.088 0-4.106-.872-5.542-2.44l3.024-1.008c.358-.12.551-.506.432-.863-.095-.287-.362-.468-.648-.468-.071 0-.144.011-.215.035l-4.097 1.365c-.279.093-.467.354-.467.648v4.097c0 .377.306.682.683.682m0 .3c-.542 0-.983-.44-.983-.982v-4.097c0-.423.27-.798.672-.932l4.097-1.366.046-.015h.004c.085-.023.172-.035.26-.035.411 0 .776.254.92.636l.002.003.01.034c.172.514-.107 1.071-.621 1.243l-2.57.856c1.337 1.28 3.132 2.007 4.994 2.007.404 0 .81-.034 1.209-.102 3.923-.666 6.572-4.4 5.906-8.323-.592-3.482-3.58-6.009-7.106-6.009-.405 0-.814.035-1.217.103-3.923.667-6.573 4.4-5.906 8.323l.003.016c.085.535-.281 1.04-.816 1.125-.052.008-.104.012-.156.012-.485 0-.893-.348-.97-.828-.233-1.381-.14-2.823.27-4.166.41-1.342 1.139-2.59 2.106-3.607C13.395.703 15.733-.3 18.248-.3c2.34 0 4.564.889 6.26 2.502 3.63 3.453 3.775 9.215.322 12.845-1.732 1.821-4.07 2.824-6.585 2.824-2.114 0-4.132-.725-5.753-2.054v1.829c0 .541-.441.982-.983.982z" transform="rotate(180 20.662 32.873) translate(-4.29 28.674) translate(9.461) translate(-9.461)"/>
                </g>
            </g>
        </g>
    </g>
</svg>
