<svg xmlns="http://www.w3.org/2000/svg" id="ico_sound" width="55" height="55" viewBox="0 0 55 55">
    <defs>
        <style>
            .cls-2{fill:#fff}
        </style>
    </defs>
    <g id="ico_sound-2" transform="rotate(180 20.663 32.873)">
        <path id="패스_572" d="M11.737.067a.672.672 0 0 0-.712.081l-6.55 5.234H1.346A1.348 1.348 0 0 0 0 6.727v5.381a1.347 1.347 0 0 0 1.346 1.345h3.129l6.548 5.235a.675.675 0 0 0 .714.079.671.671 0 0 0 .381-.605V.673a.675.675 0 0 0-.381-.606z" class="cls-2" transform="rotate(180 12.585 23.734)"/>
        <path id="패스_573" d="M1.146.193A.673.673 0 1 0 .2 1.15a5.285 5.285 0 0 1 1.578 3.8A5.285 5.285 0 0 1 .2 8.743a.672.672 0 1 0 .947.954 6.605 6.605 0 0 0 1.978-4.75A6.616 6.616 0 0 0 1.146.193z" class="cls-2" transform="rotate(180 5.404 21.498)"/>
        <path id="패스_574" d="M1.148.2a.673.673 0 0 0-.948.95 7.957 7.957 0 0 1 2.374 5.7A7.954 7.954 0 0 1 .2 12.54a.673.673 0 0 0 .949.955 9.283 9.283 0 0 0 2.77-6.65A9.288 9.288 0 0 0 1.148.2z" class="cls-2" transform="rotate(180 4.455 22.448)"/>
    </g>
</svg>
