<svg xmlns="http://www.w3.org/2000/svg" width="22" height="22" viewBox="0 0 22 22">
    <g>
        <path fill="#fff" stroke="#fff" stroke-width="0.3px" d="M13.939 1.25H12.5V.5a.5.5 0 0 0-1 0v.75h-7V.5a.5.5 0 1 0-1 0v.75H2.063A2.065 2.065 0 0 0 0 3.313v10.626A2.065 2.065 0 0 0 2.063 16h11.876A2.065 2.065 0 0 0 16 13.939V3.313a2.065 2.065 0 0 0-2.061-2.063zm-11.876 1H3.5v.5a.5.5 0 1 0 1 0v-.5h7v.5a.5.5 0 1 0 1 0v-.5h1.438A1.064 1.064 0 0 1 15 3.313V4.5H1V3.313A1.064 1.064 0 0 1 2.063 2.25zM13.939 15H2.063A1.064 1.064 0 0 1 1 13.939V5.5h14v8.439A1.064 1.064 0 0 1 13.939 15z" transform="translate(3 3)"/>
    </g>
</svg>
