<svg xmlns="http://www.w3.org/2000/svg" id="ico_xd_01" width="100" height="100" viewBox="0 0 100 100">
    <defs>
        <style>
            .cls-2{fill:#4f4f4f}.cls-3{fill:#0a84ff}
        </style>
    </defs>
    <path id="bg" fill="none" d="M0 0H100V100H0z"/>
    <g id="xd" transform="translate(0 24.253)">
        <path id="패스_856" d="M649.812 419.718c0-1.755 1.344-3.4 3.684-4.846h-3.529c-5.625 2.551-9 5.775-9 9.291 0 2.091 1.189 4.081 3.33 5.888l8.011-6.295c-1.607-1.242-2.495-2.607-2.495-4.039" class="cls-2" transform="translate(-632.38 -397.089)"/>
        <path id="패스_857" d="M650.708 417.826l-8.158 6.411c4.449 2.772 11.274 4.972 19.473 6.238l3.024-8.611c-5.94-.853-10.933-2.263-14.34-4.039" class="cls-2" transform="translate(-628.407 -389.679)"/>
        <path id="패스_858" d="M662.22 419.625a95.418 95.418 0 0 1-10.323-.551l-3.028 8.642a110.755 110.755 0 0 0 26.719 0l-3.035-8.639a95.525 95.525 0 0 1-10.333.551" class="cls-2" transform="translate(-612.553 -386.548)"/>
        <path id="패스_859" d="M656.39 421.826l3.021 8.611c8.148-1.256 14.934-3.439 19.379-6.182l-8.161-6.414a47.281 47.281 0 0 1-14.238 3.986" class="cls-2" transform="translate(-593.685 -389.643)"/>
        <path id="패스_860" d="M673.329 424.167c0-3.66-3.344-6.747-9.312-9.295h-3.2c2.211 1.424 3.67 3.154 3.67 4.846 0 1.453-.923 2.835-2.579 4.095l8.011 6.295c2.189-1.817 3.41-3.825 3.41-5.94" class="cls-2" transform="translate(-582.578 -397.089)"/>
        <path id="패스_861" d="M668.171 409.8a8.958 8.958 0 0 0-2.2.232 3.349 3.349 0 0 0-1.561 1.168l-5.885 6.916-5.905-6.937a4.9 4.9 0 0 0-1.61-1.158 8.777 8.777 0 0 0-2.13-.221h-3.85l10.277 12.077-10.274 12.112h3.846a7.481 7.481 0 0 0 2.224-.266 3.882 3.882 0 0 0 1.537-1.169l5.884-6.909 5.909 6.937a4.888 4.888 0 0 0 1.6 1.154c.235.063.554.119.947.193.319.028.712.059 1.186.059h3.849L661.7 421.881l10.32-12.081z" class="cls-3" transform="translate(-622.184 -409.804)"/>
        <path id="패스_862" d="M676.979 414.12a5.082 5.082 0 0 0-1.453-2.537 7.151 7.151 0 0 0-3-1.393 26.693 26.693 0 0 0-4.866-.386h-14.586v24.19h14.586a26.211 26.211 0 0 0 4.895-.4 7.089 7.089 0 0 0 3-1.4 5.116 5.116 0 0 0 1.432-2.533 17.392 17.392 0 0 0 .316-3.509v-8.509a17.412 17.412 0 0 0-.319-3.523m-18.481-.14h8.097a21.681 21.681 0 0 1 3.1.168 2.981 2.981 0 0 1 1.453.551 2.141 2.141 0 0 1 .568 1.2 21.434 21.434 0 0 1 .151 2.583v6.824a20.324 20.324 0 0 1-.147 2.53 2 2 0 0 1-.554 1.214 2.765 2.765 0 0 1-1.47.6 21.619 21.619 0 0 1-3.1.168H658.5z" class="cls-3" transform="translate(-602.004 -409.804)"/>
        <path id="패스_863" d="M679.149 429.231c0-5.789-6.07-11-15.779-14.67h-1.186c7.256 2.975 11.681 6.937 11.681 11.284 0 2.895-1.965 5.617-5.421 7.993l5.421 4.4c3.375-2.712 5.284-5.768 5.284-9.007" class="cls-2" transform="translate(-579.149 -397.87)"/>
        <path id="패스_864" d="M664.989 423.229a114.3 114.3 0 0 1-14.877-.951L647.9 428.8a121.387 121.387 0 0 0 33.677.067l-2.186-6.526a113.813 113.813 0 0 1-14.4.891" class="cls-2" transform="translate(-614.989 -378.509)"/>
        <path id="패스_865" d="M645.65 420.217l-5.361 4.544c5.582 4.07 14.572 7.277 25.421 9l2.207-6.495c-9.354-1.358-17.186-3.863-22.267-7.053" class="cls-2" transform="translate(-634.079 -383.68)"/>
        <path id="패스_866" d="M643.8 425.845c0-4.351 4.424-8.309 11.681-11.284H654.3c-9.708 3.67-15.779 8.881-15.779 14.667 0 3.2 1.863 6.225 5.158 8.912l5.294-4.481c-3.3-2.333-5.168-4.989-5.168-7.814" class="cls-3" transform="translate(-638.519 -397.87)"/>
        <path id="패스_867" d="M657.241 427.217l2.179 6.505c10.986-1.7 20.1-4.9 25.786-8.99l-5.5-4.467c-5.172 3.165-13.067 5.628-22.46 6.951" class="cls-2" transform="translate(-591.55 -383.557)"/>
    </g>
</svg>
