<svg height="55.5" viewBox="0 0 55.5 55.5" width="55.5" xmlns="http://www.w3.org/2000/svg"><g fill="#fff" stroke="#fff" transform="translate(15.922 13.15)"><path d="m223.079 154.7a.681.681 0 0 0 -.681.681v12.867a.681.681 0 1 0 1.362 0v-12.864a.681.681 0 0 0 -.681-.684zm0 0" stroke-width=".3" transform="translate(-208.653 -144.172)"/><path d="m105.079 154.7a.681.681 0 0 0 -.681.681v12.867a.681.681 0 1 0 1.362 0v-12.864a.681.681 0 0 0 -.681-.684zm0 0" stroke-width=".3" transform="translate(-95.9 -144.172)"/><path d="m1.93 8.653v16.774a3.756 3.756 0 0 0 1 2.591 3.353 3.353 0 0 0 2.433 1.052h12.88a3.352 3.352 0 0 0 2.433-1.052 3.756 3.756 0 0 0 1-2.591v-16.774a2.6 2.6 0 0 0 -.667-5.114h-3.488v-.851a2.674 2.674 0 0 0 -2.696-2.688h-6.046a2.674 2.674 0 0 0 -2.7 2.689v.851h-3.479a2.6 2.6 0 0 0 -.67 5.113zm16.313 19.054h-12.882a2.156 2.156 0 0 1 -2.07-2.281v-16.713h17.02v16.714a2.156 2.156 0 0 1 -2.07 2.281zm-10.798-25.019a1.312 1.312 0 0 1 1.334-1.328h6.045a1.312 1.312 0 0 1 1.334 1.328v.851h-8.713zm-4.845 2.212h18.406a1.225 1.225 0 1 1 0 2.451h-18.406a1.225 1.225 0 0 1 0-2.451zm0 0" stroke-width=".5"/></g></svg>