<svg height="23" viewBox="0 0 23.005 23" width="23.005" xmlns="http://www.w3.org/2000/svg" xmlns:xlink="http://www.w3.org/1999/xlink"><clipPath id="a"><path d="m0 0h23.005v23h-23.005z"/></clipPath><path d="m0 0h23v23h-23z" fill="none"/><g clip-path="url(#a)"><path d="m5.4 18.072h-2.848a2.432 2.432 0 0 1 -2.47-1.979 3.026 3.026 0 0 1 -.082-.651v-12.82a2.515 2.515 0 0 1 2.023-2.551 3.394 3.394 0 0 1 .592-.071h17.785a2.533 2.533 0 0 1 2.6 2.583c-.01 4.317 0 8.627 0 12.94a2.452 2.452 0 0 1 -2.174 2.528 3.143 3.143 0 0 1 -.459.02h-8.533a.7.7 0 0 0 -.512.209l-4.941 4.444a.811.811 0 0 1 -1.107.1.775.775 0 0 1 -.317-.738c.086-.83.182-1.658.274-2.487l.168-1.53" fill="#ff453a"/></g><path d="m2.055-3.78h1.445l.31-5.535.075-2.085h-2.22l.075 2.085zm.72 3.99a1.391 1.391 0 0 0 1.38-1.44 1.391 1.391 0 0 0 -1.38-1.44 1.379 1.379 0 0 0 -1.365 1.44 1.379 1.379 0 0 0 1.365 1.44z" fill="#fff" transform="translate(8.72 14.611)"/></svg>