<svg xmlns="http://www.w3.org/2000/svg" width="55" height="55" viewBox="0 0 55 55">
    <g>
        <g>
            <g fill="#fff">
                <path d="M6.001 82.462c-.388 0-.752-.15-1.026-.425l-5.05-5.05c-.275-.274-.426-.639-.426-1.026 0-.388.151-.752.425-1.026C.2 74.66.563 74.51.95 74.51c.388 0 .752.15 1.026.425l4.025 4.025 11.037-11.038c.274-.274.639-.425 1.026-.425.388 0 .752.151 1.026.425.566.566.566 1.487 0 2.052L7.027 82.037c-.274.274-.638.425-1.026.425z" transform="translate(18.476 -47.976) translate(0 67.997) translate(0 -67.997)"/>
                <path d="M18.064 67.997c-.243 0-.487.093-.672.279L6 79.666l-4.378-4.378c-.186-.185-.43-.278-.673-.278-.243 0-.486.093-.672.278-.371.372-.371.974 0 1.345l5.05 5.05c.186.186.43.279.673.279.243 0 .487-.093.672-.278L18.736 69.62c.372-.372.372-.974 0-1.345-.185-.186-.429-.279-.672-.279m0-1c.521 0 1.011.203 1.38.572.76.76.76 1.998 0 2.759L7.38 82.39c-.368.368-.858.571-1.38.571-.52 0-1.01-.203-1.378-.571L-.43 77.34c-.369-.37-.572-.86-.572-1.38 0-.521.203-1.011.572-1.38.368-.368.858-.571 1.38-.571.52 0 1.01.203 1.379.571L6 78.253l10.684-10.684c.368-.369.858-.572 1.38-.572z" transform="translate(18.476 -47.976) translate(0 67.997) translate(0 -67.997)"/>
            </g>
        </g>
    </g>
</svg>
