<svg xmlns="http://www.w3.org/2000/svg" id="ico_training" width="80" height="50" viewBox="0 0 80 50">
    <defs>
    </defs>
    <g id="그룹_353" transform="translate(-1605.551 -517.21)">
        <g id="그룹_351" transform="translate(1621.517 524.395)">
            <path id="패스_80" d="M1655.065 546.153a11.109 11.109 0 0 1-3.829.5h-13.607q-2.348 3.581-4.7 7.158a6.581 6.581 0 0 1-2.482 2.484 11.207 11.207 0 0 1-3.824.5h-5.109q4.926-7.517 9.861-15.039a6.6 6.6 0 0 1 2.482-2.485 11.243 11.243 0 0 1 3.829-.5h13.614l4.692-7.158a6.63 6.63 0 0 1 2.482-2.484 11.244 11.244 0 0 1 3.831-.5h5.106q-4.923 7.524-9.859 15.039a6.621 6.621 0 0 1-2.487 2.485z" class="cls-2" transform="translate(-1621.517 -516.842)"/>
            <path id="패스_81" d="M1643.407 533.5q-4.683 0-4.678-4.748v-.678q0-4.679 4.678-4.676h.678q4.679 0 4.676 4.676v.678q0 4.747-4.676 4.748z" class="cls-2" transform="translate(-1599.96 -523.396)"/>
        </g>
        <g id="그룹_352" transform="translate(1624.231 522.598)">
            <path id="패스_82" d="M1642.478 531.144l-.029-.239-.232-.054a13.02 13.02 0 0 0-1.354-.227c-.029-.115-.063-.232-.1-.349l-.083-.257c-.045-.126-.09-.25-.142-.372a11.9 11.9 0 0 0 .96-1.009l.151-.18-.115-.2a7.464 7.464 0 0 0-1.232-1.588l-.174-.18-.223.117a11.134 11.134 0 0 0-1.182.714 3.417 3.417 0 0 0-.408-.279 4.442 4.442 0 0 0-.455-.264 10.767 10.767 0 0 0 .1-1.392v-.232l-.216-.083a6.734 6.734 0 0 0-1.958-.417l-.245-.02-.094.228a12.1 12.1 0 0 0-.462 1.32 4.5 4.5 0 0 0-.5.05c-.171.023-.338.054-.5.092a10.821 10.821 0 0 0-.8-1.124l-.153-.187-.225.083a6.79 6.79 0 0 0-1.761.962l-.189.144.067.225a10.516 10.516 0 0 0 .489 1.309 3.39 3.39 0 0 0-.344.358 4.335 4.335 0 0 0-.334.408 9.945 9.945 0 0 0-1.336-.327l-.232-.043-.119.2a6.741 6.741 0 0 0-.737 1.881l-.052.227.2.128a11.484 11.484 0 0 0 1.2.689 3.649 3.649 0 0 0-.034.5 4.177 4.177 0 0 0 .007.534 11.741 11.741 0 0 0-1.239.615l-.209.119.045.234a7.064 7.064 0 0 0 .629 1.917l.106.212.234-.027a10.774 10.774 0 0 0 1.354-.255c.09.142.187.279.286.405a4.467 4.467 0 0 0 .34.4 12.488 12.488 0 0 0-.561 1.284l-.086.23.191.153a7.436 7.436 0 0 0 1.7 1.056l.219.094.162-.176a10.458 10.458 0 0 0 .876-1.083 4.221 4.221 0 0 0 .475.124 3.966 3.966 0 0 0 .512.086 11.03 11.03 0 0 0 .378 1.347l.081.234.25-.007a6.967 6.967 0 0 0 1.973-.3l.219-.072.014-.23a10.786 10.786 0 0 0-.011-1.4c.1-.047.207-.1.308-.153l.293-.158c.1-.056.2-.115.3-.178a11.1 11.1 0 0 0 1.137.782l.207.122.185-.158a7.415 7.415 0 0 0 1.327-1.514l.133-.2-.144-.192a11.673 11.673 0 0 0-.9-1.056c.043-.09.081-.18.122-.268l.1-.23c.023-.077.049-.156.079-.232s.054-.155.079-.234a10.154 10.154 0 0 0 1.372-.146l.241-.041.036-.239a7.635 7.635 0 0 0 .033-2.011zm-4 2.081a3.478 3.478 0 0 1-1.55 1.77 3.41 3.41 0 0 1-2.3.34h-.007a3.383 3.383 0 0 1-1.985-1.246 3.491 3.491 0 0 1 .135-4.446 3.329 3.329 0 0 1 2.05-1.122 3.24 3.24 0 0 1 .489-.036 3.358 3.358 0 0 1 1.8.513 3.429 3.429 0 0 1 1.446 1.856 3.588 3.588 0 0 1-.081 2.371z" class="cls-2" transform="translate(-1615.895 -520.053)"/>
            <path id="패스_83" d="M1633.18 527.186a9.2 9.2 0 0 0-.948-.162c-.02-.07-.041-.142-.063-.21l-.056-.176c-.027-.077-.056-.153-.083-.232a8.283 8.283 0 0 0 .667-.71l.146-.176-.11-.2a5.415 5.415 0 0 0-.919-1.187l-.176-.18-.223.115a8.3 8.3 0 0 0-.827.493 2.072 2.072 0 0 0-.255-.169 2.711 2.711 0 0 0-.284-.167 8.59 8.59 0 0 0 .066-.975v-.232l-.216-.086a5.108 5.108 0 0 0-1.466-.311l-.245-.022-.095.232a9.236 9.236 0 0 0-.324.917c-.1.007-.21.018-.309.034a3 3 0 0 0-.315.056 7.953 7.953 0 0 0-.565-.782l-.153-.187-.225.083a5.1 5.1 0 0 0-1.322.721l-.187.142.068.227a8.242 8.242 0 0 0 .338.914 1.588 1.588 0 0 0-.209.223 2.331 2.331 0 0 0-.216.259 7.927 7.927 0 0 0-.933-.227l-.232-.041-.119.2a5.052 5.052 0 0 0-.552 1.41l-.052.228.2.128a7.965 7.965 0 0 0 .833.48 2.224 2.224 0 0 0-.018.315 3.363 3.363 0 0 0 0 .34 9.292 9.292 0 0 0-.863.43l-.209.122.043.234a5.631 5.631 0 0 0 .469 1.432l.108.214.237-.027a7.786 7.786 0 0 0 .946-.176 2.848 2.848 0 0 0 .18.25 2.315 2.315 0 0 0 .214.257 8.078 8.078 0 0 0-.387.9l-.083.225.189.155a5.33 5.33 0 0 0 1.268.788l.219.095.162-.176a7.788 7.788 0 0 0 .613-.752 2.144 2.144 0 0 0 .29.072 3.261 3.261 0 0 0 .329.061 8.359 8.359 0 0 0 .268.937l.081.234.246-.007a5.213 5.213 0 0 0 1.48-.225l.219-.072.013-.23a7.831 7.831 0 0 0 0-.98c.059-.025.113-.054.169-.083l.218-.117c.061-.034.117-.07.173-.1a8.621 8.621 0 0 0 .8.543l.209.126.185-.162a5.514 5.514 0 0 0 .989-1.131l.135-.2-.144-.192a9.711 9.711 0 0 0-.626-.743l.054-.124.085-.2c.018-.059.038-.113.059-.169.014-.036.025-.074.036-.108a7.684 7.684 0 0 0 .96-.106l.241-.043.036-.237a6 6 0 0 0 .042-1.509l-.027-.239zm-2.861 1.8a2.491 2.491 0 0 1-1.1 1.257 2.4 2.4 0 0 1-1.633.241h-.007a2.42 2.42 0 0 1-1.408-.885 2.492 2.492 0 0 1 .1-3.158 2.359 2.359 0 0 1 1.457-.793 2.247 2.247 0 0 1 .352-.027 2.353 2.353 0 0 1 1.266.363 2.446 2.446 0 0 1 1.027 1.317 2.524 2.524 0 0 1-.054 1.687z" class="cls-2" transform="translate(-1622.722 -522.598)"/>
        </g>
    </g>
</svg>
