<svg xmlns="http://www.w3.org/2000/svg" id="ico_breathing" width="80" height="50" viewBox="0 0 80 50">
    <defs>
    </defs>
    <g id="그룹_356" transform="translate(-1721.008 -518.4)">
        <g id="그룹_354" transform="translate(1737.006 525.089)">
            <path id="패스_84" d="M1770.591 546.37a11.106 11.106 0 0 1-3.834.5h-13.62l-4.7 7.166a6.579 6.579 0 0 1-2.487 2.487 11.2 11.2 0 0 1-3.829.5h-5.114q4.931-7.526 9.872-15.056a6.594 6.594 0 0 1 2.487-2.487 11.251 11.251 0 0 1 3.833-.5h13.622q2.347-3.585 4.695-7.166a6.622 6.622 0 0 1 2.487-2.485 11.187 11.187 0 0 1 3.833-.5h5.114q-4.931 7.533-9.872 15.056a6.6 6.6 0 0 1-2.487 2.485z" class="cls-2" transform="translate(-1737.006 -517.026)"/>
            <path id="패스_85" d="M1758.9 533.706q-4.688 0-4.684-4.753v-.677q0-4.688 4.684-4.683h.676q4.689 0 4.684 4.683v.677q0 4.752-4.684 4.753z" class="cls-2" transform="translate(-1715.405 -523.593)"/>
        </g>
        <g id="그룹_355" transform="translate(1743.408 522.401)">
            <path id="패스_86" d="M1759.127 524.58l-15 5.633a2.188 2.188 0 0 1-1.529-4.1 2.14 2.14 0 0 1 1.667.056 2.173 2.173 0 0 1 1.148 1.229l.081.212 1.243-.467-.079-.212a3.519 3.519 0 1 0-2.063 4.526l15-5.631z" class="cls-2" transform="translate(-1739.845 -519.666)"/>
            <path id="패스_87" d="M1744.253 529.528a3.516 3.516 0 1 0 4.526 2.066l-.079-.212-1.247.465.081.212a2.192 2.192 0 0 1-1.285 2.814 2.156 2.156 0 0 1-1.666-.056 2.187 2.187 0 0 1 .137-4.041l8.946-3.317.212-.079-.467-1.242z" class="cls-2" transform="translate(-1737.18 -517.713)"/>
            <path id="패스_88" d="M1746.321 529.434a3.515 3.515 0 0 0 1.279-.241l7.252-2.844.2-.083-.482-1.238-7.461 2.927a2.192 2.192 0 0 1-2.832-1.24 2.185 2.185 0 0 1 1.242-2.832 2.115 2.115 0 0 1 1.669.034 2.177 2.177 0 0 1 1.164 1.209l.081.207 1.236-.483-.079-.212a3.518 3.518 0 1 0-3.272 4.8z" class="cls-2" transform="translate(-1736.138 -522.401)"/>
        </g>
    </g>
</svg>
