<svg xmlns="http://www.w3.org/2000/svg" id="ico_morning" width="80" height="50" viewBox="0 0 80 50">
    <defs>
    </defs>
    <g id="그룹_345" transform="translate(-1836.496 -519.323)">
        <g id="그룹_334" transform="translate(1852.496 528.693)">
            <path id="패스_73" d="M1885.28 547.029a10.857 10.857 0 0 1-3.742.484h-13.3q-2.3 3.5-4.587 7a6.437 6.437 0 0 1-2.428 2.428 10.955 10.955 0 0 1-3.738.484h-4.985q4.814-7.347 9.637-14.7a6.45 6.45 0 0 1 2.425-2.428 10.988 10.988 0 0 1 3.742-.484h13.3q2.295-3.5 4.585-7a6.447 6.447 0 0 1 2.428-2.426 10.905 10.905 0 0 1 3.742-.486h4.99q-4.811 7.353-9.634 14.7a6.473 6.473 0 0 1-2.435 2.428z" class="cls-2" transform="translate(-1852.496 -518.385)"/>
            <path id="패스_74" d="M1874.28 534.543q-4.576 0-4.572-4.64v-.66q0-4.576 4.572-4.572h.663q4.576 0 4.569 4.572v.66q0 4.639-4.569 4.64z" class="cls-2" transform="translate(-1831.822 -524.671)"/>
        </g>
        <g id="그룹_344" transform="translate(1858.449 521.323)">
            <g id="그룹_335" transform="translate(4.886 4.867)">
                <circle id="타원_8" cx="6.183" cy="6.183" r="6.183" class="cls-2"/>
            </g>
            <g id="그룹_336" transform="translate(10.394)">
                <path id="사각형_147" d="M0 0H1.351V3.404H0z" class="cls-2"/>
            </g>
            <g id="그룹_337" transform="translate(2.594 2.683)">
                <path id="사각형_148" d="M0 0H1.35V3.406H0z" class="cls-2" transform="rotate(-45 1.153 .477)"/>
            </g>
            <g id="그룹_338" transform="translate(0 10.482)">
                <path id="사각형_149" d="M0 0H3.405V1.351H0z" class="cls-2"/>
            </g>
            <g id="그룹_339" transform="translate(16.165 2.683)">
                <path id="사각형_150" d="M0 0H3.406V1.35H0z" class="cls-2" transform="rotate(-45 2.907 1.204)"/>
            </g>
            <g id="그룹_340" transform="translate(10.394 18.658)">
                <path id="사각형_151" d="M0 0H1.351V3.405H0z" class="cls-2"/>
            </g>
            <g id="그룹_341" transform="translate(2.594 16.018)">
                <path id="사각형_152" d="M0 0H3.406V1.35H0z" class="cls-2" transform="rotate(-45 2.907 1.204)"/>
            </g>
            <g id="그룹_342" transform="translate(16.165 16.018)">
                <path id="사각형_153" d="M0 0H1.35V3.406H0z" class="cls-2" transform="rotate(-45 1.153 .477)"/>
            </g>
            <g id="그룹_343" transform="translate(18.717 10.482)">
                <path id="사각형_154" d="M0 0H3.404V1.351H0z" class="cls-2"/>
            </g>
        </g>
    </g>
</svg>
