<svg xmlns="http://www.w3.org/2000/svg" id="ico_wellbeing" width="80" height="50" viewBox="0 0 80 50">
    <defs>
    </defs>
    <g id="그룹_333" transform="translate(-1490.027 -519.799)">
        <g id="그룹_331" transform="translate(1506.027 527.192)">
            <path id="패스_69" d="M1539.55 546.939a11.094 11.094 0 0 1-3.827.5h-13.6q-2.343 3.579-4.691 7.153a6.561 6.561 0 0 1-2.482 2.48 11.132 11.132 0 0 1-3.822.5h-5.1q4.922-7.512 9.854-15.029a6.585 6.585 0 0 1 2.483-2.483 11.22 11.22 0 0 1 3.826-.5h13.595l4.688-7.153a6.63 6.63 0 0 1 2.483-2.482 11.221 11.221 0 0 1 3.826-.5h5.1q-4.922 7.519-9.854 15.029a6.588 6.588 0 0 1-2.479 2.485z" class="cls-2" transform="translate(-1506.027 -517.65)"/>
            <path id="패스_70" d="M1527.913 534.29q-4.676 0-4.673-4.745v-.678q0-4.676 4.673-4.672h.677q4.68 0 4.675 4.672v.678q0 4.743-4.675 4.745z" class="cls-2" transform="translate(-1484.497 -524.195)"/>
        </g>
        <g id="그룹_332" transform="translate(1513.054 521.799)">
            <path id="패스_71" d="M1523.16 531.113c-.655 1.337-2.17 4.2-3.667 5.494a5.645 5.645 0 0 1-3.241-.482 13.5 13.5 0 0 0 3.473-4.851c1.225-.114 2.397-.157 3.435-.161zm-1.765 5.006a9.955 9.955 0 0 0 5.339-4.875c-.381-.031-1.243-.094-2.39-.119a28.961 28.961 0 0 1-2.944 4.994zm1.546-6.075a10.246 10.246 0 0 0-3.417-3.07v-.007a8.8 8.8 0 0 0-3.617 1.013 9.17 9.17 0 0 1 3.621 2.235c1.223-.115 2.372-.162 3.414-.171zm1.317 0c.99.023 1.76.07 2.253.106a10.065 10.065 0 0 0-4.785-2.971 14.216 14.216 0 0 1 2.532 2.869zm-5.784 1.371a21.478 21.478 0 0 0-6.251 1.915l1.589-1.781a15.932 15.932 0 0 1 4.34-1.155 7.452 7.452 0 0 0-3.547-1.661 22.24 22.24 0 0 0-5.456 5.685 22.594 22.594 0 0 1 6.021 1.224 10.437 10.437 0 0 0 3.304-4.223z" class="cls-2" transform="translate(-1509.149 -515.335)"/>
            <path id="패스_72" d="M1518.8 529.062a8.961 8.961 0 0 0 1.92-3.48 3.747 3.747 0 0 1 1.22 1.81 13.46 13.46 0 0 1-2.251 3.784c-.297-.626-.607-1.344-.889-2.114zm1.236 2.823c.344.682.63 1.184.758 1.4a6.635 6.635 0 0 0 1.4-4.61 19.345 19.345 0 0 1-2.16 3.21zm-1.929-2.633a6.1 6.1 0 0 1-2.384-1.535 5.853 5.853 0 0 0 .43 2.465 6.84 6.84 0 0 0 2.827 1.173c-.294-.634-.596-1.336-.875-2.104zm-1.193 2.19a6.728 6.728 0 0 0 3.16 2.026c-.162-.286-.412-.736-.709-1.326a9.4 9.4 0 0 1-2.453-.701zm3.21-6.372a15.014 15.014 0 0 1-2.467-3.27 14.87 14.87 0 0 0-1.853 4.913 4.989 4.989 0 0 0 2.017 1.657 8.8 8.8 0 0 1-.468-2.294l.531-2.113a14.355 14.355 0 0 0 .643 4.308 6.977 6.977 0 0 0 1.595-3.202z" class="cls-2" transform="translate(-1500.932 -521.799)"/>
        </g>
    </g>
</svg>
