<svg xmlns="http://www.w3.org/2000/svg" width="80" height="50" viewBox="0 0 80 50">
    <defs>
    </defs>
    <g id="ico_concentration" opacity="0.87">
        <g id="그룹_329" transform="translate(-1374.537 -519.176)">
            <g id="그룹_321" transform="translate(1390.538 525.886)">
                <g id="그룹_319" transform="translate(0 11.822)">
                    <path id="패스_63" d="M1424.185 546.627a11.079 11.079 0 0 1-3.84.5H1406.7q-2.355 3.592-4.71 7.177a6.585 6.585 0 0 1-2.489 2.492 11.23 11.23 0 0 1-3.836.5h-5.124l9.888-15.084a6.64 6.64 0 0 1 2.491-2.492 11.206 11.206 0 0 1 3.841-.5h13.647q2.355-3.592 4.7-7.177a6.674 6.674 0 0 1 2.492-2.492 11.266 11.266 0 0 1 3.841-.5h5.124q-4.941 7.546-9.89 15.084a6.62 6.62 0 0 1-2.49 2.492z" class="cls-3" transform="translate(-1390.538 -529.051)"/>
                </g>
                <g id="그룹_320" transform="translate(38.883)">
                    <path id="패스_64" d="M1412.442 533.952q-4.7 0-4.692-4.762v-.68q0-4.7 4.692-4.692h.677q4.7 0 4.692 4.692v.68q0 4.761-4.692 4.762z" class="cls-3" transform="translate(-1407.75 -523.818)"/>
                </g>
            </g>
            <g id="그룹_322" transform="translate(1401.831 527.528)">
                <path id="패스_65" d="M1406.541 526.567a5.558 5.558 0 0 0-3.477-1.97 6.575 6.575 0 0 0-.746-.05h-.065a.083.083 0 0 0-.023 0 5.451 5.451 0 0 0-4.87 2.654 6.73 6.73 0 0 0-.484 2l-.049.348a6.8 6.8 0 0 1-.31 1.274c-.192.533-.406 1.064-.614 1.577-.1.253-.208.513-.309.77a.414.414 0 0 0-.032.346c.039.061.158.095.321.1h.863a.24.24 0 0 1 .239.233c.018.422.041.7.054.849l.007.09a13.084 13.084 0 0 0 .2 1.545c.169.825.6 1.118 1.694 1.159.2.009.3.007.452 0h.298a.241.241 0 0 1 .24.242V539c.811.007 2.286.007 4.382 0h1.313v-4.125a.861.861 0 0 1 .26-.6 5.926 5.926 0 0 0 1.026-1.179 5.438 5.438 0 0 0 .955-3.088 5.314 5.314 0 0 0-1.325-3.441zm-3.093 9.269l-.492.44a1.865 1.865 0 0 1-.617.084 2.153 2.153 0 0 1-.63-.084l-.493-.44c-.122-.108-.115-.215.039-.215h2.155c.154 0 .158.106.038.215zm.149-.416h-2.53a.261.261 0 0 1 0-.522h2.53a.261.261 0 0 1 0 .522zm0-.719h-2.53a.261.261 0 0 1 0-.522h2.53a.261.261 0 0 1 0 .522zm1.43-3.741a2.714 2.714 0 0 1-.233.533 4.855 4.855 0 0 1-.269.411 3.212 3.212 0 0 0-.461.856 1.93 1.93 0 0 0-.079.542v.248a.462.462 0 0 1-.047.215.41.41 0 0 1-.343.221c-.183.009-.371 0-.556 0h-1.943a.411.411 0 0 1-.355-.208.423.423 0 0 1-.052-.208l-.007-.255a2.016 2.016 0 0 0-.072-.533 2.2 2.2 0 0 0-.2-.461c-.158-.284-.368-.535-.531-.818a2.827 2.827 0 1 1 5.271-1.674 2.82 2.82 0 0 1-.123 1.132z" class="cls-3" transform="translate(-1395.536 -524.545)"/>
            </g>
            <g id="그룹_323" transform="translate(1406.229 530.691)">
                <path id="패스_66" d="M1399.881 525.945a2.56 2.56 0 0 0-.348.025 2.4 2.4 0 0 0-2.047 2.494 2.371 2.371 0 0 0 .309 1.066c.084.147.185.28.28.418q.125.18.237.373a2.512 2.512 0 0 1 .33.942c.009.093.011.188.014.28v.194a.183.183 0 0 0 0 .05c.007.016 0 0 .011.009h2.426v-.235c0-.1 0-.19.014-.285a2.127 2.127 0 0 1 .117-.5 3.568 3.568 0 0 1 .438-.811c.1-.14.2-.276.285-.423a2.5 2.5 0 0 0 .219-.508 2.4 2.4 0 0 0-2.3-3.088zm-.057.743a1.827 1.827 0 0 0-1.654 1.256.212.212 0 0 1-.2.151.208.208 0 0 1-.063-.009.215.215 0 0 1-.142-.267 2.44 2.44 0 0 1 .427-.764 2.107 2.107 0 0 1 1.627-.8.215.215 0 1 1 .009.429z" class="cls-3" transform="translate(-1397.484 -525.945)"/>
            </g>
            <g id="그룹_324" transform="translate(1407.885 522.175)">
                <path id="사각형_142" d="M0 0H1.13V2.968H0z" class="cls-3"/>
            </g>
            <g id="그룹_325" transform="translate(1399.899 525.107)">
                <path id="사각형_143" d="M0 0H1.129V2.969H0z" class="cls-3" transform="rotate(-45.015 .964 .4)"/>
            </g>
            <g id="그룹_326" transform="translate(1396.896 531.882)">
                <path id="사각형_144" d="M0 0H2.967V1.13H0z" class="cls-3"/>
            </g>
            <g id="그룹_327" transform="translate(1414.086 525.108)">
                <path id="사각형_145" d="M0 0H2.968V1.129H0z" class="cls-3" transform="rotate(-45 2.534 1.05)"/>
            </g>
            <g id="그룹_328" transform="translate(1417.018 531.882)">
                <path id="사각형_146" d="M0 0H2.969V1.13H0z" class="cls-3"/>
            </g>
        </g>
    </g>
</svg>
