<svg xmlns="http://www.w3.org/2000/svg" width="80" height="50" viewBox="0 0 80 50">
    <defs>
    </defs>
    <g id="ico_image" opacity="0.87">
        <g id="그룹_393" transform="translate(-2066.879 -518.402)">
            <g id="그룹_388" transform="translate(2085.397 528.327)">
                <g id="그룹_387">
                    <path id="패스_138" d="M2115.531 546.316a10.414 10.414 0 0 1-3.591.467h-12.76l-4.4 6.711a6.155 6.155 0 0 1-2.327 2.33 10.515 10.515 0 0 1-3.586.465h-4.791q4.616-7.05 9.245-14.1a6.2 6.2 0 0 1 2.33-2.328 10.476 10.476 0 0 1 3.59-.467H2112l4.4-6.713a6.249 6.249 0 0 1 2.33-2.328 10.472 10.472 0 0 1 3.59-.467h4.791q-4.62 7.056-9.248 14.1a6.183 6.183 0 0 1-2.332 2.33z" class="cls-3" transform="translate(-2084.071 -518.83)"/>
                    <path id="패스_139" d="M2105.67 534.123q-4.392 0-4.388-4.453v-.634q0-4.391 4.388-4.387h.633q4.391 0 4.387 4.387v.634q0 4.455-4.387 4.453z" class="cls-3" transform="translate(-2064.927 -524.65)"/>
                </g>
            </g>
            <g id="그룹_392" transform="translate(2082.879 521.344)">
                <g id="그룹_389">
                    <path id="패스_140" d="M2101.57 540.35h-12.9a5.794 5.794 0 0 1-5.788-5.788v-7.433a5.793 5.793 0 0 1 5.788-5.785h12.9a5.793 5.793 0 0 1 5.785 5.785v7.433a5.793 5.793 0 0 1-5.785 5.788zm-12.9-17.884a4.668 4.668 0 0 0-4.664 4.664v7.433a4.668 4.668 0 0 0 4.664 4.664h12.9a4.668 4.668 0 0 0 4.664-4.664v-7.433a4.668 4.668 0 0 0-4.664-4.664z" class="cls-3" transform="translate(-2082.879 -521.344)"/>
                </g>
                <g id="그룹_390" transform="translate(12.906 3.857)">
                    <circle id="타원_9" cx="1.753" cy="1.753" r="1.753" class="cls-3"/>
                </g>
                <g id="그룹_391" transform="translate(3.571 8.094)">
                    <path id="패스_141" d="M2084.634 530.8l5.422-5.42a.7.7 0 0 1 1 0l3.711 3.711a.218.218 0 0 0 .311 0l1.677-1.677a.706.706 0 0 1 1 0l3.371 3.371a.217.217 0 0 1-.154.372l-16.18.017a.219.219 0 0 1-.158-.374z" class="cls-3" transform="translate(-2084.57 -525.176)"/>
                </g>
            </g>
            <circle id="타원_10" cx="1.632" cy="1.632" r="1.632" class="cls-3" transform="translate(2110.936 525.208)"/>
            <circle id="타원_11" cx="1.632" cy="1.632" r="1.632" class="cls-3" transform="translate(2115.534 528.255)"/>
        </g>
    </g>
</svg>
