<svg xmlns="http://www.w3.org/2000/svg" id="ico_night" width="80" height="50" viewBox="0 0 80 50">
    <defs>
    </defs>
    <g id="그룹_350" transform="translate(-1951.984 -516.468)">
        <g id="그룹_346" transform="translate(1967.985 525.879)">
            <path id="패스_75" d="M2000.879 546.254a10.84 10.84 0 0 1-3.757.488h-13.339q-2.3 3.511-4.6 7.016a6.427 6.427 0 0 1-2.436 2.436 10.973 10.973 0 0 1-3.75.486h-5.009q4.829-7.37 9.668-14.746a6.485 6.485 0 0 1 2.436-2.434 10.958 10.958 0 0 1 3.755-.488h13.341l4.6-7.016a6.51 6.51 0 0 1 2.436-2.436 10.956 10.956 0 0 1 3.754-.488h5.009q-4.83 7.377-9.668 14.745a6.474 6.474 0 0 1-2.44 2.437z" class="cls-2" transform="translate(-1967.985 -517.517)"/>
            <path id="패스_76" d="M1989.785 533.745q-4.591 0-4.587-4.653v-.665q0-4.591 4.587-4.587h.662q4.592 0 4.587 4.587v.665q0 4.654-4.587 4.653z" class="cls-2" transform="translate(-1947.185 -523.84)"/>
        </g>
        <g id="그룹_347" transform="translate(1977.181 524.402)">
            <path id="패스_77" d="M1986.241 535.575a6.322 6.322 0 0 1-4.37-11.749c.265-.1.207-.453-.1-.488a7.807 7.807 0 0 0-4.379.351 7.994 7.994 0 1 0 5.574 14.984 8.742 8.742 0 0 0 3.518-2.661c.148-.205-.04-.512-.239-.437z" class="cls-2" transform="translate(-1972.149 -523.171)"/>
        </g>
        <g id="그룹_348" transform="translate(1989.115 527.385)">
            <path id="패스_78" d="M1981.175 529.917a.285.285 0 0 1 .161.051l2.078 1.447-.733-2.423a.286.286 0 0 1 .1-.307l2.018-1.53-2.531-.051a.278.278 0 0 1-.261-.19l-.833-2.392-.83 2.392a.283.283 0 0 1-.261.19l-2.531.051 2.016 1.53a.279.279 0 0 1 .1.307l-.733 2.423 2.078-1.447a.29.29 0 0 1 .162-.051z" class="cls-2" transform="translate(-1977.553 -524.522)"/>
        </g>
        <g id="그룹_349" transform="translate(1995.369 522.153)">
            <path id="패스_79" d="M1983.134 526.25a.225.225 0 0 1 .124.038l1.577 1.1-.557-1.84a.214.214 0 0 1 .075-.232l1.533-1.162-1.921-.037a.218.218 0 0 1-.2-.144l-.632-1.817-.629 1.817a.217.217 0 0 1-.2.144l-1.921.037 1.532 1.162a.218.218 0 0 1 .075.232l-.557 1.84 1.577-1.1a.223.223 0 0 1 .124-.038z" class="cls-2" transform="translate(-1980.385 -522.153)"/>
        </g>
    </g>
</svg>
