<svg xmlns="http://www.w3.org/2000/svg" id="ico_manual_02" width="80" height="50" viewBox="0 0 80 50">
    <defs>
    </defs>
    <g id="그룹_1361" transform="translate(-276.073 -518.455)">
        <g id="그룹_1359" transform="translate(297.954 521.684)">
            <path id="패스_796" d="M298.279 544.875c6.141-3.7 8.2-10.71 9.078-13.7.095-.323.178-.6.248-.817.762-2.358 1.365-3.413 4.288-4.387a91.575 91.575 0 0 0 8.858-4.194l.168-.09.191.036c6.941 1.275 11.071 7.191 11.244 7.441l.155.229-.09.265a39.887 39.887 0 0 1-6.6 11.5 2.839 2.839 0 0 0-.475.817c-1.258 3.379-.538 4.96.048 6.243a5.683 5.683 0 0 1 .514 1.474 3.527 3.527 0 0 1-1.317 3.247 1 1 0 0 1-.767.283c-.729 0-2.02-.46-4.208-2.35-2.787-2.407-1.512-6.829-.672-9.757a9.726 9.726 0 0 0 .481-2.11 3.517 3.517 0 0 0-2.071-2.312c-.273-.12-.953-.37-1.361-.057-.51.409-1.268 2.772-1.936 4.857a35.149 35.149 0 0 1-2.848 7.17c-2.327 3.662-5.628 5.193-8.608 3.973a2.413 2.413 0 0 1-1.6-1.665 2.8 2.8 0 0 1 .126-1.529 3.258 3.258 0 0 1-2.392-.6 2.866 2.866 0 0 1-.664-3.746.91.91 0 0 1 .21-.221zm18.222-9.509a3.22 3.22 0 0 1 1.3.307c1.277.567 2.65 1.941 2.734 3.257a9 9 0 0 1-.525 2.484c-.762 2.656-1.915 6.672.334 8.612 2.69 2.325 3.566 2.031 3.574 2.027a2.412 2.412 0 0 0 .888-2.2 4.731 4.731 0 0 0-.424-1.18 8.19 8.19 0 0 1 .151-7.673l.09-.153a40.045 40.045 0 0 0 6.647-11.275 18.784 18.784 0 0 0-9.133-6.472 2.7 2.7 0 0 0-1.976.235 74.6 74.6 0 0 1-7.926 3.688c-2.552.853-2.911 1.609-3.578 3.675-.069.21-.147.477-.237.788-.911 3.1-3.03 10.313-9.425 14.251a1.644 1.644 0 0 0 .363 2.186 2.135 2.135 0 0 0 2.224.227 20.162 20.162 0 0 0 6.407-9.345c1.132-3.289 1.613-5.227 1.934-6.51.328-1.319.477-1.919.987-2.411l.771.8c-.269.254-.376.653-.685 1.875s-.811 3.27-1.957 6.6a21.834 21.834 0 0 1-6.075 9.291 3.261 3.261 0 0 0-.884 2.264 1.368 1.368 0 0 0 .937.888c2.447.991 5.233-.353 7.258-3.541a34.6 34.6 0 0 0 2.725-6.914c.974-3.043 1.563-4.794 2.3-5.383a1.887 1.887 0 0 1 1.2-.398z" class="cls-2" transform="translate(-297.664 -521.684)"/>
        </g>
        <g id="그룹_1360" transform="translate(297.401 555.819)">
            <path id="패스_797" d="M308.592 547.346a10.8 10.8 0 0 1-1.6-.118c-5.8-.838-9.259-5.958-9.4-6.174a1.109 1.109 0 0 1 1.846-1.228c.029.046 3.077 4.524 7.89 5.21 3.007.428 6.115-.691 9.251-3.326 6.348-5.321 12.6-5 17.6.9l-.023.034a1.121 1.121 0 0 1-.139 2.041 1.344 1.344 0 0 1-1.529-.638c-4.2-4.95-9.078-5.17-14.482-.634-3.122 2.612-6.281 3.933-9.414 3.933z" class="cls-2" transform="translate(-297.401 -537.938)"/>
        </g>
    </g>
</svg>
