<svg xmlns="http://www.w3.org/2000/svg" id="ico_manual_04" width="80" height="50" viewBox="0 0 80 50">
    <defs>
    </defs>
    <g id="그룹_1373" transform="translate(-511.28 -517.891)">
        <path id="패스_803" d="M571.457 531.7a.837.837 0 0 0-.5-.146c-2.072.125-5.265-.135-5.872-1.155-1.362-2.281-3.872-5.269-11.179-8.129-.113-.072-2.835-1.674-6.467 1.044-2.037 1.528-2.841 1.659-3.378 1.746a2.116 2.116 0 0 0-1.093.427 2.309 2.309 0 0 0-.991 1.547 1.814 1.814 0 0 0 .574 1.393c1.11 1.181 5.573 2.026 7.4.775.228-.16.455-.357.687-.558s.644-.554.628-.644a3.569 3.569 0 0 1 .8.808c-.082.185-.843.913-3.249 2.072h-13.49a2.951 2.951 0 0 0-2.947 2.945 2.874 2.874 0 0 0 .416 1.417h-1.866a2.922 2.922 0 0 0-.277 5.833 2.86 2.86 0 0 0-.451 1.471 2.948 2.948 0 0 0 2.943 2.945h3.165a2.867 2.867 0 0 0-.414 1.417 2.946 2.946 0 0 0 2.941 2.943h6.564c.275.021 3.671.283 7.747.283s8.807-.259 11.81-1.274a15 15 0 0 1 7.792-.543.818.818 0 0 0 .6-.092.762.762 0 0 0 .347-.5c.103-.511 2.445-12.584-2.24-16.025zm.872 14.979a16.867 16.867 0 0 0-7.86.732c-5.722 1.934-18.821.923-19.005.915h-6.625a1.417 1.417 0 0 1 0-2.835h6.625a.764.764 0 0 0 0-1.528h-12.317a1.416 1.416 0 0 1 0-2.833h10.586a.764.764 0 0 0 0-1.528h-12.8a1.416 1.416 0 1 1 0-2.832h14.532a.764.764 0 0 0 0-1.528h-10.136a1.417 1.417 0 1 1 0-2.835H549c.061 0 .1-.053.16-.066s.111.016.168-.01c4.063-1.924 4.188-2.868 4.242-3.27.143-1.089-1.05-2.039-1.46-2.334-.913-.56-1.821.2-2.478.761a6.917 6.917 0 0 1-.56.459c-1.116.777-4.75.142-5.413-.566-.15-.162-.156-.238-.156-.238s.018-.148.418-.466c.072-.056.113-.066.381-.111.681-.111 1.713-.277 4.053-2.029 2.775-2.068 4.679-1 4.869-.909 6.994 2.753 9.308 5.479 10.545 7.55 1.194 2.008 5.538 1.99 6.982 1.912 2.788 2.419 2.187 9.997 1.578 13.591z" class="cls-2" transform="translate(4.244)"/>
        <path id="패스_804" d="M558.569 538.925a1.529 1.529 0 0 0-1.528-1.526h-31.569a1.527 1.527 0 0 0 0 3.054h31.569a1.529 1.529 0 0 0 1.528-1.528z" class="cls-2" transform="translate(0 16.461)"/>
        <path id="패스_805" d="M563.839 540.874h-29.026a1.528 1.528 0 1 0 0 3.056h29.025a1.528 1.528 0 0 0 0-3.056z" class="cls-2" transform="translate(9.816 20.113)"/>
    </g>
</svg>
