<svg xmlns="http://www.w3.org/2000/svg" id="ico_manual_06" width="80" height="50" viewBox="0 0 80 50">
    <defs>
    </defs>
    <g id="그룹_1394" transform="translate(-745.959 -517.936)">
        <g id="그룹_1390" transform="translate(752.469 523.412)">
            <path id="패스_813" d="M774.82 549.651c-.621 0-1.725-.393-3.594-2.007-2.379-2.055-1.292-5.838-.573-8.338a8.4 8.4 0 0 0 .41-1.8 3.011 3.011 0 0 0-1.765-1.976c-.245-.1-.826-.314-1.167-.048-.437.351-1.085 2.369-1.654 4.15a30.045 30.045 0 0 1-2.434 6.124c-1.984 3.13-4.8 4.445-7.356 3.4a2.059 2.059 0 0 1-1.365-1.424 2.37 2.37 0 0 1 .107-1.307 2.837 2.837 0 0 1-2.043-.512 2.445 2.445 0 0 1-.566-3.2l.061-.117.113-.067c5.24-3.157 7-9.143 7.757-11.7.083-.282.155-.521.213-.711.648-2.011 1.16-2.913 3.665-3.747a78.736 78.736 0 0 0 7.567-3.582l.145-.077.163.029c5.93 1.089 9.459 6.143 9.607 6.358l.132.2-.077.224a34.343 34.343 0 0 1-5.89 10.122c-1.284 3.163-.636 4.587-.115 5.733a4.882 4.882 0 0 1 .441 1.261 3.018 3.018 0 0 1-1.125 2.772.839.839 0 0 1-.657.24zm-6.255-15.251a2.765 2.765 0 0 1 1.115.263 3.9 3.9 0 0 1 2.333 2.783 7.672 7.672 0 0 1-.45 2.122c-.65 2.269-1.635 5.7.286 7.36 2.3 1.986 3.034 1.727 3.057 1.729a2.067 2.067 0 0 0 .755-1.88 4.05 4.05 0 0 0-.362-1.008c-.571-1.253-1.351-2.967.13-6.557l.078-.132a34.291 34.291 0 0 0 5.683-9.63c-.686-.9-3.872-4.786-8.7-5.746a73.641 73.641 0 0 1-7.567 3.567c-2.185.728-2.492 1.376-3.059 3.138-.059.184-.13.416-.207.686-.78 2.643-2.595 8.8-8.052 12.164-.144.335-.477 1.328.312 1.865a1.8 1.8 0 0 0 1.892.2 17.194 17.194 0 0 0 5.482-7.987c.966-2.81 1.378-4.466 1.652-5.562.28-1.125.406-1.639.843-2.057l.659.682c-.228.22-.322.563-.583 1.606s-.692 2.791-1.675 5.639a18.551 18.551 0 0 1-5.187 7.929 2.808 2.808 0 0 0-.759 1.94 1.169 1.169 0 0 0 .8.759c2.093.851 4.472-.3 6.2-3.025a29.625 29.625 0 0 0 2.329-5.909c.832-2.6 1.336-4.1 1.965-4.6a1.612 1.612 0 0 1 1.03-.339z" class="cls-2" transform="translate(-752.469 -522.713)"/>
        </g>
        <g id="그룹_1391" transform="translate(788.827 522.072)">
            <path id="패스_814" d="M769.864 530.178a.474.474 0 0 0 .132.41l6.484 6.484c.144 3 2.818 5.269 4.433 6.634a6.2 6.2 0 0 1 1.094 1.033 6.007 6.007 0 0 0 1.137 1.464 9.5 9.5 0 0 0 1.7 1.388 16.369 16.369 0 0 0 3.561.592l.38.381a1.931 1.931 0 0 0 2.729 0l.429-.429a1.876 1.876 0 0 0 .477-.911l.27.27a2.188 2.188 0 0 0 3.092 0 2.31 2.31 0 0 0 .677-1.505 2.269 2.269 0 0 0 2.3-.594 2.162 2.162 0 0 0 .149-3.044l-.366-.366a2.358 2.358 0 0 0 1.229-.625 2.167 2.167 0 0 0 .147-3.047l-2.649-2.649c-.05-.052-.121-.054-.186-.077a27.46 27.46 0 0 0-.859-4.857 1.93 1.93 0 0 0-.564-.912c-4.226-3.749-6.948-3.226-8.577-2.913a3.68 3.68 0 0 1-1.026.115c-.868-.123-3.23-2.858-4.623-4.755a.467.467 0 0 0-.518-.174c-10.136 2.982-11.016 7.878-11.052 8.087zm27.536 10.657l-1.9-1.894a4.8 4.8 0 0 0 .863-.326c.439-.236.644-.9.713-1.8l2.172 2.172a1.33 1.33 0 0 1-1.852 1.853zm-1.55 3.5l-4.226-4.226c.054-.034.117-.05.169-.086a5.629 5.629 0 0 1 2.3-.751c.109-.019.222-.048.33-.067l.017.017 2.285 2.285 1.514 1.512a1.331 1.331 0 0 1-1.855 1.854zm-3.906 1.075l-3.745-3.745-.447-.447a1.243 1.243 0 0 1 0-1.754c.086-.086.195-.071.291-.13a1.933 1.933 0 0 0 .667.841 2.521 2.521 0 0 0 1.944.307l4.528 4.518a1.238 1.238 0 0 1 0 1.752 1.264 1.264 0 0 1-1.819.067zm-2.486 2.486l-3.745-3.745a.983.983 0 0 1 0-1.388l.429-.429a.983.983 0 0 1 1.388 0l3.745 3.745a.987.987 0 0 1 0 1.388l-.431.429a.981.981 0 0 1-1.384-.002zm-8.589-24.8c.905 1.2 3.6 4.652 5.06 4.859a4.128 4.128 0 0 0 1.334-.119c1.552-.3 3.893-.751 7.767 2.689a.867.867 0 0 1 .276.433c1.164 4.585.993 6.617.613 6.82a6.571 6.571 0 0 1-1.986.56 6.4 6.4 0 0 0-2.682.908 1.923 1.923 0 0 1-.36.127 1.812 1.812 0 0 1-1.223.117c-.138-.036-.305-.019-.414-.094a.878.878 0 0 1-.176-.2 1.466 1.466 0 0 1-.247-1.087 3.045 3.045 0 0 1 .061-.37 10.464 10.464 0 0 1 2.846-2.241.467.467 0 0 0 .485-.625l-.654-1.963a.475.475 0 0 0-.9.3l.5 1.5a13 13 0 0 0-2.894 2.31 4.71 4.71 0 0 1-3.628-1.57.465.465 0 0 0-.667-.083.47.47 0 0 0-.084.663 3.967 3.967 0 0 0 .376.429 5.651 5.651 0 0 0 3.655 1.5c-.013.094-.034.2-.038.282a2.173 2.173 0 0 0-.745.485 2.251 2.251 0 0 0-.548 2.419 1.871 1.871 0 0 0-1.127.519l-.431.429a1.933 1.933 0 0 0 0 2.729l2.3 2.3a10.763 10.763 0 0 1-2.043-.362 8.408 8.408 0 0 1-2.436-2.425 5.255 5.255 0 0 0-1.34-1.344c-1.518-1.294-4.073-3.456-4.1-6.12a.465.465 0 0 0-.138-.33l-6.423-6.423c.305-.929 1.988-4.581 10.012-7.018z" class="cls-2" transform="translate(-769.858 -522.072)"/>
        </g>
        <g id="그룹_1392" transform="translate(782.721 546.027)">
            <path id="패스_815" d="M771.956 544.063a2.715 2.715 0 0 1-2.482 2.4c-1.386.188-2.521-.567-2.536-1.683a2.692 2.692 0 0 1 2.486-2.367 2.96 2.96 0 0 1 .841.01v-8.894l4.267 2.708a2.971 2.971 0 0 1 1.332 3.178 5.015 5.015 0 0 1-.7 1.6 7.54 7.54 0 0 1-1.986 1.16l1.012-3.061a1.3 1.3 0 0 0-.558-1.447l-1.671-1.06z" class="cls-2" transform="translate(-766.938 -533.529)"/>
        </g>
        <g id="그룹_1393" transform="translate(790.395 549.456)">
            <path id="패스_816" d="M776.464 547.428a3.124 3.124 0 0 1-3.387 2.074c-1.606-.134-2.693-1.265-2.43-2.526a3.1 3.1 0 0 1 3.385-2.034 3.32 3.32 0 0 1 .941.222l2.227-9.994 4.117 4.108a3.42 3.42 0 0 1 .7 3.9 5.77 5.77 0 0 1-1.192 1.62 8.685 8.685 0 0 1-2.522.807l1.9-3.186a1.5 1.5 0 0 0-.266-1.765l-1.61-1.61z" class="cls-2" transform="translate(-770.608 -535.169)"/>
        </g>
    </g>
</svg>
