<svg xmlns="http://www.w3.org/2000/svg" id="ico_manual_03" width="80" height="50" viewBox="0 0 80 50">
    <defs>
    </defs>
    <g id="그룹_1372" transform="translate(-392.877 -518.228)">
        <path id="패스_798" d="M450.533 527.988a.625.625 0 0 0-.66-.33c-3.149.481-8.026.837-8.976.126a5.056 5.056 0 0 1-.872-1.094c-1.259-1.857-3.362-4.963-10.994-5.42a2.625 2.625 0 0 0-1.414.33 37.107 37.107 0 0 0-5.469 3.827.608.608 0 0 0-.255-.1h-5.071a2.929 2.929 0 0 0-2.772 3.055 3.177 3.177 0 0 0 .576 1.774h-.7a2.93 2.93 0 0 0-2.774 3.057 3.077 3.077 0 0 0 1.637 2.77 3.124 3.124 0 0 0-.792 2.09 2.963 2.963 0 0 0 2.957 2.959h.517a2.541 2.541 0 0 0-.418 1.328v.823a2.613 2.613 0 0 0 2.611 2.609h.729a22.172 22.172 0 0 0 3.974 2.841 12.738 12.738 0 0 0 2.959.3 8.063 8.063 0 0 0 2.489-.31 8.475 8.475 0 0 1 2.035.059c2.851.236 7.587.621 10.591-2.108h12.41a.644.644 0 0 0 .519-.265c.171-.236 4.012-5.765-2.837-18.321zm-35.2.391a1.652 1.652 0 0 1 1.489-1.772h4.157c-.8.931-1.238 1.762-1.043 2.409a6.373 6.373 0 0 0 .513 1.136h-3.627a1.653 1.653 0 0 1-1.487-1.773zm-1.405 6.6a1.8 1.8 0 0 1 0-3.546h7.3c.086.124.165.257.253.381a7.593 7.593 0 0 1 1.485 2.921c.016.085.061.161.081.244h-9.117zm1.029 4.766a1.71 1.71 0 0 1-1.676-1.8 1.678 1.678 0 0 1 1.676-1.678h8.66a3.4 3.4 0 0 0 2.157 1.568 2.608 2.608 0 0 0 1.442-.167c.035.147.153.24.153.4a1.68 1.68 0 0 1-1.678 1.678h-10.733zm1.383 3.432v-.823a1.331 1.331 0 0 1 1.328-1.328h7.167a1.331 1.331 0 0 1 1.328 1.328v.823a1.329 1.329 0 0 1-1.328 1.326h-7.167a1.329 1.329 0 0 1-1.327-1.324zm36.143 2.108h-12.292a.632.632 0 0 0-.448.185c-2.578 2.519-7.09 2.144-9.782 1.929a7.11 7.11 0 0 0-2.568.006 11.377 11.377 0 0 1-4.65-.01 14.38 14.38 0 0 1-2.3-1.609h4.4a2.612 2.612 0 0 0 2.609-2.609v-.823a2.551 2.551 0 0 0-.582-1.574 3.047 3.047 0 0 0 1.79-2.839 2.942 2.942 0 0 0-.249-1.175c.079-.088.157-.208.234-.307a7.654 7.654 0 0 0 4.931 2.063 5.923 5.923 0 0 0 .772-.049.642.642 0 0 0 .554-.717.627.627 0 0 0-.719-.556 6.364 6.364 0 0 1-4.971-1.969 17.742 17.742 0 0 0-.56-4.979l1.914-.951a.643.643 0 0 0-.57-1.153l-2.507 1.253a.632.632 0 0 0-.134 1.063c.306.354.566 2.564.578 4.87a4.505 4.505 0 0 1-.3.411 1.979 1.979 0 0 1-1.275.8 1.176 1.176 0 0 1-.36.022c-.175-.031-.32-.21-.487-.306a2.44 2.44 0 0 1-1.055-1.283 2.5 2.5 0 0 1-.224-.464 8.638 8.638 0 0 0-1.7-3.438 8.893 8.893 0 0 1-1.365-2.434c-.171-.562 1.611-2.67 7.112-5.943a1.192 1.192 0 0 1 .68-.149c7 .415 8.807 3.086 10 4.859a5.682 5.682 0 0 0 1.163 1.391c1.591 1.194 7.475.477 9.493.192 5.348 10.018 3.462 15.124 2.869 16.295z" class="cls-2"/>
        <g id="그룹_1366" transform="translate(414.26 550.809)">
            <g id="그룹_1363" transform="translate(3.489 3.487)">
                <g id="그룹_1362">
                    <path id="패스_799" d="M418.092 544.883a3.7 3.7 0 1 1 3.7-3.7 3.7 3.7 0 0 1-3.7 3.7zm0-5.713a2.015 2.015 0 1 0 2.018 2.016 2.018 2.018 0 0 0-2.018-2.016z" class="cls-2" transform="translate(-414.393 -537.486)"/>
                </g>
            </g>
            <g id="그룹_1365">
                <g id="그룹_1364">
                    <path id="패스_800" d="M419.867 550.149a7.187 7.187 0 1 1 7.187-7.187 7.2 7.2 0 0 1-7.187 7.187zm0-12.45a5.263 5.263 0 1 0 5.263 5.263 5.268 5.268 0 0 0-5.263-5.262z" class="cls-2" transform="translate(-412.68 -535.774)"/>
                </g>
            </g>
        </g>
        <g id="그룹_1371" transform="translate(431.616 552.09)">
            <g id="그룹_1368" transform="translate(2.656 2.656)">
                <g id="그룹_1367">
                    <path id="패스_801" d="M425.325 543.342a2.818 2.818 0 1 1 2.817-2.817 2.822 2.822 0 0 1-2.817 2.817zm0-4.352a1.535 1.535 0 1 0 1.536 1.536 1.539 1.539 0 0 0-1.536-1.536z" class="cls-2" transform="translate(-422.506 -537.707)"/>
                </g>
            </g>
            <g id="그룹_1370">
                <g id="그룹_1369">
                    <path id="패스_802" d="M426.677 547.352a5.475 5.475 0 1 1 5.475-5.474 5.48 5.48 0 0 1-5.475 5.474zm0-9.485a4.009 4.009 0 1 0 4.008 4.01 4.015 4.015 0 0 0-4.008-4.01z" class="cls-2" transform="translate(-421.202 -536.403)"/>
                </g>
            </g>
        </g>
    </g>
</svg>
