<svg xmlns="http://www.w3.org/2000/svg" id="ico_manual_05" width="80" height="50" viewBox="0 0 80 50">
    <defs>
    </defs>
    <g id="그룹_1389" transform="translate(-629.498 -517.745)">
        <g id="그룹_1377" transform="translate(636.751 521.811)">
            <g id="그룹_1374" transform="translate(0 1.31)">
                <path id="패스_806" d="M658.607 548.792c-.609 0-1.687-.382-3.514-1.961-2.329-2.012-1.264-5.708-.562-8.153a8.13 8.13 0 0 0 .4-1.764 2.944 2.944 0 0 0-1.729-1.928c-.229-.1-.793-.315-1.137-.049-.427.341-1.061 2.314-1.619 4.056a29.356 29.356 0 0 1-2.378 5.99c-1.94 3.06-4.7 4.344-7.192 3.32a2.017 2.017 0 0 1-1.337-1.39 2.336 2.336 0 0 1 .106-1.278 2.77 2.77 0 0 1-2-.5 2.387 2.387 0 0 1-.552-3.126l.057-.115.112-.068c5.129-3.091 6.849-8.946 7.583-11.447.08-.27.149-.5.207-.683.638-1.969 1.141-2.85 3.584-3.666a76.211 76.211 0 0 0 7.4-3.5l.141-.076.159.029c5.8 1.067 9.249 6.006 9.392 6.217l.131.19-.076.221a33.592 33.592 0 0 1-5.755 9.9c-1.257 3.093-.624 4.483-.112 5.6a4.769 4.769 0 0 1 .431 1.233 2.945 2.945 0 0 1-1.1 2.711.8.8 0 0 1-.64.237zm-6.121-14.912a2.757 2.757 0 0 1 1.094.256 3.815 3.815 0 0 1 2.28 2.721 7.486 7.486 0 0 1-.438 2.075c-.638 2.222-1.6 5.575.278 7.2 2.249 1.942 2.987 1.695 2.987 1.695a2.021 2.021 0 0 0 .742-1.84 3.876 3.876 0 0 0-.356-.985c-.556-1.225-1.321-2.9.127-6.411l.076-.129a33.411 33.411 0 0 0 5.552-9.418c-.668-.883-3.784-4.68-8.5-5.616a72.234 72.234 0 0 1-7.4 3.488c-2.13.709-2.431 1.341-2.989 3.069-.057.176-.123.4-.2.658-.761 2.584-2.531 8.613-7.873 11.906-.141.327-.468 1.3.3 1.822a1.733 1.733 0 0 0 1.85.2 16.838 16.838 0 0 0 5.36-7.812c.945-2.748 1.347-4.367 1.615-5.438.276-1.1.4-1.6.826-2.014l.644.671c-.225.213-.315.546-.572 1.566s-.677 2.729-1.635 5.516a18.236 18.236 0 0 1-5.074 7.762 2.717 2.717 0 0 0-.74 1.891 1.151 1.151 0 0 0 .783.742c2.04.828 4.373-.3 6.062-2.96a28.9 28.9 0 0 0 2.277-5.775c.814-2.543 1.306-4.007 1.922-4.5a1.58 1.58 0 0 1 1.002-.34z" class="cls-2" transform="translate(-636.751 -522.452)"/>
            </g>
            <g id="그룹_1375" transform="translate(14.208 26.07)">
                <path id="패스_807" d="M653.054 542.419a9.474 9.474 0 0 1-1.339-.094c-4.851-.7-7.74-4.978-7.859-5.16a.926.926 0 0 1 1.542-1.026c.027.037 2.574 3.78 6.6 4.355 2.513.354 5.107-.576 7.728-2.78 5.3-4.447 10.522-4.175 14.7.748l-.019.031a.928.928 0 0 1 .5.82.946.946 0 0 1-.611.883c-.646.231-1.022-.233-1.278-.534-3.512-4.136-7.587-4.316-12.1-.53a12.292 12.292 0 0 1-7.864 3.287z" class="cls-2" transform="translate(-643.701 -534.563)"/>
            </g>
            <g id="그룹_1376" transform="translate(35.55)">
                <path id="패스_808" d="M654.146 529.739a.464.464 0 0 0 .129.4l6.34 6.342c.141 2.93 2.758 5.152 4.334 6.487a6.091 6.091 0 0 1 1.071 1.01 5.784 5.784 0 0 0 1.112 1.429 9.165 9.165 0 0 0 1.666 1.36 16 16 0 0 0 3.482.578l.372.372a1.886 1.886 0 0 0 2.666 0l.419-.419a1.817 1.817 0 0 0 .466-.891l.264.264a2.139 2.139 0 0 0 3.024 0 2.257 2.257 0 0 0 .662-1.472 2.227 2.227 0 0 0 2.253-.581 2.116 2.116 0 0 0 .145-2.977l-.358-.358a2.294 2.294 0 0 0 1.2-.611 2.117 2.117 0 0 0 .145-2.979l-2.59-2.59a.428.428 0 0 0-.184-.076 26.816 26.816 0 0 0-.838-4.751 1.9 1.9 0 0 0-.554-.889c-4.132-3.668-6.793-3.154-8.386-2.848a3.672 3.672 0 0 1-1 .112c-.848-.121-3.157-2.795-4.52-4.649a.453.453 0 0 0-.507-.17c-9.918 2.914-10.781 7.702-10.813 7.907zm26.924 10.42l-1.852-1.852a4.691 4.691 0 0 0 .842-.319c.429-.231.63-.879.7-1.764l2.122 2.124a1.3 1.3 0 0 1-1.811 1.811zm-1.515 3.42l-4.132-4.132c.053-.033.114-.049.166-.084a5.52 5.52 0 0 1 2.253-.734c.106-.018.215-.047.323-.065l.014.014 2.234 2.235 1.48 1.48a1.3 1.3 0 0 1-1.811 1.811zm-3.819 1.049l-3.659-3.659-.44-.44a1.213 1.213 0 0 1 0-1.713c.084-.084.192-.07.284-.129a1.9 1.9 0 0 0 .652.824 2.472 2.472 0 0 0 1.9.3l4.424 4.424a1.211 1.211 0 0 1 0 1.713 1.234 1.234 0 0 1-1.776.065zm-2.431 2.433l-3.662-3.661a.961.961 0 0 1 0-1.358l.421-.419a.959.959 0 0 1 1.355 0l3.661 3.662a.961.961 0 0 1 0 1.357l-.419.419a.961.961 0 0 1-1.355 0zm-8.4-24.248c.885 1.178 3.525 4.551 4.947 4.753a4.083 4.083 0 0 0 1.3-.117c1.519-.294 3.807-.736 7.595 2.627a.884.884 0 0 1 .272.425c1.139 4.481.971 6.47.6 6.669a6.47 6.47 0 0 1-1.942.548 6.23 6.23 0 0 0-2.623.887 1.836 1.836 0 0 1-.352.125 1.766 1.766 0 0 1-1.194.115c-.135-.035-.3-.018-.407-.092a.857.857 0 0 1-.172-.194 1.433 1.433 0 0 1-.241-1.063 3.4 3.4 0 0 1 .059-.362 10.187 10.187 0 0 1 2.784-2.192.459.459 0 0 0 .4-.17.468.468 0 0 0 .072-.442l-.642-1.92a.464.464 0 0 0-.879.3l.491 1.464a12.8 12.8 0 0 0-2.829 2.257 4.594 4.594 0 0 1-3.547-1.533.452.452 0 0 0-.65-.082.462.462 0 0 0-.084.648 4.3 4.3 0 0 0 .368.419 5.528 5.528 0 0 0 3.574 1.466c-.01.092-.033.192-.037.276a2.136 2.136 0 0 0-.728.474 2.2 2.2 0 0 0-.535 2.365 1.839 1.839 0 0 0-1.1.507l-.419.419a1.886 1.886 0 0 0 0 2.666l2.245 2.247a10.529 10.529 0 0 1-2-.354 8.245 8.245 0 0 1-2.382-2.372 5.114 5.114 0 0 0-1.308-1.314c-1.486-1.266-3.982-3.379-4.013-5.984a.452.452 0 0 0-.133-.323l-6.282-6.28c.304-.904 1.948-4.476 9.794-6.864z" class="cls-2" transform="translate(-654.14 -521.811)"/>
            </g>
        </g>
        <g id="그룹_1388" transform="translate(668.537 552.54)">
            <g id="그룹_1382">
                <g id="그룹_1379" transform="translate(2.703 2.703)">
                    <g id="그룹_1378">
                        <path id="패스_809" d="M656.487 543.9a2.866 2.866 0 1 1 2.866-2.866 2.87 2.87 0 0 1-2.866 2.866zm0-4.428a1.562 1.562 0 1 0 1.562 1.562 1.565 1.565 0 0 0-1.562-1.566z" class="cls-2" transform="translate(-653.621 -538.164)"/>
                    </g>
                </g>
                <g id="그룹_1381">
                    <g id="그룹_1380">
                        <path id="패스_810" d="M657.868 547.982a5.57 5.57 0 1 1 5.569-5.571 5.577 5.577 0 0 1-5.569 5.571zm0-9.65a4.079 4.079 0 1 0 4.078 4.079 4.085 4.085 0 0 0-4.078-4.079z" class="cls-2" transform="translate(-652.299 -536.842)"/>
                    </g>
                </g>
            </g>
            <g id="그룹_1387" transform="translate(13.448 .994)">
                <g id="그룹_1384" transform="translate(2.059 2.059)">
                    <g id="그룹_1383">
                        <path id="패스_811" d="M662.068 542.7a2.183 2.183 0 1 1 2.183-2.183 2.186 2.186 0 0 1-2.183 2.183zm0-3.373a1.189 1.189 0 1 0 1.192 1.19 1.191 1.191 0 0 0-1.192-1.188z" class="cls-2" transform="translate(-659.884 -538.335)"/>
                    </g>
                </g>
                <g id="그룹_1386">
                    <g id="그룹_1385">
                        <path id="패스_812" d="M663.119 545.812a4.242 4.242 0 1 1 4.244-4.242 4.247 4.247 0 0 1-4.244 4.242zm0-7.35a3.107 3.107 0 1 0 3.107 3.107 3.11 3.11 0 0 0-3.107-3.106z" class="cls-2" transform="translate(-658.877 -537.328)"/>
                    </g>
                </g>
            </g>
        </g>
    </g>
</svg>
