<svg height="50" viewBox="0 0 80 50" width="80" xmlns="http://www.w3.org/2000/svg"><g fill="#fff"><path d="m0 0h80v50h-80z" opacity="0"/><g transform="translate(-442.674 -258.845)"><path d="m475.014 286.388a7.14 7.14 0 1 0 -7.142-7.141 7.148 7.148 0 0 0 7.142 7.141zm-4.558-7.141a4.559 4.559 0 1 1 4.558 4.562 4.566 4.566 0 0 1 -4.558-4.563z" transform="translate(7.341 4.815)"/><path d="m487.345 267.414a16.594 16.594 0 0 0 -5.142.823 16.868 16.868 0 0 0 -2.563 1.08 16.594 16.594 0 0 0 -8.833 13.173 12.011 12.011 0 0 0 -.109 1.572 11.654 11.654 0 0 0 5.2 9.7 11.792 11.792 0 0 0 10.055 1.39 14.171 14.171 0 0 1 -3.77 2.079 13.9 13.9 0 0 1 -2.4.648 14.022 14.022 0 0 1 -7.146-27.016.5.5 0 0 0 .243-.746l-.928-1.38a.5.5 0 0 0 -.592-.186 16.638 16.638 0 0 0 6 32.16 16.635 16.635 0 0 0 16.54-15.074 11.659 11.659 0 0 0 -15.146-12.662 14.116 14.116 0 0 1 3.77-2.081 13.829 13.829 0 0 1 2.4-.648 14.024 14.024 0 0 1 6.99 27.075.5.5 0 0 0 -.249.748l.928 1.378a.5.5 0 0 0 .585.188 16.637 16.637 0 0 0 -5.835-32.221zm-14.04 16.647c0-.31.018-.618.049-.924a9.05 9.05 0 0 1 18 0c.028.306.046.614.046.926s-.018.622-.046.926a9.05 9.05 0 0 1 -18 0c-.031-.308-.049-.616-.049-.928z"/></g></g></svg>