<svg height="50" viewBox="0 0 80 50" width="80" xmlns="http://www.w3.org/2000/svg"><g fill="#fff"><path d="m0 0h80v50h-80z" opacity="0"/><path d="m378.778 284.981a6.161 6.161 0 0 0 -10.226-4.6 5.954 5.954 0 0 0 -1.837 2.852l-.045.132a2.666 2.666 0 0 0 -.1.33.543.543 0 0 0 .53.656h1.758a.645.645 0 0 0 .539-.445c.031-.1.061-.2.085-.258l.076-.141.007-.013a3.44 3.44 0 0 1 .936-1.147 3.366 3.366 0 0 1 2.1-.746 3.428 3.428 0 0 1 3.4 3.472 14.062 14.062 0 1 1 -15.1-14.14.542.542 0 0 0 .5-.541v-1.692a.537.537 0 0 0 -.173-.4.48.48 0 0 0 -.4-.144 16.823 16.823 0 0 0 1.123 33.609 16.592 16.592 0 0 0 7.529-1.8 16.641 16.641 0 0 0 9.294-14.857c.001-.017.004-.102.004-.127z" transform="translate(-329.232 -259.94)"/><path d="m368.435 268.135a17.275 17.275 0 0 0 -9.375 2.865 16.827 16.827 0 0 0 -7.458 13.972c0 .083 0 .164.011.242v.153c0 .025-.016.155-.016.18a3.441 3.441 0 0 0 .038.46l.02.175a6.16 6.16 0 0 0 11.381 2.56 5.96 5.96 0 0 0 .613-1.377l.047-.139c.034-.1.067-.207.092-.314a.541.541 0 0 0 -.526-.665h-1.758a.546.546 0 0 0 -.514.368c-.04.123-.081.249-.119.335l-.056.1-.009.018a3.45 3.45 0 0 1 -3.031 1.889 3.42 3.42 0 0 1 -3.355-2.872c-.016-.245-.029-.492-.036-.743l-.018-.368a14.137 14.137 0 0 1 7.054-12.174 14.2 14.2 0 0 1 1.72-.851 14.049 14.049 0 0 1 19.36 13.019 14.114 14.114 0 0 1 -13.018 14.012.542.542 0 0 0 -.5.541v1.684a.535.535 0 0 0 .171.4.543.543 0 0 0 .371.146h.036a16.823 16.823 0 0 0 -1.123-33.609z" transform="translate(-321.148 -259.969)"/></g></svg>