<svg height="50" viewBox="0 0 80 50" width="80" xmlns="http://www.w3.org/2000/svg"><g fill="#fff"><path d="m0 0h80v50h-80z" opacity="0"/><path d="m212.065 534.623c0-.142-.059-1.474-1.6-4.556a7.742 7.742 0 0 0 -3.6-3.627 3.1 3.1 0 0 1 -.787-.518 15.683 15.683 0 0 1 -1.517-2.352l-.135-.175c-4.443-3.874-9.236-3.358-12.115-3.057-.474.052-.9.1-1.284.118a2.2 2.2 0 0 0 -2.071 1.9 24.039 24.039 0 0 1 -1.213 5.652 15.77 15.77 0 0 0 -1.3 11.811c1.426 5.374.087 7.556-.8 9a2.768 2.768 0 0 0 -.641 1.926 3.068 3.068 0 0 0 3.234 2.678 5.272 5.272 0 0 0 .778-.061c2.276-.341 4.926-3.844 4.935-5.921-.006-.07-.074-.894-.219-2.029l.717 1.38a2.707 2.707 0 0 0 1.592 1.34 2.755 2.755 0 0 0 .824.125 2.668 2.668 0 0 0 1.238-.3l.14-.07a2.692 2.692 0 0 0 1.34-1.594c.006-.02 0-.041.007-.061a2.786 2.786 0 0 0 .792.435 2.83 2.83 0 0 0 .846.131 2.794 2.794 0 0 0 2.656-1.951c.013-.037 0-.076.013-.114a2.752 2.752 0 0 0 1.585.557 2.79 2.79 0 0 0 1.279-.315 2.755 2.755 0 0 0 1.364-3.172 2.737 2.737 0 0 0 .582.09 2.789 2.789 0 0 0 2.477-4.071c.797-.383.931-1.928.883-3.199zm-23.228 17.6c-1.48.216-2.453-.35-2.7-1.684-.044-.238.19-.623.49-1.111.927-1.515 2.482-4.051.931-9.9a14.617 14.617 0 0 1 1.2-10.965 23.6 23.6 0 0 0 1.34-6.034 1.044 1.044 0 0 1 .986-.912c.393-.022.846-.07 1.343-.122 2.845-.3 7.115-.754 11.149 2.705a16.146 16.146 0 0 0 1.592 2.451 3.689 3.689 0 0 0 1.132.807 6.634 6.634 0 0 1 3.126 3.129 11.955 11.955 0 0 1 1.48 4.067 7.028 7.028 0 0 1 -.182 2.036 3.448 3.448 0 0 1 -.426-.551l-1.242-2.388a2.8 2.8 0 0 0 -3.759-1.191 2.758 2.758 0 0 0 -1.3 1.493 2.747 2.747 0 0 0 -4.53 1.3 2.747 2.747 0 0 0 -2.14-.428 8.638 8.638 0 0 0 .223-6.783l-1.05.488c1.716 3.695-1.434 8.744-2.821 9.517l.007.015a2.483 2.483 0 0 0 -.442.129l-.131.068a2.708 2.708 0 0 0 -1.2 3.516 41.886 41.886 0 0 1 .87 5.615c-.005 1.5-2.291 4.485-3.946 4.734zm8.87-5.363-.135.068a1.561 1.561 0 0 1 -1.191.1 1.541 1.541 0 0 1 -.909-.77l-2.438-4.692c-.018-.074-.039-.146-.057-.219a1.536 1.536 0 0 1 .671-1.97l.133-.068a1.542 1.542 0 0 1 .719-.177 1.524 1.524 0 0 1 .47.076 1.544 1.544 0 0 1 .91.767l2.488 4.782a1.575 1.575 0 0 1 .1 1.189 1.556 1.556 0 0 1 -.761.915zm4.261-1.4a1.639 1.639 0 0 1 -1.244.107 1.612 1.612 0 0 1 -.955-.8l-3.328-6.4a1.629 1.629 0 0 1 .7-2.2 1.6 1.6 0 0 1 .746-.184 1.632 1.632 0 0 1 1.452.881l3.328 6.4a1.624 1.624 0 0 1 .109 1.244 1.606 1.606 0 0 1 -.808.951zm4.253-1.507a1.634 1.634 0 0 1 -2.2-.695l-3.33-6.408a1.632 1.632 0 0 1 .7-2.2 1.6 1.6 0 0 1 .746-.183 1.631 1.631 0 0 1 1.452.879l3.33 6.406a1.631 1.631 0 0 1 -.698 2.199zm4.03-4.355a1.63 1.63 0 0 1 -3 .264l-2.116-4.071a1.632 1.632 0 1 1 2.9-1.508l2.116 4.071a1.614 1.614 0 0 1 .101 1.246z" transform="translate(-155.688 -517.097)"/><path d="m189.173 543.444a8.607 8.607 0 0 1 -5.237-1.832 1.152 1.152 0 0 1 -.158-1.623 1.168 1.168 0 0 1 1.629-.168 5.882 5.882 0 0 0 7.346-.011 1.159 1.159 0 0 1 1.437 1.819 7.966 7.966 0 0 1 -5.017 1.815z" transform="translate(-156.915 -500.722)"/><path d="m190.666 546.267a14.212 14.212 0 0 1 -8.365-2.987 1.158 1.158 0 0 1 1.5-1.762c.258.225 6.551 5.411 13.295-.02a1.16 1.16 0 0 1 1.458 1.8 12.358 12.358 0 0 1 -7.888 2.969z" transform="translate(-158.281 -499.307)"/></g></svg>