<svg xmlns="http://www.w3.org/2000/svg" id="ico_meditation_02" width="80" height="50" viewBox="0 0 80 50">
    <defs>
    </defs>
    <g id="그룹_1452" transform="translate(-277.123 -628.907)">
        <g id="그룹_1432" transform="translate(300.053 641.402)">
            <g id="그룹_1431">
                <g id="그룹_1430">
                    <g id="그룹_1427" transform="translate(0 9.654)">
                        <g id="그룹_1426">
                            <path id="패스_837" d="M324.822 657.348a9.061 9.061 0 0 1-3.136.407h-11.144l-3.845 5.861a5.373 5.373 0 0 1-2.035 2.035 9.131 9.131 0 0 1-3.132.407h-4.183l8.075-12.318a5.407 5.407 0 0 1 2.035-2.033 9.159 9.159 0 0 1 3.136-.407h11.144l3.841-5.863a5.42 5.42 0 0 1 2.035-2.033 9.157 9.157 0 0 1 3.136-.407h4.183q-4.035 6.16-8.075 12.316a5.427 5.427 0 0 1-2.035 2.035z" class="cls-2" transform="translate(-297.347 -642.997)"/>
                        </g>
                    </g>
                    <g id="그룹_1429" transform="translate(31.751)">
                        <g id="그룹_1428">
                            <path id="패스_838" d="M318.187 646.1q-3.833 0-3.83-3.888v-.554q0-3.833 3.83-3.83h.554q3.836 0 3.832 3.83v.554q0 3.889-3.832 3.888z" class="cls-2" transform="translate(-314.357 -637.825)"/>
                        </g>
                    </g>
                </g>
            </g>
        </g>
        <g id="그룹_1449" transform="translate(294.225 633.697)">
            <g id="그룹_1433" transform="translate(11.464)">
                <rect id="사각형_479" width="2.236" height="4.206" class="cls-2" rx=".278"/>
            </g>
            <g id="그룹_1434" transform="translate(0 11.128)">
                <path id="패스_839" d="M298.137 642.345h-3.167a.745.745 0 0 1-.745-.745v-1.2a.744.744 0 0 1 .745-.745h3.168a.744.744 0 0 1 .745.745v1.2a.745.745 0 0 1-.746.745zm-3.168-2.236a.3.3 0 0 0-.293.295v1.2a.3.3 0 0 0 .293.295h3.168a.3.3 0 0 0 .293-.295v-1.2a.3.3 0 0 0-.293-.295z" class="cls-2" transform="translate(-294.225 -639.659)"/>
            </g>
            <g id="그룹_1435" transform="translate(6.649 .417)">
                <path id="패스_840" d="M299.891 638.784a.736.736 0 0 1-.674-.424l-1.355-2.862a.729.729 0 0 1-.03-.573.738.738 0 0 1 .385-.422l1.079-.511a.749.749 0 0 1 .995.353l1.355 2.862a.747.747 0 0 1-.353.995l-1.081.511a.771.771 0 0 1-.321.071zm-.278-4.413a.28.28 0 0 0-.125.03l-1.079.512a.3.3 0 0 0-.153.166.288.288 0 0 0 .015.226l1.355 2.862a.3.3 0 0 0 .166.149.291.291 0 0 0 .226-.013l1.081-.511a.293.293 0 0 0 .138-.39l-1.359-2.861a.29.29 0 0 0-.265-.17z" class="cls-2" transform="translate(-297.787 -633.921)"/>
            </g>
            <g id="그룹_1436" transform="translate(3.052 2.916)">
                <path id="패스_841" d="M298.847 639.835a.739.739 0 0 1-.526-.219l-2.242-2.24a.732.732 0 0 1-.218-.525.743.743 0 0 1 .218-.528l.847-.846a.742.742 0 0 1 1.053 0l2.24 2.24a.732.732 0 0 1 .218.524.743.743 0 0 1-.218.528l-.847.845a.738.738 0 0 1-.525.221zm-1.392-4.125a.3.3 0 0 0-.211.086l-.846.847a.294.294 0 0 0-.086.209.275.275 0 0 0 .086.2l2.24 2.244a.3.3 0 0 0 .416 0l.845-.848a.3.3 0 0 0 .086-.209.274.274 0 0 0-.086-.2l-2.238-2.244a.3.3 0 0 0-.207-.085z" class="cls-2" transform="translate(-295.86 -635.26)"/>
            </g>
            <g id="그룹_1437" transform="translate(.631 6.538)">
                <path id="패스_842" d="M298.052 641.312a.747.747 0 0 1-.371-.1l-2.744-1.585a.729.729 0 0 1-.347-.452.738.738 0 0 1 .073-.566l.6-1.038a.749.749 0 0 1 1.019-.275l2.744 1.585a.753.753 0 0 1 .274 1.017l-.6 1.036a.727.727 0 0 1-.45.347.784.784 0 0 1-.198.031zm-2.143-3.659a.289.289 0 0 0-.254.146l-.6 1.038a.282.282 0 0 0-.032.222.289.289 0 0 0 .138.175l2.744 1.585a.3.3 0 0 0 .222.032.281.281 0 0 0 .176-.136l.6-1.038a.293.293 0 0 0-.106-.4l-2.744-1.585a.3.3 0 0 0-.144-.039z" class="cls-2" transform="translate(-294.563 -637.2)"/>
            </g>
            <g id="그룹_1438" transform="translate(20.946 11.353)">
                <rect id="사각형_480" width="2.236" height="4.206" class="cls-2" rx=".278" transform="rotate(-90 1.118 1.118)"/>
            </g>
            <g id="그룹_1439" transform="translate(14.637 .469)">
                <rect id="사각형_481" width="2.236" height="4.206" class="cls-2" rx=".278" transform="rotate(-154.618 1.546 2.152)"/>
            </g>
            <g id="그룹_1440" transform="translate(17.439 2.82)">
                <rect id="사각형_482" width="2.236" height="4.206" class="cls-2" rx=".278" transform="rotate(-135 1.734 1.95)"/>
            </g>
            <g id="그룹_1441" transform="translate(19.736 6.575)">
                <rect id="사각형_483" width="2.236" height="4.206" class="cls-2" rx=".278" transform="rotate(-120 1.725 1.697)"/>
            </g>
            <g id="그룹_1442" transform="translate(11.464 20.736)">
                <rect id="사각형_484" width="2.236" height="4.206" class="cls-2" rx=".278"/>
            </g>
            <g id="그룹_1443" transform="translate(6.648 19.662)">
                <path id="패스_843" d="M299.615 649.094a.762.762 0 0 1-.319-.071l-1.081-.511a.749.749 0 0 1-.385-.422.736.736 0 0 1 .032-.573l1.355-2.862a.756.756 0 0 1 .993-.356l1.083.517a.74.74 0 0 1 .383.418.749.749 0 0 1-.026.575l-1.359 2.862a.735.735 0 0 1-.676.424zm.28-4.413a.288.288 0 0 0-.265.168l-1.359 2.861a.288.288 0 0 0-.015.226.3.3 0 0 0 .151.164l1.083.511a.307.307 0 0 0 .226.013.279.279 0 0 0 .162-.149l1.363-2.862a.3.3 0 0 0 .007-.226.285.285 0 0 0-.147-.164l-1.081-.515a.316.316 0 0 0-.125-.027z" class="cls-2" transform="translate(-297.787 -644.231)"/>
            </g>
            <g id="그룹_1444" transform="translate(3.16 17.555)">
                <path id="패스_844" d="M297.51 647.679a.728.728 0 0 1-.525-.219l-.847-.844a.749.749 0 0 1 0-1.055l2.242-2.24a.738.738 0 0 1 1.051 0l.851.846a.749.749 0 0 1 0 1.053l-2.242 2.24a.728.728 0 0 1-.53.219zm1.391-4.124a.306.306 0 0 0-.207.084l-2.24 2.242a.292.292 0 0 0 0 .414l.846.847a.3.3 0 0 0 .205.086.3.3 0 0 0 .207-.086l2.24-2.242a.292.292 0 0 0 0-.414l-.846-.846a.3.3 0 0 0-.206-.085z" class="cls-2" transform="translate(-295.918 -643.102)"/>
            </g>
            <g id="그룹_1445" transform="translate(.63 14.29)">
                <path id="패스_845" d="M295.909 645.467a.749.749 0 0 1-.648-.373l-.6-1.038a.747.747 0 0 1 .274-1.019l2.744-1.583a.744.744 0 0 1 1.017.276l.6 1.034a.752.752 0 0 1-.274 1.019l-2.744 1.585a.771.771 0 0 1-.369.099zm2.143-3.659a.294.294 0 0 0-.146.039l-2.744 1.583a.29.29 0 0 0-.106.4l.6 1.038a.29.29 0 0 0 .4.106l2.744-1.585a.292.292 0 0 0 .106-.4l-.6-1.036a.278.278 0 0 0-.175-.138.346.346 0 0 0-.079-.007z" class="cls-2" transform="translate(-294.563 -641.353)"/>
            </g>
            <g id="그룹_1446" transform="translate(14.637 19.714)">
                <rect id="사각형_485" width="2.236" height="4.206" class="cls-2" rx=".278" transform="rotate(154.618 1.484 2.33)"/>
            </g>
            <g id="그룹_1447" transform="translate(17.439 17.566)">
                <rect id="사각형_486" width="2.236" height="4.206" class="cls-2" rx=".278" transform="rotate(135 1.662 2.43)"/>
            </g>
            <g id="그룹_1448" transform="translate(19.845 14.638)">
                <rect id="사각형_487" width="2.236" height="4.206" class="cls-2" rx=".278" transform="rotate(120 1.773 2.426)"/>
            </g>
        </g>
        <g id="그룹_1451" transform="translate(303.834 641.654)">
            <g id="그룹_1450">
                <path id="패스_846" d="M299.373 643.6a3.639 3.639 0 0 1 .09-.9 1.19 1.19 0 0 1 .319-.59 1.321 1.321 0 0 1 .566-.316 3.116 3.116 0 0 1 .883-.1h1.721a3.258 3.258 0 0 0 .534-.034.532.532 0 0 0 .315-.125.515.515 0 0 0 .159-.282 2.8 2.8 0 0 0 .034-.5v-.635a2.012 2.012 0 0 0-.056-.5.708.708 0 0 0-.181-.282.747.747 0 0 0-.34-.138c-.147-.011-.319-.022-.511-.022h-3.192v-1.216h3.67a5.257 5.257 0 0 1 .917.069 1.511 1.511 0 0 1 .588.25 1.142 1.142 0 0 1 .33.532 3.83 3.83 0 0 1 .09.873v1.165a6.256 6.256 0 0 1-.078 1.01 1.34 1.34 0 0 1-.284.631 1.1 1.1 0 0 1-.59.33 3.737 3.737 0 0 1-.95.1h-1.652a3.257 3.257 0 0 0-.545.036.6.6 0 0 0-.329.134.561.561 0 0 0-.147.319 2.321 2.321 0 0 0-.045.53v1.826h4.62v1.221h-5.934z" class="cls-2" transform="translate(-299.373 -637.96)"/>
            </g>
        </g>
    </g>
</svg>
