<svg xmlns="http://www.w3.org/2000/svg" id="ico_meditation_01" width="80" height="50" viewBox="0 0 80 50">
    <defs>
    </defs>
    <g id="그룹_1425" transform="translate(-161.608 -628.898)">
        <g id="그룹_1405" transform="translate(184.548 641.4)">
            <g id="그룹_1404">
                <g id="그룹_1403">
                    <g id="그룹_1400" transform="translate(0 9.649)">
                        <g id="그룹_1399">
                            <path id="패스_823" d="M209.3 657.341a9.1 9.1 0 0 1-3.135.407h-11.133q-1.92 2.931-3.842 5.857a5.385 5.385 0 0 1-2.034 2.034 9.172 9.172 0 0 1-3.131.407h-4.18q4.031-6.155 8.07-12.312a5.394 5.394 0 0 1 2.034-2.032 9.15 9.15 0 0 1 3.133-.407h11.138l3.838-5.859a5.43 5.43 0 0 1 2.034-2.032 9.15 9.15 0 0 1 3.135-.407h4.182q-4.033 6.158-8.072 12.31a5.406 5.406 0 0 1-2.037 2.034z" class="cls-2" transform="translate(-181.845 -642.997)"/>
                        </g>
                    </g>
                    <g id="그룹_1402" transform="translate(31.733)">
                        <g id="그룹_1401">
                            <path id="패스_824" d="M202.68 646.1q-3.832 0-3.829-3.887v-.554q0-3.832 3.829-3.829h.554q3.835 0 3.829 3.829v.554q0 3.888-3.829 3.887z" class="cls-2" transform="translate(-198.851 -637.826)"/>
                        </g>
                    </g>
                </g>
            </g>
        </g>
        <g id="그룹_1422" transform="translate(178.724 633.7)">
            <g id="그룹_1406" transform="translate(11.456)">
                <rect id="사각형_474" width="2.235" height="4.204" class="cls-2" rx=".278"/>
            </g>
            <g id="그룹_1407" transform="translate(0 11.122)">
                <path id="패스_825" d="M182.633 642.345h-3.165a.744.744 0 0 1-.745-.745v-1.2a.743.743 0 0 1 .745-.745h3.165a.743.743 0 0 1 .743.745v1.2a.744.744 0 0 1-.743.745zm-3.165-2.235a.3.3 0 0 0-.295.295v1.2a.3.3 0 0 0 .295.295h3.165a.3.3 0 0 0 .293-.295v-1.2a.3.3 0 0 0-.293-.295z" class="cls-2" transform="translate(-178.724 -639.66)"/>
            </g>
            <g id="그룹_1408" transform="translate(6.645 .416)">
                <path id="패스_826" d="M184.388 638.785a.728.728 0 0 1-.252-.043.737.737 0 0 1-.422-.381l-1.357-2.861a.745.745 0 0 1 .356-.995l1.077-.511a.744.744 0 0 1 .995.353l1.357 2.86a.747.747 0 0 1-.355.993l-1.08.513a.764.764 0 0 1-.319.072zm-.278-4.411a.287.287 0 0 0-.127.03l-1.077.511a.3.3 0 0 0-.153.166.289.289 0 0 0 .013.226l1.357 2.861a.291.291 0 0 0 .39.136l1.08-.513a.293.293 0 0 0 .14-.388l-1.358-2.86a.29.29 0 0 0-.265-.17z" class="cls-2" transform="translate(-182.285 -633.922)"/>
            </g>
            <g id="그룹_1409" transform="translate(3.049 2.915)">
                <path id="패스_827" d="M183.342 639.836a.732.732 0 0 1-.524-.218l-2.241-2.241a.728.728 0 0 1-.218-.523.74.74 0 0 1 .218-.528l.847-.845a.741.741 0 0 1 1.052 0l2.237 2.239a.741.741 0 0 1 0 1.051l-.845.847a.739.739 0 0 1-.526.218zm-1.39-4.124a.293.293 0 0 0-.211.086l-.845.845a.3.3 0 0 0-.086.211.281.281 0 0 0 .086.2l2.239 2.241a.3.3 0 0 0 .414 0l.847-.845a.306.306 0 0 0 .086-.211.288.288 0 0 0-.086-.2l-2.237-2.241a.291.291 0 0 0-.207-.086z" class="cls-2" transform="translate(-180.358 -635.261)"/>
            </g>
            <g id="그룹_1410" transform="translate(.629 6.536)">
                <path id="패스_828" d="M182.549 641.31a.747.747 0 0 1-.371-.1l-2.743-1.584a.744.744 0 0 1-.274-1.015l.6-1.039a.75.75 0 0 1 1.019-.272l2.743 1.582a.751.751 0 0 1 .272 1.017l-.6 1.036a.723.723 0 0 1-.448.347.794.794 0 0 1-.198.028zm-2.142-3.657a.289.289 0 0 0-.254.146l-.6 1.038a.3.3 0 0 0-.032.222.289.289 0 0 0 .138.175l2.743 1.584a.311.311 0 0 0 .222.032.281.281 0 0 0 .175-.136l.6-1.037a.3.3 0 0 0-.106-.4l-2.743-1.584a.3.3 0 0 0-.144-.04z" class="cls-2" transform="translate(-179.061 -637.202)"/>
            </g>
            <g id="그룹_1411" transform="translate(20.933 11.347)">
                <rect id="사각형_475" width="2.235" height="4.204" class="cls-2" rx=".278" transform="rotate(-90 1.118 1.117)"/>
            </g>
            <g id="그룹_1412" transform="translate(14.628 .469)">
                <rect id="사각형_476" width="2.235" height="4.204" class="cls-2" rx=".278" transform="rotate(-154.618 1.545 2.15)"/>
            </g>
            <g id="그룹_1413" transform="translate(17.428 2.819)">
                <rect id="사각형_477" width="2.235" height="4.204" class="cls-2" rx=".278" transform="rotate(-135 1.733 1.95)"/>
            </g>
            <g id="그룹_1414" transform="translate(19.724 6.571)">
                <rect id="사각형_478" width="2.235" height="4.204" class="cls-2" rx=".278" transform="rotate(-120 1.724 1.696)"/>
            </g>
            <g id="그룹_1415" transform="translate(11.231 20.499)">
                <path id="패스_829" d="M186.686 649.339h-1.2a.745.745 0 0 1-.743-.743v-3.167a.745.745 0 0 1 .743-.745h1.2a.743.743 0 0 1 .741.745v3.171a.743.743 0 0 1-.741.739zm-1.2-4.2a.293.293 0 0 0-.291.293v3.168a.292.292 0 0 0 .291.293h1.2a.292.292 0 0 0 .291-.293v-3.167a.293.293 0 0 0-.291-.293z" class="cls-2" transform="translate(-184.743 -644.685)"/>
            </g>
            <g id="그룹_1416" transform="translate(6.644 19.651)">
                <path id="패스_830" d="M184.112 649.092a.777.777 0 0 1-.321-.071l-1.079-.513a.741.741 0 0 1-.355-.993l1.357-2.861a.752.752 0 0 1 .991-.356l1.082.517a.739.739 0 0 1 .383.418.749.749 0 0 1-.026.575l-1.358 2.86a.749.749 0 0 1-.422.381.731.731 0 0 1-.252.043zm.278-4.411a.29.29 0 0 0-.265.168l-1.358 2.86a.286.286 0 0 0 .136.388l1.082.513a.3.3 0 0 0 .226.013.29.29 0 0 0 .164-.151l1.36-2.859a.295.295 0 0 0-.14-.39l-1.08-.515a.307.307 0 0 0-.125-.027z" class="cls-2" transform="translate(-182.285 -644.23)"/>
            </g>
            <g id="그룹_1417" transform="translate(3.157 17.547)">
                <path id="패스_831" d="M182.006 647.677a.728.728 0 0 1-.524-.218l-.847-.843a.749.749 0 0 1 0-1.054l2.239-2.239a.744.744 0 0 1 1.052 0l.849.845a.748.748 0 0 1 0 1.052l-2.239 2.239a.729.729 0 0 1-.53.218zm1.392-4.122a.306.306 0 0 0-.207.084l-2.239 2.241a.292.292 0 0 0 0 .414l.845.845a.29.29 0 0 0 .205.088.3.3 0 0 0 .209-.088l2.239-2.239a.3.3 0 0 0 0-.414l-.847-.843a.29.29 0 0 0-.203-.088z" class="cls-2" transform="translate(-180.416 -643.103)"/>
            </g>
            <g id="그룹_1418" transform="translate(.628 14.283)">
                <path id="패스_832" d="M180.407 645.465a.75.75 0 0 1-.648-.373l-.6-1.037a.747.747 0 0 1 .274-1.019l2.743-1.581a.723.723 0 0 1 .567-.073.712.712 0 0 1 .448.349l.6 1.034a.75.75 0 0 1-.272 1.017l-2.743 1.584a.75.75 0 0 1-.369.099zm2.142-3.657a.279.279 0 0 0-.146.041l-2.743 1.581a.291.291 0 0 0-.106.4l.6 1.039a.293.293 0 0 0 .4.1l2.743-1.582a.3.3 0 0 0 .106-.4l-.6-1.036a.282.282 0 0 0-.175-.136.263.263 0 0 0-.079-.008z" class="cls-2" transform="translate(-179.061 -641.354)"/>
            </g>
            <g id="그룹_1419" transform="translate(14.573 19.652)">
                <path id="패스_833" d="M188.637 649.092a.732.732 0 0 1-.252-.043.743.743 0 0 1-.422-.381l-1.357-2.86a.742.742 0 0 1 .355-.993l1.079-.513a.749.749 0 0 1 .995.353l1.357 2.861a.74.74 0 0 1-.356.993l-1.077.513a.777.777 0 0 1-.322.07zm-.278-4.411a.286.286 0 0 0-.127.03l-1.079.513a.292.292 0 0 0-.138.39l1.358 2.859a.29.29 0 0 0 .164.151.294.294 0 0 0 .224-.013l1.08-.513a.284.284 0 0 0 .153-.162.3.3 0 0 0-.011-.226l-1.358-2.861a.3.3 0 0 0-.266-.168z" class="cls-2" transform="translate(-186.534 -644.231)"/>
            </g>
            <g id="그룹_1420" transform="translate(17.418 17.547)">
                <path id="패스_834" d="M191.039 647.676a.728.728 0 0 1-.524-.218l-2.239-2.239a.75.75 0 0 1 0-1.053l.851-.847a.747.747 0 0 1 1.052 0l2.239 2.239a.748.748 0 0 1 0 1.052l-.851.845a.72.72 0 0 1-.522.218zm-2.444-3.191a.3.3 0 0 0 0 .414l2.239 2.239a.3.3 0 0 0 .207.088.283.283 0 0 0 .2-.088l.849-.847a.292.292 0 0 0 0-.412l-2.239-2.241a.3.3 0 0 0-.414 0z" class="cls-2" transform="translate(-188.059 -643.103)"/>
            </g>
            <g id="그룹_1421" transform="translate(19.796 14.595)">
                <path id="패스_835" d="M192.821 645.63a.753.753 0 0 1-.373-.1l-2.741-1.582a.752.752 0 0 1-.349-.452.74.74 0 0 1 .077-.565l.6-1.039a.749.749 0 0 1 1.019-.272l2.741 1.582a.745.745 0 0 1 .274 1.019l-.6 1.036a.749.749 0 0 1-.453.349.833.833 0 0 1-.195.024zm-2.142-3.657a.291.291 0 0 0-.254.146l-.6 1.037a.3.3 0 0 0-.03.224.282.282 0 0 0 .136.177l2.741 1.58a.3.3 0 0 0 .224.032.282.282 0 0 0 .175-.138l.6-1.036a.3.3 0 0 0 .032-.222.281.281 0 0 0-.138-.177l-2.741-1.584a.3.3 0 0 0-.145-.039z" class="cls-2" transform="translate(-189.333 -641.521)"/>
            </g>
        </g>
        <g id="그룹_1424" transform="translate(190.052 641.765)">
            <g id="그룹_1423">
                <path id="패스_836" d="M187.273 647.044h-1.314v-7.007a3.7 3.7 0 0 0-.022-.409.561.561 0 0 0-.112-.224.692.692 0 0 0-.25-.1c-.112 0-.246-.013-.407-.013h-.373v-1.267h.758a9.093 9.093 0 0 1 .918.047 1.032 1.032 0 0 1 .521.2.893.893 0 0 1 .226.463 5.418 5.418 0 0 1 .056.851z" class="cls-2" transform="translate(-184.795 -638.022)"/>
            </g>
        </g>
    </g>
</svg>
