<svg xmlns="http://www.w3.org/2000/svg" id="ico_meditation_04" width="80" height="50" viewBox="0 0 80 50">
    <defs>
    </defs>
    <g id="그룹_1506" transform="translate(-507.877 -628.794)">
        <g id="그룹_1486" transform="translate(530.723 641.311)">
            <g id="그룹_1485">
                <g id="그룹_1484">
                    <g id="그룹_1481" transform="translate(0 9.637)">
                        <g id="그룹_1480">
                            <path id="패스_853" d="M555.58 657.311a9.049 9.049 0 0 1-3.13.405h-11.123l-3.839 5.852a5.383 5.383 0 0 1-2.03 2.031 9.178 9.178 0 0 1-3.127.405h-4.178q4.027-6.147 8.061-12.3a5.411 5.411 0 0 1 2.031-2.03 9.146 9.146 0 0 1 3.13-.407H552.5q1.92-2.925 3.835-5.85a5.414 5.414 0 0 1 2.031-2.031 9.146 9.146 0 0 1 3.13-.405h4.176q-4.027 6.15-8.061 12.294a5.39 5.39 0 0 1-2.031 2.036z" class="cls-2" transform="translate(-528.154 -642.986)"/>
                        </g>
                    </g>
                    <g id="그룹_1483" transform="translate(31.696)">
                        <g id="그룹_1482">
                            <path id="패스_854" d="M549.11 646.036q-3.83 0-3.824-3.881v-.555q0-3.827 3.824-3.824h.553q3.827 0 3.824 3.824v.553q0 3.882-3.824 3.881z" class="cls-2" transform="translate(-545.286 -637.777)"/>
                        </g>
                    </g>
                </g>
            </g>
        </g>
        <g id="그룹_1503" transform="translate(525.132 633.62)">
            <g id="그룹_1487" transform="translate(11.218)">
                <rect id="사각형_501" width="2.232" height="4.199" class="cls-2" rx=".28"/>
            </g>
            <g id="그룹_1488" transform="translate(0 11.333)">
                <rect id="사각형_502" width="2.232" height="4.199" class="cls-2" rx=".28" transform="rotate(-90 1.116 1.116)"/>
            </g>
            <g id="그룹_1489" transform="translate(6.467 .468)">
                <rect id="사각형_503" width="2.232" height="4.199" class="cls-2" rx=".28" transform="rotate(-25.382 2.125 .478)"/>
            </g>
            <g id="그룹_1490" transform="translate(2.833 2.922)">
                <rect id="사각형_504" width="2.232" height="4.199" class="cls-2" rx=".28" transform="rotate(-45 1.905 .789)"/>
            </g>
            <g id="그룹_1491" transform="translate(.441 6.563)">
                <rect id="사각형_505" width="2.232" height="4.199" class="cls-2" rx=".28" transform="rotate(-60 1.674 .967)"/>
            </g>
            <g id="그룹_1492" transform="translate(20.683 11.333)">
                <rect id="사각형_506" width="2.232" height="4.199" class="cls-2" rx=".28" transform="rotate(-90 1.116 1.116)"/>
            </g>
            <g id="그룹_1493" transform="translate(14.385 .468)">
                <rect id="사각형_507" width="2.232" height="4.199" class="cls-2" rx=".28" transform="rotate(-154.618 1.543 2.148)"/>
            </g>
            <g id="그룹_1494" transform="translate(17.182 2.815)">
                <rect id="사각형_508" width="2.232" height="4.199" class="cls-2" rx=".28" transform="rotate(-135 1.73 1.947)"/>
            </g>
            <g id="그룹_1495" transform="translate(19.476 6.563)">
                <rect id="사각형_509" width="2.232" height="4.199" class="cls-2" rx=".28" transform="rotate(-120 1.722 1.694)"/>
            </g>
            <g id="그룹_1496" transform="translate(11.218 20.699)">
                <rect id="사각형_510" width="2.232" height="4.199" class="cls-2" rx=".28"/>
            </g>
            <g id="그룹_1497" transform="translate(6.467 19.679)">
                <rect id="사각형_511" width="2.232" height="4.199" class="cls-2" rx=".28" transform="rotate(25.382 .9 3.997)"/>
            </g>
            <g id="그룹_1498" transform="translate(2.939 17.535)">
                <rect id="사각형_512" width="2.232" height="4.199" class="cls-2" rx=".28" transform="rotate(45 1.484 3.584)"/>
            </g>
            <g id="그룹_1499" transform="translate(.441 14.302)">
                <rect id="사각형_513" width="2.232" height="4.199" class="cls-2" rx=".28" transform="rotate(60 1.818 3.149)"/>
            </g>
            <g id="그룹_1500" transform="translate(14.385 19.679)">
                <rect id="사각형_514" width="2.232" height="4.199" class="cls-2" rx=".28" transform="rotate(154.618 1.48 2.326)"/>
            </g>
            <g id="그룹_1501" transform="translate(17.182 17.535)">
                <rect id="사각형_515" width="2.232" height="4.199" class="cls-2" rx=".28" transform="rotate(135 1.659 2.426)"/>
            </g>
            <g id="그룹_1502" transform="translate(19.584 14.612)">
                <rect id="사각형_516" width="2.232" height="4.199" class="cls-2" rx=".28" transform="rotate(120 1.77 2.421)"/>
            </g>
        </g>
        <g id="그룹_1505" transform="translate(534.249 641.564)">
            <g id="그룹_1504">
                <path id="패스_855" d="M534.909 637.914a.73.73 0 0 1 .51.146.8.8 0 0 1 .124.455v5.185h1.164v1.221h-1.164v2h-1.313v-2h-4.17v-1.231l4.17-5.776zm-.679 5.789v-3.833l-2.688 3.82z" class="cls-2" transform="translate(-530.06 -637.914)"/>
            </g>
        </g>
    </g>
</svg>
