<svg xmlns="http://www.w3.org/2000/svg" id="ico_meditation_03" width="80" height="50" viewBox="0 0 80 50">
    <defs>
    </defs>
    <g id="그룹_1479" transform="translate(-392.519 -628.849)">
        <g id="그룹_1459" transform="translate(415.321 641.332)">
            <g id="그룹_1458">
                <g id="그룹_1457">
                    <g id="그룹_1454" transform="translate(0 9.664)">
                        <g id="그룹_1453">
                            <path id="패스_847" d="M440.237 657.35a9.069 9.069 0 0 1-3.139.406h-11.153l-3.849 5.868a5.391 5.391 0 0 1-2.037 2.037 9.2 9.2 0 0 1-3.135.406h-4.187q4.038-6.164 8.083-12.329a5.4 5.4 0 0 1 2.037-2.035 9.169 9.169 0 0 1 3.139-.408h11.153q1.926-2.933 3.846-5.866a5.439 5.439 0 0 1 2.035-2.037 9.173 9.173 0 0 1 3.139-.406h4.189q-4.038 6.167-8.085 12.327a5.414 5.414 0 0 1-2.036 2.037z" class="cls-2" transform="translate(-412.736 -642.986)"/>
                        </g>
                    </g>
                    <g id="그룹_1456" transform="translate(31.781)">
                        <g id="그룹_1455">
                            <path id="패스_848" d="M433.7 646.059q-3.837 0-3.835-3.892v-.555q0-3.837 3.835-3.835h.555q3.84 0 3.835 3.835v.555q0 3.893-3.835 3.892z" class="cls-2" transform="translate(-429.867 -637.777)"/>
                        </g>
                    </g>
                </g>
            </g>
        </g>
        <g id="그룹_1476" transform="translate(409.714 633.62)">
            <g id="그룹_1460" transform="translate(11.249)">
                <rect id="사각형_488" width="2.238" height="4.21" class="cls-2" rx=".28"/>
            </g>
            <g id="그룹_1461" transform="translate(0 11.364)">
                <rect id="사각형_489" width="2.238" height="4.21" class="cls-2" rx=".28" transform="rotate(-90 1.119 1.119)"/>
            </g>
            <g id="그룹_1462" transform="translate(6.43 .415)">
                <path id="패스_849" d="M415.286 638.716a.691.691 0 0 1-.252-.044.732.732 0 0 1-.423-.384l-1.358-2.862a.744.744 0 0 1 .354-1l1.082-.512a.744.744 0 0 1 .994.352l1.362 2.868a.751.751 0 0 1-.356.994l-1.082.514a.785.785 0 0 1-.321.074zm-.276-4.419a.3.3 0 0 0-.126.03l-1.082.514a.292.292 0 0 0-.154.165.3.3 0 0 0 .011.224l1.362 2.865a.294.294 0 0 0 .165.152.3.3 0 0 0 .226-.013l1.082-.514a.294.294 0 0 0 .139-.39l-1.36-2.866a.293.293 0 0 0-.165-.15.28.28 0 0 0-.098-.014z" class="cls-2" transform="translate(-413.18 -633.844)"/>
            </g>
            <g id="그룹_1463" transform="translate(2.829 2.92)">
                <path id="패스_850" d="M414.226 639.774a.732.732 0 0 1-.525-.219l-2.243-2.243a.739.739 0 0 1 0-1.052l.846-.848a.747.747 0 0 1 1.056 0l2.241 2.241a.745.745 0 0 1 0 1.055l-.846.846a.741.741 0 0 1-.529.22zm-1.4-4.13a.3.3 0 0 0-.208.087l-.848.846a.3.3 0 0 0 0 .417l2.243 2.243a.3.3 0 0 0 .416 0l.848-.852a.282.282 0 0 0 .087-.2.3.3 0 0 0-.087-.21l-2.241-2.241a.293.293 0 0 0-.205-.089z" class="cls-2" transform="translate(-411.239 -635.194)"/>
            </g>
            <g id="그룹_1464" transform="translate(.406 6.544)">
                <path id="패스_851" d="M413.421 641.265a.726.726 0 0 1-.369-.1l-2.747-1.584a.751.751 0 0 1-.273-1.02l.6-1.037a.741.741 0 0 1 1.018-.274l2.747 1.584a.749.749 0 0 1 .275 1.018l-.6 1.041a.742.742 0 0 1-.453.347.791.791 0 0 1-.198.025zm-2.145-3.662a.377.377 0 0 0-.076.007.285.285 0 0 0-.176.137l-.6 1.037a.293.293 0 0 0 .106.4l2.747 1.586a.276.276 0 0 0 .221.031.286.286 0 0 0 .176-.137l.6-1.039a.3.3 0 0 0-.106-.4l-2.747-1.584a.3.3 0 0 0-.144-.041z" class="cls-2" transform="translate(-409.933 -637.148)"/>
            </g>
            <g id="그룹_1465" transform="translate(20.74 11.363)">
                <rect id="사각형_490" width="2.238" height="4.21" class="cls-2" rx=".28" transform="rotate(-90 1.119 1.119)"/>
            </g>
            <g id="그룹_1466" transform="translate(14.425 .47)">
                <rect id="사각형_491" width="2.238" height="4.21" class="cls-2" rx=".28" transform="rotate(-154.618 1.547 2.154)"/>
            </g>
            <g id="그룹_1467" transform="translate(17.229 2.823)">
                <rect id="사각형_492" width="2.238" height="4.21" class="cls-2" rx=".28" transform="rotate(-135 1.736 1.952)"/>
            </g>
            <g id="그룹_1468" transform="translate(19.529 6.581)">
                <rect id="사각형_493" width="2.238" height="4.21" class="cls-2" rx=".28" transform="rotate(-120 1.727 1.698)"/>
            </g>
            <g id="그룹_1469" transform="translate(11.249 20.755)">
                <rect id="사각형_494" width="2.238" height="4.21" class="cls-2" rx=".28"/>
            </g>
            <g id="그룹_1470" transform="translate(6.484 19.733)">
                <rect id="사각형_495" width="2.238" height="4.21" class="cls-2" rx=".28" transform="rotate(25.382 .902 4.008)"/>
            </g>
            <g id="그룹_1471" transform="translate(2.947 17.583)">
                <rect id="사각형_496" width="2.238" height="4.21" class="cls-2" rx=".28" transform="rotate(45 1.488 3.594)"/>
            </g>
            <g id="그룹_1472" transform="translate(.442 14.341)">
                <rect id="사각형_497" width="2.238" height="4.21" class="cls-2" rx=".28" transform="rotate(60 1.823 3.158)"/>
            </g>
            <g id="그룹_1473" transform="translate(14.425 19.732)">
                <rect id="사각형_498" width="2.238" height="4.21" class="cls-2" rx=".28" transform="rotate(154.618 1.485 2.333)"/>
            </g>
            <g id="그룹_1474" transform="translate(17.229 17.583)">
                <rect id="사각형_499" width="2.238" height="4.21" class="cls-2" rx=".28" transform="rotate(135 1.663 2.433)"/>
            </g>
            <g id="그룹_1475" transform="translate(19.638 14.652)">
                <rect id="사각형_500" width="2.238" height="4.21" class="cls-2" rx=".28" transform="rotate(120 1.775 2.428)"/>
            </g>
        </g>
        <g id="그룹_1478" transform="translate(419.105 641.586)">
            <g id="그룹_1477">
                <path id="패스_852" d="M415 640.068v-.429a2.7 2.7 0 0 1 .113-.874 1.063 1.063 0 0 1 .362-.523 1.461 1.461 0 0 1 .635-.26 5.459 5.459 0 0 1 .929-.069h1.861a2.335 2.335 0 0 1 1.564.43 1.859 1.859 0 0 1 .475 1.406v1.051a4.942 4.942 0 0 1-.08.9 1.42 1.42 0 0 1-.4.7 1.674 1.674 0 0 1 .384.634 3.036 3.036 0 0 1 .091.747v1.4a1.884 1.884 0 0 1-.406 1.362 1.674 1.674 0 0 1-1.2.406H416.7a2.153 2.153 0 0 1-1.506-.417 1.751 1.751 0 0 1-.419-1.295v-.657h1.315v.215a1.778 1.778 0 0 0 .045.466.422.422 0 0 0 .16.284.6.6 0 0 0 .327.135 2.539 2.539 0 0 0 .558.046h1.063a6.032 6.032 0 0 0 .714-.024.84.84 0 0 0 .421-.113.533.533 0 0 0 .2-.295 3.122 3.122 0 0 0 .046-.555v-.612a3.682 3.682 0 0 0-.035-.545 1.027 1.027 0 0 0-.158-.35.789.789 0 0 0-.319-.182 2.5 2.5 0 0 0-.555-.057h-2.085v-1.223h2.107a1.76 1.76 0 0 0 .544-.057.506.506 0 0 0 .319-.171.6.6 0 0 0 .146-.317 2.97 2.97 0 0 0 .035-.51v-.519a1.215 1.215 0 0 0-.228-.84 1.317 1.317 0 0 0-.839-.215h-1.044a2.47 2.47 0 0 0-.916.124c-.193.091-.284.284-.284.59v.215z" class="cls-2" transform="translate(-414.776 -637.914)"/>
            </g>
        </g>
    </g>
</svg>
