<svg id="ico_brain" xmlns="http://www.w3.org/2000/svg" width="50" height="50" viewBox="0 0 50 50">
<!--    <defs>-->
<!--        <style>-->
<!--            .cls-2{fill:#fff}-->
<!--        </style>-->
<!--    </defs>-->
    <g id="ico_brain-2" data-name="ico_brain" transform="translate(4 1)">
        <path id="패스_23" data-name="패스 23" class="cls-2" d="M92.1 532.425a.711.711 0 0 0-.711-.709h-6.3l-1.494-9.547a.711.711 0 0 0-1.4-.01l-2.126 12.287-1.579-6.163a.707.707 0 0 0-.676-.534H77.8a.7.7 0 0 0-.683.514l-.949 3.318h-6.24a.709.709 0 1 0 0 1.418H76.7a.708.708 0 0 0 .68-.512l.378-1.316 1.75 6.837a.71.71 0 0 0 .688.532v-.069h.01v.069h.018a.712.712 0 0 0 .671-.589l1.955-11.307.924 5.892a.705.705 0 0 0 .7.6h6.908a.71.71 0 0 0 .711-.709" transform="translate(-58.724 -514.674)"/>
        <path id="패스_24" data-name="패스 24" class="cls-2" d="M99.4 524.172a18.656 18.656 0 0 0-11.7-6.605 21.391 21.391 0 0 0-2.376-.164.456.456 0 0 0-.179-.034.483.483 0 0 0-.128.02.88.88 0 0 0-.18.008c-7.025.034-13.422 3.582-16.3 9.035a21.663 21.663 0 0 0-1.658 6.672c-.051.361-.1.711-.151 1.037a18.3 18.3 0 0 1-.842 3.5c-.554 1.537-1.18 3.082-1.784 4.577l-.052.128c-.311.769-.632 1.562-.944 2.346a2.861 2.861 0 0 0 .092 2.776 2.83 2.83 0 0 0 2.51 1.122H67.246c.039.711.082 1.221.11 1.553l.021.257a40.188 40.188 0 0 0 .651 4.909c.859 4.216 3.962 4.9 6.885 5.009.518.02.852.021 1.2.018v4.134a.409.409 0 0 0 .41.41h1.39c1.237.011 3.018.018 5.329.018 2.2 0 4.872-.007 8.008-.016h5.434a.408.408 0 0 0 .41-.411v-.614a1376.3 1376.3 0 0 1 0-13.307.869.869 0 0 1 .154-.42 19.766 19.766 0 0 0 3.418-3.921 18.34 18.34 0 0 0 3.213-10.4 17.933 17.933 0 0 0-4.479-11.637zM94.8 562.6h-3.566c-5.846.023-10.271.021-12.85 0v-3.42a1.14 1.14 0 0 0-1.139-1.141c-.36 0-.634 0-.9.008-.439.007-.757.008-1.347-.013-3.122-.121-4.273-.895-4.74-3.184a38.977 38.977 0 0 1-.613-4.626l-.02-.275a50.516 50.516 0 0 1-.157-2.553 1.137 1.137 0 0 0-1.139-1.095h-2.606a1.466 1.466 0 0 1-.632-.1 1.217 1.217 0 0 1 .131-.675c.3-.764.614-1.537.936-2.33.631-1.557 1.285-3.167 1.87-4.785a20.561 20.561 0 0 0 .952-3.933c.049-.334.1-.692.152-1.063a20.118 20.118 0 0 1 1.419-5.924c2.505-4.75 8.15-7.819 14.4-7.824h.01a.256.256 0 0 1 .034 0c.07.007.136.01.192.01a19.543 19.543 0 0 1 2.207.147 16.379 16.379 0 0 1 10.261 5.82 15.678 15.678 0 0 1 3.931 10.164 16.082 16.082 0 0 1-2.82 9.117v.007a17.583 17.583 0 0 1-3.038 3.487 3 3 0 0 0-.919 2.1c-.025 2.298-.026 6.358-.009 12.081z" transform="translate(-62.799 -517.369)"/>
    </g>
</svg>
