<svg id="ico_mental" xmlns="http://www.w3.org/2000/svg" width="50" height="50" viewBox="0 0 50 50">
    <g id="그룹_1217" data-name="그룹 1217" transform="translate(-59.041 -629.057)">
        <path id="패스_677" data-name="패스 677" class="cls-2" d="M81.246 632.865a.5.5 0 0 0-.708.7l.7.7-.55.018a12.233 12.233 0 0 0-11.121 8.138h1.7a10.639 10.639 0 0 1 9.369-6.555l.606-.026-.709.711a.5.5 0 0 0 .008.691.51.51 0 0 0 .706 0l1.835-1.837a.5.5 0 0 0 0-.7z" transform="translate(4.218 1.703)"/>
        <path id="패스_678" data-name="패스 678" class="cls-2" d="m88.188 644.1-.635.757-.064-.545a12.237 12.237 0 0 0-9.066-10.38l.145 1.691a10.635 10.635 0 0 1 7.338 8.77l.077.6-.769-.645a.489.489 0 0 0-.308-.109.5.5 0 0 0-.319.877l1.99 1.672a.507.507 0 0 0 .361.115.5.5 0 0 0 .339-.176l1.672-1.988a.5.5 0 1 0-.76-.642z" transform="translate(9.936 2.487)"/>
        <path id="패스_679" data-name="패스 679" class="cls-2" d="m78.148 634.1.007.082c0-.026-.005-.052-.007-.082z" transform="translate(9.759 2.596)"/>
        <path id="패스_680" data-name="패스 680" class="cls-2" d="m77.489 650.156.693-.726a.5.5 0 0 0-.026-.691.49.49 0 0 0-.342-.137.5.5 0 0 0-.362.153l-1.794 1.88a.5.5 0 0 0 .018.7l1.88 1.793a.585.585 0 0 0 .356.138.5.5 0 0 0 .334-.856l-.718-.683.548-.03A12.232 12.232 0 0 0 89 643.307l-1.694.038a10.638 10.638 0 0 1-9.215 6.772z" transform="translate(8.061 8.543)"/>
        <path id="패스_681" data-name="패스 681" class="cls-2" d="m71.395 642.6-.046-.6.734.686a.493.493 0 0 0 .688-.033.5.5 0 0 0-.023-.7l-1.9-1.773a.438.438 0 0 0-.357-.135.493.493 0 0 0-.346.158l-1.773 1.9a.5.5 0 0 0 .023.7.5.5 0 0 0 .7-.021l.672-.724.036.547a12.239 12.239 0 0 0 8.522 10.833l-.059-1.694a10.637 10.637 0 0 1-6.871-9.144z" transform="translate(3.357 6.43)"/>
        <path id="패스_682" data-name="패스 682" class="cls-2" d="M99.645 636.889a18.633 18.633 0 0 0-11.7-6.606 21.529 21.529 0 0 0-2.379-.166.527.527 0 0 0-.2-.033.431.431 0 0 0-.1.018 1.217 1.217 0 0 0-.184.008c-7.029.036-13.425 3.583-16.3 9.04a21.5 21.5 0 0 0-1.661 6.67l-.15 1.039a18.228 18.228 0 0 1-.843 3.5c-.566 1.572-1.208 3.154-1.837 4.7-.313.769-.634 1.562-.943 2.347a2.6 2.6 0 0 0 2.6 3.9h1.538c.041.713.084 1.223.11 1.557l.023.255a40.32 40.32 0 0 0 .65 4.91c.858 4.216 3.962 4.9 6.887 5.009.517.02.849.025 1.2.018v4.135a.41.41 0 0 0 .41.41h1.391c1.281.012 3.118.018 5.437.018 2.212 0 4.864-.005 7.9-.016h5.435a.409.409 0 0 0 .29-.12.418.418 0 0 0 .119-.291v-.614c-.021-6.431-.021-10.908 0-13.308a.876.876 0 0 1 .156-.423 19.689 19.689 0 0 0 3.417-3.921 18.329 18.329 0 0 0 3.213-10.4 17.928 17.928 0 0 0-4.479-11.636zm-4.6 38.435h-3.564c-6.01.023-10.329.025-12.854 0v-3.42a1.14 1.14 0 0 0-1.139-1.141c-.36 0-.634 0-.96.008-.42.008-.733.008-1.292-.013-3.123-.12-4.275-.894-4.741-3.185a38.4 38.4 0 0 1-.611-4.627l-.023-.275a51.999 51.999 0 0 1-.156-2.55 1.136 1.136 0 0 0-1.141-1.1h-2.602a1.433 1.433 0 0 1-.635-.108 1.226 1.226 0 0 1 .133-.675c.306-.777.624-1.564.935-2.326l.044-.109c.617-1.523 1.254-3.1 1.825-4.68a20.531 20.531 0 0 0 .951-3.933c.049-.334.1-.693.155-1.063a20.154 20.154 0 0 1 1.417-5.926c2.507-4.749 8.151-7.819 14.454-7.824.069.006.133.01.189.01a19.479 19.479 0 0 1 2.209.147 16.371 16.371 0 0 1 10.263 5.82 15.675 15.675 0 0 1 3.931 10.166 16.093 16.093 0 0 1-2.82 9.121v.005a17.671 17.671 0 0 1-3.039 3.488 3.01 3.01 0 0 0-.92 2.1c-.021 2.303-.023 6.366-.005 12.09z"/>
    </g>
</svg>
