<svg id="ico_meditation" xmlns="http://www.w3.org/2000/svg" width="50" height="50" viewBox="0 0 50 50">
    <g id="그룹_1244" data-name="그룹 1244" transform="translate(-59.042 -629.057)">
        <path id="패스_683" data-name="패스 683" class="cls-2" d="M99.646 636.889a18.625 18.625 0 0 0-11.7-6.606 21.541 21.541 0 0 0-2.377-.166.457.457 0 0 0-.178-.033.407.407 0 0 0-.127.018 1.169 1.169 0 0 0-.181.008c-7.027.035-13.425 3.583-16.3 9.04a21.414 21.414 0 0 0-1.659 6.67c-.053.362-.1.713-.151 1.039a18.354 18.354 0 0 1-.843 3.5c-.566 1.572-1.208 3.154-1.837 4.706l-.081.2c-.286.7-.579 1.43-.863 2.146a2.607 2.607 0 0 0 2.6 3.9h1.536c.043.721.084 1.234.112 1.554l.021.259a40.421 40.421 0 0 0 .652 4.91c.858 4.215 3.962 4.9 6.885 5.009.518.02.849.023 1.2.018v4.135a.41.41 0 0 0 .41.41h1.391c1.281.012 3.119.018 5.439.018 2.212 0 4.864-.005 7.9-.016h5.435a.409.409 0 0 0 .29-.12.418.418 0 0 0 .119-.291v-.614c-.021-6.215-.02-10.818 0-13.308a.864.864 0 0 1 .155-.423 19.807 19.807 0 0 0 3.419-3.921 18.346 18.346 0 0 0 3.211-10.4 17.931 17.931 0 0 0-4.478-11.642zm-4.6 38.435h-3.565c-6 .021-10.326.023-12.854 0v-3.42a1.14 1.14 0 0 0-1.139-1.141c-.359 0-.634 0-.96.008-.413.008-.731.008-1.29-.013-3.124-.12-4.275-.894-4.741-3.185a38.171 38.171 0 0 1-.612-4.627l-.028-.342c-.038-.461-.105-1.272-.15-2.484a1.139 1.139 0 0 0-1.141-1.1h-2.604a1.472 1.472 0 0 1-.635-.105 1.241 1.241 0 0 1 .133-.675c.3-.764.616-1.536.937-2.331.63-1.557 1.284-3.167 1.868-4.785a20.415 20.415 0 0 0 .951-3.931c.051-.334.1-.695.155-1.065a20.156 20.156 0 0 1 1.417-5.926c2.507-4.751 8.151-7.819 14.421-7.824h.046c.064 0 .142 0 .176.008a19.124 19.124 0 0 1 2.211.146 16.383 16.383 0 0 1 10.263 5.82 15.682 15.682 0 0 1 3.931 10.166 16.086 16.086 0 0 1-2.821 9.119v.007a17.59 17.59 0 0 1-3.039 3.488 3.009 3.009 0 0 0-.92 2.1c-.022 2.347-.024 6.41-.005 12.092z"/>
        <g id="그룹_1243" data-name="그룹 1243" transform="translate(73.008 637.119)">
            <g id="그룹_1242" data-name="그룹 1242">
                <g id="그룹_1220" data-name="그룹 1220" transform="translate(11.305)">
                    <g id="그룹_1218" data-name="그룹 1218">
                        <path id="패스_684" data-name="패스 684" class="cls-2" d="M76.77 637.581a.805.805 0 0 1-.8-.807v-1.612a.806.806 0 0 1 1.611 0v1.612a.806.806 0 0 1-.811.807z" transform="translate(-75.965 -634.358)"/>
                    </g>
                    <g id="그룹_1219" data-name="그룹 1219" transform="translate(0 4.688)">
                        <path id="패스_685" data-name="패스 685" class="cls-2" d="M76.77 641.255a.806.806 0 0 1-.8-.807v-2.436a.806.806 0 1 1 1.611 0v2.436a.807.807 0 0 1-.811.807z" transform="translate(-75.965 -637.206)"/>
                    </g>
                </g>
                <g id="그룹_1223" data-name="그룹 1223" transform="translate(11.305 15.483)">
                    <g id="그룹_1221" data-name="그룹 1221" transform="translate(0 5.514)">
                        <path id="패스_686" data-name="패스 686" class="cls-2" d="M76.77 647.114a.805.805 0 0 0-.8.8v1.611a.806.806 0 1 0 1.611 0v-1.611a.805.805 0 0 0-.811-.8z" transform="translate(-75.965 -647.114)"/>
                    </g>
                    <g id="그룹_1222" data-name="그룹 1222">
                        <path id="패스_687" data-name="패스 687" class="cls-2" d="M76.77 643.764a.805.805 0 0 0-.8.807v2.436a.806.806 0 0 0 1.611 0v-2.436a.806.806 0 0 0-.811-.807z" transform="translate(-75.965 -643.764)"/>
                    </g>
                </g>
                <g id="그룹_1226" data-name="그룹 1226" transform="translate(0 11.303)">
                    <g id="그룹_1224" data-name="그룹 1224">
                        <path id="패스_688" data-name="패스 688" class="cls-2" d="M72.32 642.032a.805.805 0 0 1-.8.8H69.9a.806.806 0 1 1 0-1.611h1.611a.805.805 0 0 1 .809.811z" transform="translate(-69.097 -641.225)"/>
                    </g>
                    <g id="그룹_1225" data-name="그룹 1225" transform="translate(4.69)">
                        <path id="패스_689" data-name="패스 689" class="cls-2" d="M75.994 642.032a.805.805 0 0 1-.807.8h-2.436a.806.806 0 0 1 0-1.611h2.436a.806.806 0 0 1 .807.811z" transform="translate(-71.946 -641.225)"/>
                    </g>
                </g>
                <g id="그룹_1229" data-name="그룹 1229" transform="translate(15.484 11.303)">
                    <g id="그룹_1227" data-name="그룹 1227" transform="translate(5.513)">
                        <path id="패스_690" data-name="패스 690" class="cls-2" d="M81.853 642.032a.805.805 0 0 0 .807.8h1.611a.806.806 0 0 0 0-1.611H82.66a.806.806 0 0 0-.807.811z" transform="translate(-81.853 -641.225)"/>
                    </g>
                    <g id="그룹_1228" data-name="그룹 1228">
                        <path id="패스_691" data-name="패스 691" class="cls-2" d="M78.5 642.032a.805.805 0 0 0 .8.8h2.436a.806.806 0 1 0 0-1.611h-2.427a.805.805 0 0 0-.809.811z" transform="translate(-78.504 -641.225)"/>
                    </g>
                </g>
                <g id="그룹_1232" data-name="그룹 1232" transform="translate(3.75 13.82)">
                    <g id="그룹_1230" data-name="그룹 1230" transform="translate(0 3.899)">
                        <path id="패스_692" data-name="패스 692" class="cls-2" d="M73.89 645.359a.806.806 0 0 1 0 1.139l-1.139 1.139a.805.805 0 0 1-1.139-1.139l1.139-1.139a.806.806 0 0 1 1.139 0z" transform="translate(-71.375 -645.123)"/>
                    </g>
                    <g id="그룹_1231" data-name="그룹 1231" transform="translate(3.316)">
                        <path id="패스_693" data-name="패스 693" class="cls-2" d="M76.488 642.99a.808.808 0 0 1 0 1.141l-1.723 1.722a.805.805 0 0 1-1.139-1.139l1.722-1.723a.808.808 0 0 1 1.14-.001z" transform="translate(-73.39 -642.754)"/>
                    </g>
                </g>
                <g id="그룹_1235" data-name="그룹 1235" transform="translate(13.821 3.749)">
                    <g id="그룹_1233" data-name="그룹 1233" transform="translate(3.898)">
                        <path id="패스_694" data-name="패스 694" class="cls-2" d="M80.1 639.151a.808.808 0 0 0 1.141 0l1.139-1.139a.806.806 0 1 0-1.139-1.141l-1.141 1.141a.806.806 0 0 0 0 1.139z" transform="translate(-79.862 -636.636)"/>
                    </g>
                    <g id="그룹_1234" data-name="그룹 1234" transform="translate(0 3.315)">
                        <path id="패스_695" data-name="패스 695" class="cls-2" d="M77.73 641.748a.8.8 0 0 0 1.139 0l1.723-1.722a.806.806 0 1 0-1.139-1.141l-1.723 1.723a.806.806 0 0 0 0 1.14z" transform="translate(-77.494 -638.65)"/>
                    </g>
                </g>
                <g id="그룹_1238" data-name="그룹 1238" transform="translate(3.75 3.749)">
                    <g id="그룹_1236" data-name="그룹 1236">
                        <path id="패스_696" data-name="패스 696" class="cls-2" d="M73.89 639.151a.806.806 0 0 1-1.139 0l-1.139-1.139a.806.806 0 0 1 1.139-1.141l1.139 1.141a.806.806 0 0 1 0 1.139z" transform="translate(-71.375 -636.636)"/>
                    </g>
                    <g id="그룹_1237" data-name="그룹 1237" transform="translate(3.316 3.315)">
                        <path id="패스_697" data-name="패스 697" class="cls-2" d="M76.488 641.748a.806.806 0 0 1-1.141 0l-1.722-1.722a.806.806 0 0 1 1.139-1.141l1.723 1.723a.806.806 0 0 1 .001 1.14z" transform="translate(-73.39 -638.65)"/>
                    </g>
                </g>
                <g id="그룹_1241" data-name="그룹 1241" transform="translate(13.821 13.82)">
                    <g id="그룹_1239" data-name="그룹 1239" transform="translate(3.898 3.899)">
                        <path id="패스_698" data-name="패스 698" class="cls-2" d="M80.1 645.359a.806.806 0 0 0 0 1.139l1.141 1.139a.805.805 0 0 0 1.139-1.139l-1.139-1.139a.808.808 0 0 0-1.141 0z" transform="translate(-79.862 -645.123)"/>
                    </g>
                    <g id="그룹_1240" data-name="그룹 1240">
                        <path id="패스_699" data-name="패스 699" class="cls-2" d="M77.73 642.99a.808.808 0 0 0 0 1.141l1.723 1.722a.805.805 0 0 0 1.139-1.139l-1.723-1.723a.806.806 0 0 0-1.139-.001z" transform="translate(-77.494 -642.754)"/>
                    </g>
                </g>
            </g>
        </g>
    </g>
</svg>
