<svg height="50" viewBox="0 0 50 50" width="50" xmlns="http://www.w3.org/2000/svg"><path d="m0 0h50v50h-50z" fill="#f00" opacity="0"/><g fill="#fff" transform="translate(-39.559 -62.432)"><path d="m79.456 73.872a20.211 20.211 0 0 0 -34.9 10.762h3.4a16.838 16.838 0 0 1 29.074-8.407l4.822 4.986v-9.673z" fill-rule="evenodd"/><path d="m58.16 95.82h-3.022l4.376-16.927a7.718 7.718 0 0 1 .533-1.406 2.7 2.7 0 0 1 .7-.937 2.461 2.461 0 0 1 1.016-.493 6.266 6.266 0 0 1 1.5-.148 3.885 3.885 0 0 1 2.418.592 2.941 2.941 0 0 1 .6.814 10.893 10.893 0 0 1 .46 1.234l4.668 17.271h-3.045l-1.62-5.848h-6.577a.8.8 0 0 0 -.315.1 1.327 1.327 0 0 0 -.387.715zm1.983-7.97a1.26 1.26 0 0 1 .314-.3 1.136 1.136 0 0 1 .435-.1h5.222l-1.619-7.05c-.1-.345-.169-.666-.218-.914-.1-.222-.169-.419-.242-.567a1.047 1.047 0 0 0 -1.619-.025 1.713 1.713 0 0 0 -.242.567 9.451 9.451 0 0 0 -.266.939z" transform="translate(1.284 1.042)"/><path d="m49.368 98.511a20.211 20.211 0 0 0 34.9-10.762h-3.4a16.838 16.838 0 0 1 -29.074 8.407l-4.822-4.986v9.669z" fill-rule="evenodd" transform="translate(.292 2.48)"/></g></svg>