<svg id="ico_settings" xmlns="http://www.w3.org/2000/svg" width="20" height="20" viewBox="0 0 20 20">
  <defs>
<!--    <style>-->
<!--      .cls-1 {-->
<!--        fill: #fff;-->
<!--      }-->
<!--    </style>-->
  </defs>
  <g id="그룹_1" data-name="그룹 1">
    <path id="패스_16" data-name="패스 16" class="cls-1" d="M19.919,24.85a1.781,1.781,0,0,0-.787-1.3,1.534,1.534,0,0,0-1.42-.136.766.766,0,0,1-.976-.469,8.064,8.064,0,0,0-.743-1.383.875.875,0,0,1,.108-1.141,1.782,1.782,0,0,0,.593-1.379,1.806,1.806,0,0,0-.658-1.378,9.854,9.854,0,0,0-2.156-1.333,1.559,1.559,0,0,0-1.449.078,1.728,1.728,0,0,0-.819,1.238.794.794,0,0,1-.874.67,6.665,6.665,0,0,0-1.48,0,.788.788,0,0,1-.873-.669,1.727,1.727,0,0,0-.818-1.239,1.561,1.561,0,0,0-1.45-.079,9.885,9.885,0,0,0-2.156,1.333,1.806,1.806,0,0,0-.657,1.378A1.788,1.788,0,0,0,3.9,20.426a.872.872,0,0,1,.108,1.14,8.077,8.077,0,0,0-.743,1.383.768.768,0,0,1-.984.466,1.529,1.529,0,0,0-1.41.14,1.778,1.778,0,0,0-.788,1.3,11.179,11.179,0,0,0,0,2.684,1.779,1.779,0,0,0,.787,1.3,1.525,1.525,0,0,0,1.421.136.769.769,0,0,1,.975.469,8.079,8.079,0,0,0,.743,1.383A.874.874,0,0,1,3.9,31.959a1.784,1.784,0,0,0-.592,1.379,1.811,1.811,0,0,0,.657,1.379A9.915,9.915,0,0,0,6.118,36.05a1.579,1.579,0,0,0,.651.142,1.557,1.557,0,0,0,.8-.221,1.73,1.73,0,0,0,.819-1.238.789.789,0,0,1,.874-.669,6.664,6.664,0,0,0,1.48,0,.785.785,0,0,1,.873.669,1.73,1.73,0,0,0,.819,1.238,1.559,1.559,0,0,0,1.449.079,9.885,9.885,0,0,0,2.156-1.333,1.811,1.811,0,0,0,.657-1.379,1.784,1.784,0,0,0-.595-1.38.873.873,0,0,1-.107-1.14,8.067,8.067,0,0,0,.743-1.383.771.771,0,0,1,.976-.47l.01,0a1.522,1.522,0,0,0,1.411-.139,1.778,1.778,0,0,0,.787-1.3A10.985,10.985,0,0,0,20,26.192,11.112,11.112,0,0,0,19.919,24.85ZM10,30.381A4.2,4.2,0,0,1,10,22a4.2,4.2,0,0,1,0,8.379Z" transform="translate(0 -16.192)"/>
  </g>
</svg>
