<svg height="48" viewBox="0 0 48 48" width="48" xmlns="http://www.w3.org/2000/svg"><circle cx="24" cy="24" fill="#8e8e8e" r="24"/><g fill="none"><path d="m6 6h36v36h-36z"/><g stroke="#fff" stroke-linecap="round" stroke-miterlimit="10" stroke-width="2.5" transform="translate(9.451 9.451)"><path d="m0 0 29.098 29.098"/><path d="m16.72 11.06a14.469 14.469 0 0 1 3.016 1.971" transform="translate(4.072 2.246)"/><path d="m5 13.321a14.469 14.469 0 0 1 6.838-3.161" transform="translate(.29 1.955)"/><path d="m10.71 5.067a21.162 21.162 0 0 1 15.7 5.224" transform="translate(2.133 .29)"/><path d="m1.42 9.929a21.043 21.043 0 0 1 6.216-3.809" transform="translate(-.864 .652)"/><path d="m8.53 16.468a7.936 7.936 0 0 1 9.192 0" transform="translate(1.429 3.517)"/></g></g></svg>