<svg height="50" viewBox="0 0 50 50" width="50" xmlns="http://www.w3.org/2000/svg"><path d="m0 0h50v50h-50z" fill="#f00" opacity="0"/><g fill="#fff" transform="translate(-1267.785 -742.172)"><path d="m1311.455 751.9-.219-1.728-1.518-.854c-3.881-2.167-9.957-3.416-16.666-3.416-6.693 0-12.758 1.249-16.639 3.416l-1.52.854-.22 1.728c-1.339 10.493.179 18.747 4.634 25.236 2.474 3.6 7.455 7.87 12.118 10.376l1.638.88 1.641-.88c4.658-2.505 9.639-6.771 12.113-10.376 4.459-6.483 5.983-14.743 4.638-25.236zm-6.693 23.825a35.21 35.21 0 0 1 -11.234 9.584l-.465.246-.46-.246a35.164 35.164 0 0 1 -11.234-9.584c-4.1-5.961-5.472-13.653-4.214-23.506l.061-.481.423-.236c3.508-1.969 9.138-3.093 15.439-3.093 6.284 0 11.9 1.124 15.413 3.093l.425.236.062.481c1.25 9.853-.125 17.544-4.216 23.505z"/><path d="m1296.857 751.227a6.748 6.748 0 0 0 -4.316 1.539 8.517 8.517 0 0 0 -1.528 1.591 8.687 8.687 0 0 0 -1.525-1.591 6.745 6.745 0 0 0 -4.316-1.539 7.235 7.235 0 0 0 -5.477 2.465 8.923 8.923 0 0 0 -2.163 5.994 10.581 10.581 0 0 0 2.68 6.811 55.465 55.465 0 0 0 6.483 6.305l.1.1c.807.706 1.917 1.683 3.022 2.684a1.829 1.829 0 0 0 2.382 0c1.11-1 2.214-1.979 3.038-2.7a56.841 56.841 0 0 0 6.577-6.388 10.6 10.6 0 0 0 2.673-6.811 8.952 8.952 0 0 0 -2.158-5.994 7.257 7.257 0 0 0 -5.472-2.466zm5.6 8.458a8.49 8.49 0 0 1 -2.219 5.5 54.556 54.556 0 0 1 -6.268 6.086l-.262.22c-.772.686-1.728 1.53-2.689 2.4-.977-.879-1.924-1.718-2.7-2.4l-.17-.149a55.436 55.436 0 0 1 -6.36-6.157 8.492 8.492 0 0 1 -2.219-5.5 6.859 6.859 0 0 1 1.631-4.6 5.267 5.267 0 0 1 3.973-1.785 4.807 4.807 0 0 1 3.057 1.1 7.437 7.437 0 0 1 1.728 2.07 1.277 1.277 0 0 0 2.113 0 7.432 7.432 0 0 1 1.728-2.07 4.81 4.81 0 0 1 3.057-1.1 5.273 5.273 0 0 1 3.975 1.785 6.875 6.875 0 0 1 1.625 4.6z" transform="translate(2.049 3.276)"/></g></svg>