<svg xmlns="http://www.w3.org/2000/svg" width="48" height="48" viewBox="0 0 48 48">
    <circle cx="24" cy="24" r="24" style="fill:#0a84ff"/>
    <path data-name="bg" transform="translate(2 5)" style="fill:none" d="M0 0h36v36H0z"/>
    <path data-name="8674428_ic_fluent_bluetooth_searching_regular_icon" d="M11.074 12.613V4.1a1.092 1.092 0 0 1 1.782-.845l.111.105 6.855 7.426a1.091 1.091 0 0 1 .008 1.472l-.111.106-4.477 3.73 4.477 3.734a1.091 1.091 0 0 1 .2 1.458l-.1.12-6.855 7.429a1.092 1.092 0 0 1-1.883-.587l-.01-.152v-8.534L9.443 20.92a1.091 1.091 0 0 1-1.513-1.564l.116-.112 3.027-2.522v-1.267L8.046 12.93a1.091 1.091 0 0 1 1.266-1.77l.131.094 1.63 1.359zm2.464 4.9-.281.234V25.3l4.184-4.535zm-.282-10.627v7.547l.282.235 3.9-3.25z" transform="translate(10.117 7.907)" style="fill:#fff"/>
</svg>
