<svg id="ico_star" xmlns="http://www.w3.org/2000/svg" width="20" height="20" viewBox="0 0 20 20">
  <g id="그룹_6" data-name="그룹 6">
    <path id="패스_19" data-name="패스 19" class="cls-1" d="M19.935,7.662A1.428,1.428,0,0,0,18.75,6.651l-5.315-.734L11.331.891a1.443,1.443,0,0,0-2.664,0l-2.1,5.026-5.315.734A1.448,1.448,0,0,0,.485,9.166l4,3.571-.823,5.6a1.445,1.445,0,0,0,2.241,1.408L10,16.967l4.092,2.785a1.445,1.445,0,0,0,2.241-1.408l-.823-5.606,4-3.571A1.435,1.435,0,0,0,19.935,7.662Z" transform="translate(0 -0.003)"/>
  </g>
</svg>
