<svg height="50" viewBox="0 0 50 50" width="50" xmlns="http://www.w3.org/2000/svg"><path d="m0 0h50v50h-50z" fill="#f00" opacity="0"/><g fill="#fff"><path d="m128.306 77.819a2.394 2.394 0 0 1 .841.154 2.865 2.865 0 0 1 .6.4c.151.176.3.352.431.528.108.2.216.4.324.572l3.1 7.723 3.084-7.723a5.643 5.643 0 0 1 .345-.572 3.031 3.031 0 0 1 .431-.528 1.96 1.96 0 0 1 .582-.4 2.338 2.338 0 0 1 .862-.154h.539a1.651 1.651 0 0 1 1.272.572 2.442 2.442 0 0 1 .475 1.518v12.781h-2.393v-11.835c-.583 1.409-1.057 2.619-1.445 3.587q-.615 1.518-1.035 2.508c-.3.7-.539 1.254-.733 1.65a5.86 5.86 0 0 1 -.6.947 1.275 1.275 0 0 1 -.56.418 1.756 1.756 0 0 1 -.69.11h-.281a1.528 1.528 0 0 1 -.668-.11 1.039 1.039 0 0 1 -.539-.418 3.921 3.921 0 0 1 -.582-.947 15.652 15.652 0 0 1 -.755-1.65q-.453-.99-1.035-2.508c-.409-.968-.9-2.178-1.466-3.587v11.835h-2.393v-12.781a2.319 2.319 0 0 1 .474-1.518 1.547 1.547 0 0 1 1.251-.572z" transform="translate(-108.611 -60.255)"/><path d="m133.611 68.312 3.463 3.463h4.242l-7.7-7.7-7.7 7.7h4.242z" transform="translate(-108.611 -59.07)"/><path d="m147.091 77.55v4.242l3.463 3.463-3.463 3.463v4.242l7.7-7.7z" transform="translate(-109.796 -60.255)"/><path d="m133.611 102.2-3.463-3.463h-4.242l7.705 7.705 7.7-7.705h-4.242z" transform="translate(-108.611 -61.44)"/><path d="m120.13 92.959v-4.242l-3.463-3.463 3.463-3.463v-4.241l-7.705 7.7z" transform="translate(-107.426 -60.255)"/></g></svg>