<svg id="ico_power" xmlns="http://www.w3.org/2000/svg" width="40" height="43" viewBox="0 0 40 43">
<!--  <defs>-->
<!--    <style>-->
<!--      .cls-1 {-->
<!--        fill: #fff;-->
<!--      }-->
<!--    </style>-->
<!--  </defs>-->
  <g id="그룹_1216" data-name="그룹 1216" transform="translate(0 0)">
    <g id="그룹_1215" data-name="그룹 1215">
      <path id="패스_674" data-name="패스 674" class="cls-1" d="M48.33,59.551a1.856,1.856,0,0,0-2.394.891,1.7,1.7,0,0,0,.938,2.274,15.542,15.542,0,0,1,9.821,14.251c0,8.584-7.327,15.544-16.364,15.544S23.967,85.553,23.967,76.968a15.545,15.545,0,0,1,9.817-14.251,1.7,1.7,0,0,0,.937-2.274,1.856,1.856,0,0,0-2.394-.89,19,19,0,0,0-12,17.416c0,10.492,8.954,19,20,19s20-8.506,20-19A18.994,18.994,0,0,0,48.33,59.551Z" transform="translate(-20.331 -52.966)"/>
      <path id="패스_675" data-name="패스 675" class="cls-1" d="M235.931,24.022a2.275,2.275,0,0,0,2.275-2.275V1.275a2.275,2.275,0,1,0-4.549,0V21.747A2.275,2.275,0,0,0,235.931,24.022Z" transform="translate(-215.931 1)"/>
    </g>
  </g>
</svg>
