<svg id="img_logo" xmlns="http://www.w3.org/2000/svg" width="180" height="50" viewBox="0 0 180 50">
    <defs>
        <clipPath id="clip-path">
            <path id="사각형_521" data-name="사각형 521" class="cls-1" d="M0 0h180v21.092H0z"/>
        </clipPath>
<!--        <style>-->
<!--            .cls-1{fill:#fff}-->
<!--        </style>-->
    </defs>
    <g id="그룹_1514" data-name="그룹 1514" transform="translate(0 14.454)">
        <g id="그룹_1513" data-name="그룹 1513" style="clip-path:url(#clip-path)">
            <path id="패스_901" data-name="패스 901" class="cls-1" d="M6.7 20.709V2.081H0v-1A.959.959 0 0 1 .218.433.849.849 0 0 1 .9.176h14.4v1.905H8.759v18.628z" transform="translate(0 .126)"/>
            <path id="패스_902" data-name="패스 902" class="cls-1" d="M20.427 20.709V9.476A1.85 1.85 0 0 0 20 8.137a1.936 1.936 0 0 0-1.43-.439h-4.789a1.244 1.244 0 0 0-.645.168.7.7 0 0 0-.283.657v12.186h-2.009V.176h.927a1.107 1.107 0 0 1 .875.257 1.22 1.22 0 0 1 .206.772v4.974a1.064 1.064 0 0 1 .954-.386h5.05a4.021 4.021 0 0 1 2.666.81 3.415 3.415 0 0 1 .966 2.745v11.361z" transform="translate(7.77 .126)"/>
            <path id="패스_903" data-name="패스 903" class="cls-1" d="M22.323 11.8a1.032 1.032 0 0 0-.527.141.533.533 0 0 0-.245.5v1.287a6.789 6.789 0 0 0 .117 1.4 1.424 1.424 0 0 0 .45.812 1.759 1.759 0 0 0 .9.412 8.488 8.488 0 0 0 1.468.1h6.905v1.907h-7.212a9.722 9.722 0 0 1-2.448-.245 2.636 2.636 0 0 1-1.39-.836 3.275 3.275 0 0 1-.645-1.624 17.854 17.854 0 0 1-.154-2.576V8.11a9.228 9.228 0 0 1 .22-2.19 3.03 3.03 0 0 1 .786-1.442A3.177 3.177 0 0 1 22 3.692a9.111 9.111 0 0 1 2.305-.244h2.319q2.729 0 3.761 1a3.05 3.05 0 0 1 .774 1.4 8.2 8.2 0 0 1 .232 2.1V11.8zm-.772-1.469a1.053 1.053 0 0 1 .85-.283h6.931V8.522a8.985 8.985 0 0 0-.132-1.713 1.681 1.681 0 0 0-.515-.966 2.134 2.134 0 0 0-1.069-.4 13.959 13.959 0 0 0-1.765-.091h-.826a13.45 13.45 0 0 0-1.713.091 2.14 2.14 0 0 0-1.069.4 1.53 1.53 0 0 0-.553.9 7.14 7.14 0 0 0-.142 1.6z" transform="translate(14.001 2.47)"/>
            <path id="패스_904" data-name="패스 904" class="cls-1" d="M41.16.184a21.533 21.533 0 0 1 2.906.18 4.092 4.092 0 0 1 1.722.644 2.659 2.659 0 0 1 .8 1.287 9.5 9.5 0 0 1 .206 2.086v3.888a10.6 10.6 0 0 1-.206 2.264 2.458 2.458 0 0 1-.8 1.39 3.3 3.3 0 0 1-1.722.7 17.985 17.985 0 0 1-2.906.18h-6.248a1.371 1.371 0 0 0-.616.129.521.521 0 0 0-.257.515V20.7h-2.984V1.832a1.826 1.826 0 0 1 .412-1.159 1.735 1.735 0 0 1 1.389-.489zm-6.042 2.781c-.463 0-.771.1-.874.257a1.414 1.414 0 0 0-.206.9v6.538a.732.732 0 0 1 .412-.335 2.858 2.858 0 0 1 .513-.051h5.194a18 18 0 0 0 1.825-.077 2.69 2.69 0 0 0 1.131-.283 1.229 1.229 0 0 0 .541-.693 4.087 4.087 0 0 0 .154-1.262V5.2a6.889 6.889 0 0 0-.1-1.159 1.076 1.076 0 0 0-.489-.669 3.311 3.311 0 0 0-1.105-.335 19.387 19.387 0 0 0-1.953-.077z" transform="translate(22.251 .132)"/>
            <path id="패스_905" data-name="패스 905" class="cls-1" d="M43.424.184a1.629 1.629 0 0 1 1.157.335 1.608 1.608 0 0 1 .283 1v7.392a.469.469 0 0 1 .283-.335 1.488 1.488 0 0 1 .539-.077h8.253c.438 0 .669-.18.669-.592V.184h1.567a1.626 1.626 0 0 1 1.157.335 1.608 1.608 0 0 1 .283 1V20.7h-2.98v-9.833a.7.7 0 0 1-.335.335 1.712 1.712 0 0 1-.541.077h-8.253a.577.577 0 0 0-.487.18.631.631 0 0 0-.154.412V20.7h-2.984V.184z" transform="translate(30.007 .132)"/>
            <path id="패스_906" data-name="패스 906" class="cls-1" d="M67.233 11.332a1.713 1.713 0 0 0-.566.1.535.535 0 0 0-.23.489V20.7h-2.984V1.138a1.223 1.223 0 0 1 .18-.644c.1-.206.335-.309.693-.309h9.667a12.684 12.684 0 0 1 2.727.257 3.939 3.939 0 0 1 1.569.824 3.043 3.043 0 0 1 .745 1.311 9.77 9.77 0 0 1 .18 1.828v2.936a8.23 8.23 0 0 1-.154 1.725 2.36 2.36 0 0 1-.616 1.236 3 3 0 0 1-1.389.747 9.767 9.767 0 0 1-2.525.283l5.764 9.37h-3.439l-5.7-9.37zm5.81-2.523a16.176 16.176 0 0 0 1.8-.077 2.087 2.087 0 0 0 .951-.283.684.684 0 0 0 .384-.463 4.915 4.915 0 0 0 .052-.721V4.509a2.2 2.2 0 0 0-.127-.747 1.329 1.329 0 0 0-.463-.462 5.281 5.281 0 0 0-.977-.257 13.613 13.613 0 0 0-1.62-.077h-6.607v6.177a.556.556 0 0 1 .333-.309c.129 0 .283-.026.489-.026z" transform="translate(45.464 .133)"/>
            <path id="패스_907" data-name="패스 907" class="cls-1" d="M100.757 14.477a9.833 9.833 0 0 1-.487 3.347 4.7 4.7 0 0 1-1.492 2.008 6.42 6.42 0 0 1-2.494.978 23.846 23.846 0 0 1-3.548.257 23.219 23.219 0 0 1-3.522-.257 6.223 6.223 0 0 1-2.52-.978 4.612 4.612 0 0 1-1.543-2.008 8.654 8.654 0 0 1-.513-3.347V6.625A8.862 8.862 0 0 1 85.15 3.3a4.542 4.542 0 0 1 1.543-2.03 6.223 6.223 0 0 1 2.52-.978 23.219 23.219 0 0 1 3.522-.258 23.846 23.846 0 0 1 3.548.257 6.42 6.42 0 0 1 2.494.978 4.632 4.632 0 0 1 1.492 2.031 10.1 10.1 0 0 1 .487 3.321zm-8.021 3.63a16.315 16.315 0 0 0 2.391-.129 2.921 2.921 0 0 0 1.543-.541 2.4 2.4 0 0 0 .848-1.262 8.635 8.635 0 0 0 .257-2.292V7.218a8.778 8.778 0 0 0-.257-2.292 2.63 2.63 0 0 0-.848-1.262 3.792 3.792 0 0 0-1.544-.564 30.78 30.78 0 0 0-2.391-.1 21 21 0 0 0-2.468.129 3.4 3.4 0 0 0-1.567.561 2.28 2.28 0 0 0-.822 1.262 7.831 7.831 0 0 0-.257 2.266v6.667a7.413 7.413 0 0 0 .257 2.24 2.178 2.178 0 0 0 .822 1.287 2.913 2.913 0 0 0 1.569.566 16.573 16.573 0 0 0 2.468.129" transform="translate(60.642 .024)"/>
            <path id="패스_908" data-name="패스 908" class="cls-1" d="M97.24.184a1.632 1.632 0 0 1 1.16.335 1.608 1.608 0 0 1 .283 1l-.026 7.388a.5.5 0 0 1 .307-.335A1.5 1.5 0 0 1 99.5 8.5h8.253c.438 0 .669-.18.669-.592V.184h1.567a1.626 1.626 0 0 1 1.157.335 1.608 1.608 0 0 1 .283 1V20.7h-2.982v-9.833a.7.7 0 0 1-.335.335 1.712 1.712 0 0 1-.541.077h-8.249a.577.577 0 0 0-.487.18.631.631 0 0 0-.154.412V20.7H95.7V.184z" transform="translate(68.566 .132)"/>
            <path id="패스_909" data-name="패스 909" class="cls-1" d="M55.522 0A3.779 3.779 0 0 1 58.4 1.945l11.611 18.869-3.466.005-3.705-6.091-7.127.007v6.1h-3l-.006-15.967V2.561A2.669 2.669 0 0 1 55.522 0m.189 12.108h5.622l-5.623-8.6z" transform="translate(37.764)"/>
            <path id="패스_910" data-name="패스 910" class="cls-1" d="M77.326 0A3.779 3.779 0 0 1 80.2 1.945l11.615 18.869-3.466.005-3.706-6.092-7.127.007v6.1h-3l-.005-15.966V2.561A2.669 2.669 0 0 1 77.326 0m.189 12.108h5.622l-5.623-8.6z" transform="translate(53.386)"/>
        </g>
    </g>
</svg>
