<svg id="img_logo" xmlns="http://www.w3.org/2000/svg" width="180" height="50" viewBox="0 0 180 50">
    <defs>
        <clipPath id="clip-path">
            <path id="사각형_525" data-name="사각형 525" class="cls-1" d="M0 0h180v21.001H0z"/>
        </clipPath>
<!--        <style>-->
<!--            .cls-1{fill:#fff}-->
<!--        </style>-->
    </defs>
    <g id="그룹_1520" data-name="그룹 1520" transform="translate(0 14.454)">
        <g id="그룹_1519" data-name="그룹 1519" style="clip-path:url(#clip-path)">
            <path id="패스_927" data-name="패스 927" class="cls-1" d="M6.694 20.658V2.043H0v-1A.963.963 0 0 1 .219.4.851.851 0 0 1 .9.138h14.394v1.905h-6.54v18.615z" transform="translate(0 .096)"/>
            <path id="패스_928" data-name="패스 928" class="cls-1" d="M20.551 20.658V9.432a1.854 1.854 0 0 0-.425-1.339 1.935 1.935 0 0 0-1.426-.437h-4.79a1.231 1.231 0 0 0-.642.168.7.7 0 0 0-.283.656v12.178h-2.012V.138h.927a1.108 1.108 0 0 1 .875.262 1.226 1.226 0 0 1 .207.773v4.964a1.061 1.061 0 0 1 .953-.386h5.046a4.012 4.012 0 0 1 2.663.812A3.4 3.4 0 0 1 22.61 9.3v11.358z" transform="translate(7.628 .096)"/>
            <path id="패스_929" data-name="패스 929" class="cls-1" d="M22.556 11.792a1.051 1.051 0 0 0-.529.141.533.533 0 0 0-.244.5v1.287a6.749 6.749 0 0 0 .117 1.4 1.42 1.42 0 0 0 .449.81 1.776 1.776 0 0 0 .9.412 8.547 8.547 0 0 0 1.466.1h6.9v1.905h-7.206a9.708 9.708 0 0 1-2.444-.246 2.637 2.637 0 0 1-1.392-.836 3.256 3.256 0 0 1-.642-1.622 17.738 17.738 0 0 1-.156-2.575V8.11a9.205 9.205 0 0 1 .22-2.188 3.017 3.017 0 0 1 .785-1.441 3.171 3.171 0 0 1 1.454-.787 9.106 9.106 0 0 1 2.3-.244h2.317q2.728 0 3.76 1a3.073 3.073 0 0 1 .771 1.4 8.2 8.2 0 0 1 .232 2.1v3.836zm-.773-1.468a1.054 1.054 0 0 1 .849-.283h6.926V8.522a9.051 9.051 0 0 0-.128-1.712 1.68 1.68 0 0 0-.515-.966 2.148 2.148 0 0 0-1.068-.4 14.123 14.123 0 0 0-1.763-.09h-.826a13.566 13.566 0 0 0-1.71.09 2.148 2.148 0 0 0-1.07.4 1.519 1.519 0 0 0-.553.9 7.115 7.115 0 0 0-.142 1.6z" transform="translate(13.746 2.399)"/>
            <path id="패스_930" data-name="패스 930" class="cls-1" d="M78.209.144h-1.4v15.734L69.3 2.955l-.68-1.093A4.882 4.882 0 0 0 67.506.476a1.838 1.838 0 0 0-.617-.271 3.063 3.063 0 0 0-.649-.061h-.464a1.54 1.54 0 0 0-1.259.522 2.234 2.234 0 0 0-.385 1.441v18.548h2.9V4.9l8.238 14.027a5.408 5.408 0 0 0 .91 1.205 2.005 2.005 0 0 0 1.421.519h.488a1.461 1.461 0 0 0 1.331-.644 2.4 2.4 0 0 0 .339-1.317V1.643a1.659 1.659 0 0 0-.31-1.059 1.5 1.5 0 0 0-1.24-.44" transform="translate(44.58 .101)"/>
            <path id="패스_931" data-name="패스 931" class="cls-1" d="M75.084.573a1.42 1.42 0 0 0-.332.948V3H81.1v17.657h3V3h6.2V.144H76.128a1.3 1.3 0 0 0-1.044.429" transform="translate(51.963 .101)"/>
            <path id="패스_932" data-name="패스 932" class="cls-1" d="M98.24 1.051A6.719 6.719 0 0 0 95.7.188 21.568 21.568 0 0 0 92.746 0a22.139 22.139 0 0 0-2.965.188 6.368 6.368 0 0 0-2.543.87 4.842 4.842 0 0 0-1.766 2.048 8.135 8.135 0 0 0-.626 3.473v7.865a8.164 8.164 0 0 0 .626 3.475 4.863 4.863 0 0 0 1.77 2.049 6.246 6.246 0 0 0 2.544.856 23.721 23.721 0 0 0 2.96.175 23.11 23.11 0 0 0 2.95-.175 6.643 6.643 0 0 0 2.563-.861 4.842 4.842 0 0 0 1.726-2.048 8.309 8.309 0 0 0 .612-3.472V6.579a8.306 8.306 0 0 0-.612-3.47 4.84 4.84 0 0 0-1.745-2.058m-5.494 17a17.948 17.948 0 0 1-2.431-.141 3.2 3.2 0 0 1-1.471-.546 2.128 2.128 0 0 1-.771-1.1 7.117 7.117 0 0 1-.276-2.212V6.945a7.124 7.124 0 0 1 .276-2.212 2.241 2.241 0 0 1 .771-1.122 3.351 3.351 0 0 1 1.471-.52 17.646 17.646 0 0 1 2.431-.142 17.1 17.1 0 0 1 2.405.142 3.337 3.337 0 0 1 1.437.512 2.276 2.276 0 0 1 .781 1.131 7.125 7.125 0 0 1 .276 2.212v7.109a7.179 7.179 0 0 1-.276 2.246 2.1 2.1 0 0 1-.771 1.088 3.339 3.339 0 0 1-1.448.522 17.391 17.391 0 0 1-2.405.141" transform="translate(58.98 .001)"/>
            <path id="패스_933" data-name="패스 933" class="cls-1" d="M112.96.651a1.713 1.713 0 0 0-1.4-.651h-.415a1.932 1.932 0 0 0-1.5.585 3.947 3.947 0 0 0-.659.958l-4.39 9.222-4.4-9.242a4.35 4.35 0 0 0-.68-.931A2 2 0 0 0 98.07 0h-.458a1.68 1.68 0 0 0-1.361.661 2.343 2.343 0 0 0-.48 1.5v18.6h2.875V5.3c.312.687.636 1.373.965 2.044q.539 1.1 1.066 2.144c.351.7.675 1.321.966 1.871q.445.865.764 1.443a7.668 7.668 0 0 0 .493.815 3.336 3.336 0 0 0 .692.781 1.32 1.32 0 0 0 .909.247h.195a1.614 1.614 0 0 0 .9-.242 2.849 2.849 0 0 0 .719-.771 8.5 8.5 0 0 0 .514-.839c.22-.392.483-.883.776-1.453s.622-1.2.959-1.882.692-1.405 1.056-2.148q.46-.987.91-1.973v15.418h2.9V2.132a2.344 2.344 0 0 0-.47-1.481" transform="translate(66.574 .001)"/>
            <path id="패스_934" data-name="패스 934" class="cls-1" d="M56.184.144a2.63 2.63 0 0 0-2.775 2.522l.007 17.991 2.958-.005v-6l7.025-.007 3.655 6 3.416-.007-11.45-18.58A3.726 3.726 0 0 0 56.184.144m.186 11.92V3.602l5.545 8.462z" transform="translate(37.127 .101)"/>
            <path id="패스_935" data-name="패스 935" class="cls-1" d="M41.525.141a21.414 21.414 0 0 1 2.905.181 4.082 4.082 0 0 1 1.722.642 2.681 2.681 0 0 1 .8 1.287 9.6 9.6 0 0 1 .205 2.085v3.887a10.727 10.727 0 0 1-.205 2.265 2.481 2.481 0 0 1-.8 1.39 3.3 3.3 0 0 1-1.722.693 17.937 17.937 0 0 1-2.905.181H35.28a1.364 1.364 0 0 0-.617.129.518.518 0 0 0-.258.514v7.259h-2.981V1.789a1.822 1.822 0 0 1 .412-1.158 1.733 1.733 0 0 1 1.388-.49zm-6.04 2.78c-.463 0-.771.1-.875.258a1.412 1.412 0 0 0-.205.9v6.538a.735.735 0 0 1 .412-.336 2.921 2.921 0 0 1 .514-.051h5.192a17.674 17.674 0 0 0 1.824-.078 2.7 2.7 0 0 0 1.132-.283 1.233 1.233 0 0 0 .539-.7 4.07 4.07 0 0 0 .154-1.261V5.16A6.766 6.766 0 0 0 44.07 4a1.071 1.071 0 0 0-.488-.67A3.288 3.288 0 0 0 42.476 3a19.04 19.04 0 0 0-1.953-.078z" transform="translate(21.844 .099)"/>
            <path id="패스_936" data-name="패스 936" class="cls-1" d="M43.922.142a1.63 1.63 0 0 1 1.156.334 1.613 1.613 0 0 1 .283 1.005v7.386a.466.466 0 0 1 .283-.334 1.474 1.474 0 0 1 .539-.078h8.252c.436 0 .668-.18.668-.592V.142h1.568a1.633 1.633 0 0 1 1.156.334 1.613 1.613 0 0 1 .283 1.005v19.174h-2.982v-9.832a.693.693 0 0 1-.334.334 1.677 1.677 0 0 1-.541.078H46a.58.58 0 0 0-.488.18.629.629 0 0 0-.154.412v8.828h-2.979V.142z" transform="translate(29.459 .099)"/>
        </g>
    </g>
</svg>
