<svg xmlns="http://www.w3.org/2000/svg" id="ico_health_05" width="80" height="50" viewBox="0 0 80 50">
    <defs>
    </defs>
    <g id="그룹_1258" transform="translate(-277.336 -404.969)">
        <g id="그룹_1249" transform="translate(295.48 406.176)">
            <path id="패스_704" d="M311.78 424.944a5.021 5.021 0 0 1-1.527-.256 5.653 5.653 0 0 1-.81-.334 1.89 1.89 0 0 0-.42-.248 1.284 1.284 0 0 0-.476-.106 38.329 38.329 0 0 1-8.092-.868l-2.933-.638a2.6 2.6 0 0 1-2.041-2.531 3.236 3.236 0 0 1 .34-1.439l.945-1.887a43.629 43.629 0 0 1 3.866-6.315l2.109-2.861a3.159 3.159 0 0 1 2.537-1.283h2.661a2.1 2.1 0 0 1 2.041 1.593l.524 2.1a2.094 2.094 0 0 1 .064.508 2.12 2.12 0 0 1-.444 1.293 2.1 2.1 0 0 1-1.659.812h-.665a5.109 5.109 0 0 1-2.485-.642l-.226.41a8.758 8.758 0 0 0-1.051 3.262 7.537 7.537 0 0 1 3.976.042l.844-.318a7.826 7.826 0 0 1 2.755-.5l.322.022a5.017 5.017 0 0 1 1.645.328 5.093 5.093 0 0 1-1.8 9.861zm-6.5-17.355a1.739 1.739 0 0 0-1.4.708l-2.109 2.861a41.82 41.82 0 0 0-3.742 6.111l-.944 1.887a1.8 1.8 0 0 0-.19.8 1.181 1.181 0 0 0 .926 1.149l2.936.636a36.667 36.667 0 0 0 7.79.838 2.659 2.659 0 0 1 1 .208 2.579 2.579 0 0 1 .66.378c.076.024.272.1.478.168a3.475 3.475 0 0 0 1.1.19 3.681 3.681 0 0 0 .088-7.362l-.246-.018h-.016a6.355 6.355 0 0 0-2.255.408l-1.293.486-.232-.074a6.164 6.164 0 0 0-3.844.03l-1.571.52.2-2.009a10.194 10.194 0 0 1 1.235-3.952l.936-1.681 1.091.654a3.735 3.735 0 0 0 1.921.532h.668a.691.691 0 0 0 .546-.268.7.7 0 0 0 .142-.422l-.544-2.261a.693.693 0 0 0-.67-.524z" class="cls-2" transform="translate(-295.48 -406.176)"/>
        </g>
        <g id="그룹_1257" transform="translate(296.332 414.985)">
            <g id="그룹_1252">
                <g id="그룹_1250" transform="translate(0 10.351)">
                    <path id="패스_705" d="M325.367 431.141a9.755 9.755 0 0 1-3.362.436h-11.95q-2.059 3.143-4.122 6.285a5.773 5.773 0 0 1-2.181 2.181 9.857 9.857 0 0 1-3.36.436h-4.486q4.325-6.6 8.66-13.209a5.788 5.788 0 0 1 2.181-2.181 9.873 9.873 0 0 1 3.362-.436h11.95q2.062-3.143 4.118-6.285a5.836 5.836 0 0 1 2.183-2.181 9.816 9.816 0 0 1 3.362-.436h4.486q-4.325 6.606-8.66 13.207a5.779 5.779 0 0 1-2.181 2.183z" class="cls-2" transform="translate(-295.906 -415.751)"/>
                </g>
                <g id="그룹_1251" transform="translate(34.047)">
                    <path id="패스_706" d="M317.029 419.451q-4.112 0-4.108-4.17v-.594q0-4.112 4.108-4.108h.594q4.112 0 4.108 4.108v.594q0 4.169-4.108 4.17z" class="cls-2" transform="translate(-312.921 -410.578)"/>
                </g>
            </g>
            <g id="그룹_1254" transform="translate(14.42 28.027)">
                <g id="그룹_1253">
                    <path id="패스_707" d="M314.256 426.562h-11.144l1.236-1.978h9.908z" class="cls-2" transform="translate(-303.112 -424.584)"/>
                </g>
            </g>
            <g id="그룹_1256" transform="translate(14.81 15.293)">
                <g id="그룹_1255">
                    <path id="패스_708" d="M303.307 418.22h10.683l-1.236 1.978h-9.447z" class="cls-2" transform="translate(-303.307 -418.22)"/>
                </g>
            </g>
        </g>
    </g>
</svg>
