<svg xmlns="http://www.w3.org/2000/svg" id="ico_health_08" width="80" height="50" viewBox="0 0 80 50">
    <defs>
    </defs>
    <g id="그룹_1265" transform="translate(-395.363 -404.338)">
        <g id="그룹_1262" transform="translate(411.236 411.937)">
            <g id="그룹_1261">
                <g id="그룹_1259" transform="translate(0 11.402)">
                    <path id="패스_709" d="M443.684 431.542a10.7 10.7 0 0 1-3.7.481H426.82l-4.542 6.921a6.347 6.347 0 0 1-2.4 2.4 10.78 10.78 0 0 1-3.7.481h-4.941q4.763-7.273 9.536-14.546a6.394 6.394 0 0 1 2.4-2.4 10.863 10.863 0 0 1 3.7-.481h13.161l4.536-6.921a6.425 6.425 0 0 1 2.4-2.4 10.88 10.88 0 0 1 3.7-.478h4.939q-4.763 7.276-9.536 14.546a6.382 6.382 0 0 1-2.389 2.397z" class="cls-2" transform="translate(-411.236 -414.595)"/>
                </g>
                <g id="그룹_1260" transform="translate(37.497)">
                    <path id="패스_710" d="M432.767 419.2q-4.528 0-4.525-4.593v-.655q0-4.528 4.525-4.525h.655q4.528 0 4.525 4.525v.655q0 4.591-4.525 4.593z" class="cls-2" transform="translate(-428.242 -409.424)"/>
                </g>
            </g>
        </g>
        <g id="그룹_1264" transform="translate(414.746 407.339)">
            <g id="그룹_1263" transform="translate(4.433)">
                <path id="패스_711" d="M416.924 423.958l-2.086-.066 9.621-16.535 2.169-.019z" class="cls-2" transform="translate(-414.839 -407.339)"/>
            </g>
            <path id="패스_712" d="M429.271 411.212h-1.008v-.758a1.786 1.786 0 0 0-1.784-1.784H423.8l-.809 1.389h3.49a.394.394 0 0 1 .395.395v7.155a.394.394 0 0 1-.395.393h-8.112l-.807 1.389h8.919a1.786 1.786 0 0 0 1.784-1.782v-.758h1.008a.632.632 0 0 0 .631-.633v-4.375a.63.63 0 0 0-.633-.631z" class="cls-2" transform="translate(-407.125 -405.734)"/>
            <path id="패스_713" d="M414.612 418a.394.394 0 0 1-.395-.393v-7.155a.394.394 0 0 1 .395-.395h7.6l.807-1.389h-8.41a1.786 1.786 0 0 0-1.784 1.784v7.155a1.786 1.786 0 0 0 1.784 1.782h2.172l.809-1.389z" class="cls-2" transform="translate(-412.828 -405.734)"/>
        </g>
    </g>
</svg>
