<svg xmlns="http://www.w3.org/2000/svg" id="ico_health_02" width="80" height="50" viewBox="0 0 80 50">
    <defs>
    </defs>
    <g id="그룹_461" transform="translate(-1490.724 -745.676)">
        <g id="그룹_460" transform="translate(1506.027 750.179)">
            <path id="패스_194" d="M1540.162 773.243a11.3 11.3 0 0 1-3.9.5h-13.845l-4.776 7.284a6.7 6.7 0 0 1-2.528 2.528 11.406 11.406 0 0 1-3.892.5h-5.2q5.012-7.649 10.034-15.3a6.7 6.7 0 0 1 2.528-2.528 11.416 11.416 0 0 1 3.9-.5h13.843l4.774-7.284a6.737 6.737 0 0 1 2.528-2.528 11.419 11.419 0 0 1 3.9-.5h5.2q-5.012 7.656-10.034 15.3a6.721 6.721 0 0 1-2.532 2.528z" class="cls-2" transform="translate(-1506.027 -743.419)"/>
            <path id="패스_195" d="M1528 760.458q-4.765 0-4.758-4.831v-.69q0-4.761 4.758-4.758h.69q4.765 0 4.76 4.758v.69q0 4.83-4.76 4.831z" class="cls-2" transform="translate(-1483.79 -750.179)"/>
        </g>
        <path id="패스_196" d="M1535.493 755.589l-3.763 5.5h-16.682a1.911 1.911 0 0 0-1.48.811l-4.018 5.968-3-1.916.75 10.084.437-.688v.007l7.634-11.975h16.666a1.708 1.708 0 0 0 1.41-.742l4.882-7.135z" class="cls-2" transform="translate(.677 6.879)"/>
        <path id="패스_197" d="M1514.51 779.576l3.676-5.56 18.438-.16c.656-.034.915-.47 1.219-.944l4.169-5.922 3.027 1.865-.912-10.07-.427.694v-.007l-7.687 11.989-18.177.27a1.7 1.7 0 0 0-1.4.763l-4.767 7.213z" class="cls-2" transform="translate(7.299 11.117)"/>
    </g>
</svg>
