<svg xmlns="http://www.w3.org/2000/svg" id="ico_health_06" width="80" height="50" viewBox="0 0 80 50">
    <defs>
    </defs>
    <g id="그룹_468" transform="translate(-1952.551 -746.294)">
        <g id="그룹_466" transform="translate(1968.496 753.233)">
            <path id="패스_204" d="M2001.3 773.62a10.953 10.953 0 0 1-3.785.492h-13.45l-4.643 7.074a6.484 6.484 0 0 1-2.456 2.456 11.073 11.073 0 0 1-3.781.49h-5.05q4.87-7.432 9.748-14.868a6.522 6.522 0 0 1 2.457-2.454 11.042 11.042 0 0 1 3.785-.492h13.452q2.318-3.541 4.636-7.077a6.567 6.567 0 0 1 2.456-2.454 11.042 11.042 0 0 1 3.786-.492h5.05q-4.87 7.438-9.749 14.868a6.511 6.511 0 0 1-2.456 2.457z" class="cls-2" transform="translate(-1968.133 -744.643)"/>
            <path id="패스_205" d="M1989.971 761.05q-4.63 0-4.625-4.694v-.668q0-4.629 4.625-4.625h.668q4.63 0 4.625 4.625v.668q0 4.7-4.625 4.694z" class="cls-2" transform="translate(-1947.017 -751.063)"/>
        </g>
        <g id="그룹_467" transform="translate(1967.837 749.294)">
            <path id="패스_206" d="M1981.266 750.888H1971a1.113 1.113 0 1 0 0 2.227h10.27a2.461 2.461 0 0 1 0 4.872h-9.875v.007a1.113 1.113 0 1 0 0 2.227l.035-.007h8.3a2.46 2.46 0 0 1 0 4.87h-4.542v.009a2.1 2.1 0 0 0-2.046 2.091v.675h2.227s-.1-.55.437-.55h3.928a4.514 4.514 0 0 0 4.338-4.663 4.833 4.833 0 0 0-.962-2.89 4.69 4.69 0 0 0 2.5-4.206 4.514 4.514 0 0 0-4.344-4.662z" class="cls-2" transform="translate(-1965.327 -747.339)"/>
            <path id="패스_207" d="M1981.157 765.716h.027a1.109 1.109 0 0 0 0-2.218v-.007h-8.522a2.46 2.46 0 0 1 0-4.87H1982.773a1.113 1.113 0 0 0 .007-2.227h-10.611a2.461 2.461 0 0 1 0-4.872h15.22l.815-2.227h-16.035a4.515 4.515 0 0 0-4.337 4.663 4.763 4.763 0 0 0 1.8 3.765 4.814 4.814 0 0 0-1.314 3.334 4.53 4.53 0 0 0 4.037 4.629 4.861 4.861 0 0 0-.673 2.467v1.663h2.227v-1.663a2.292 2.292 0 0 1 2.111-2.436z" class="cls-2" transform="translate(-1967.837 -749.294)"/>
        </g>
    </g>
</svg>
