<svg xmlns="http://www.w3.org/2000/svg" id="ico_health_04" width="80" height="50" viewBox="0 0 80 50">
    <defs>
    </defs>
    <g id="그룹_1248" transform="translate(-966.902 -290.808)">
        <g id="그룹_1245" transform="translate(992.655 292.016)">
            <path id="패스_700" d="M1007.03 304.251l-9.286-6.154.512 3.751L991 300.6l9.515 5.794-.643-3.659z" class="cls-2" transform="translate(-991.004 -287.755)"/>
            <path id="패스_701" d="M1005.549 305.929l-2.215-10.918-2.29 3.015-4.246-6.011 2.631 10.825 2.132-3.042z" class="cls-2" transform="translate(-986.944 -292.015)"/>
        </g>
        <g id="그룹_1247" transform="translate(988.646 306.022)">
            <g id="그룹_1246">
                <g id="패스_702"  stroke="none" stroke-linecap="round" stroke-miterlimit="10">
                    <path  d="M1013.742 318.546a8.281 8.281 0 0 1-2.864.372H1000.7q-1.755 2.678-3.511 5.353a4.923 4.923 0 0 1-1.859 1.859 8.363 8.363 0 0 1-2.86.371h-3.823l7.377-11.251a4.929 4.929 0 0 1 1.859-1.857 8.378 8.378 0 0 1 2.864-.372h10.18l3.508-5.353a4.957 4.957 0 0 1 1.859-1.859 8.382 8.382 0 0 1 2.865-.372h3.821q-3.686 5.63-7.377 11.251a4.922 4.922 0 0 1-1.861 1.858z" transform="translate(-988.646 -296.62)"/>
                    <path  d="M992.469 325.51c1.422 0 2.145-.164 2.5-.302.277-.108.787-.553 1.39-1.479l1.75-2.667 1.761-2.686.294-.448h10.715c1.43 0 2.149-.165 2.5-.303l.003-.001.002-.001c.273-.106.78-.55 1.389-1.479 2.304-3.51 4.399-6.704 6.372-9.716h-1.988c-1.42 0-2.147.166-2.506.305-.272.106-.78.55-1.39 1.478l-1.761 2.689-1.746 2.664-.294.448h-10.715c-1.418 0-2.145.167-2.505.306-.272.105-.78.548-1.388 1.476l-6.372 9.717h1.989m0 .99h-3.823l7.377-11.25c.45-.687 1.148-1.582 1.859-1.857.637-.247 1.591-.373 2.863-.373h10.18l3.508-5.353c.45-.687 1.151-1.583 1.859-1.859.637-.246 1.591-.372 2.865-.372h3.821c-2.457 3.753-4.916 7.503-7.377 11.25-.45.69-1.148 1.584-1.859 1.86-.634.25-1.591.372-2.863.372h-10.18l-3.511 5.353c-.447.687-1.148 1.582-1.859 1.859-.634.246-1.592.37-2.86.37z" transform="translate(-988.646 -296.62)"/>
                </g>
                <path id="패스_703" d="M1009.2 307.809q-3.5 0-3.5-3.551v-.507q0-3.5 3.5-3.5h.507q3.5 0 3.5 3.5v.507q0 3.551-3.5 3.551z" class="cls-2" transform="translate(-976.698 -300.252)"/>
            </g>
        </g>
    </g>
</svg>
