<svg xmlns="http://www.w3.org/2000/svg" id="ico_health_01" width="80" height="50" viewBox="0 0 80 50">
    <defs>
    </defs>
    <g id="그룹_518" transform="translate(-1373.395 -745.861)">
        <g id="그룹_517" transform="translate(1390.537 756.647)">
            <g id="그룹_516">
                <path id="패스_249" d="M1421.953 773.788a10.376 10.376 0 0 1-3.586.466h-12.74l-4.4 6.7a6.138 6.138 0 0 1-2.326 2.326 10.483 10.483 0 0 1-3.582.464h-4.784q4.613-7.04 9.235-14.084a6.18 6.18 0 0 1 2.327-2.325 10.468 10.468 0 0 1 3.586-.466h12.742q2.2-3.354 4.391-6.7a6.229 6.229 0 0 1 2.327-2.325 10.468 10.468 0 0 1 3.586-.466h4.784q-4.613 7.046-9.234 14.084a6.17 6.17 0 0 1-2.326 2.326z" class="cls-2" transform="translate(-1390.537 -746.34)"/>
                <path id="패스_250" d="M1412.131 761.605q-4.385 0-4.381-4.446v-.633q0-4.385 4.381-4.381h.633q4.385 0 4.381 4.381v.633q0 4.449-4.381 4.446z" class="cls-2" transform="translate(-1371.443 -752.145)"/>
            </g>
        </g>
        <path id="패스_251" d="M1402.258 748.087a8.72 8.72 0 0 0-3.533.73 9.667 9.667 0 0 0-5.556 9.188 10.965 10.965 0 0 0 3.812 8.186v3.417l.143.074a11.706 11.706 0 0 0 10.688-.009l.131-.076v-3.875a12.247 12.247 0 0 0 3.3-8.682 9.148 9.148 0 0 0-8.985-8.953zm-7.57 9.441c0-.854 1.721-1.3 2.538-1.3s2.021.443 2.021 1.3-1.2 1.548-2.021 1.548-2.538-.693-2.538-1.548zm6.636 0c0-.854 1.2-1.3 2.021-1.3s2.537.443 2.537 1.3-1.721 1.548-2.537 1.548-2.022-.693-2.022-1.548zm6.166 7.908l-.074.076v3.78a11.255 11.255 0 0 1-9.907-.006v-2.691a6.373 6.373 0 0 0 3.556 1.259h.065a6.256 6.256 0 0 0 4.3-2.2 12.419 12.419 0 0 0 3.476-8.636c-.224-4.212-2.74-7.534-6.115-8.385a8.658 8.658 0 0 1 7.927 8.439 11.865 11.865 0 0 1-3.229 8.364z" class="cls-2" transform="translate(2.92)"/>
    </g>
</svg>
