<svg xmlns="http://www.w3.org/2000/svg" id="ico_health_07" width="80" height="50" viewBox="0 0 80 50">
    <defs>
    </defs>
    <g id="그룹_471" transform="translate(-2067.477 -746.097)">
        <g id="그룹_469" transform="translate(2083.475 753.799)">
            <path id="패스_208" d="M2115.834 773.4a10.71 10.71 0 0 1-3.693.478h-13.125q-2.264 3.454-4.528 6.9a6.337 6.337 0 0 1-2.4 2.4 10.812 10.812 0 0 1-3.689.478h-4.927q4.751-7.251 9.512-14.507a6.354 6.354 0 0 1 2.4-2.4 10.813 10.813 0 0 1 3.691-.478h13.125q2.265-3.455 4.526-6.9a6.382 6.382 0 0 1 2.4-2.4 10.825 10.825 0 0 1 3.693-.478h4.928q-4.752 7.258-9.513 14.507a6.382 6.382 0 0 1-2.4 2.4z" class="cls-2" transform="translate(-2083.475 -745.124)"/>
            <path id="패스_209" d="M2105.2 761.005q-4.517 0-4.512-4.58v-.652q0-4.517 4.512-4.513h.654q4.517 0 4.513 4.513v.652q0 4.579-4.513 4.58z" class="cls-2" transform="translate(-2063.291 -751.261)"/>
        </g>
        <g id="그룹_470" transform="translate(2085.667 749.097)">
            <path id="패스_210" d="M2102.408 751.27h-2.574v-2.17h-2.173v2.173h-1.33V749.1h-2.173v2.173h-.491V749.1h-2.167v2.173h-1.178V749.1h-2.173v2.173h-2.575a1.087 1.087 0 0 0-1.086 1.086v16.838a1.086 1.086 0 0 0 1.086 1.086h16.838a1.085 1.085 0 0 0 1.086-1.086v-16.841a1.087 1.087 0 0 0-1.09-1.086zm-1.086 16.838h-14.666v-14.666h14.666z" class="cls-2" transform="translate(-2084.483 -749.097)"/>
            <path id="패스_211" d="M2090.645 761.031h.026a1.086 1.086 0 0 0 .8-.35l6.166-6.7-1.6-1.471-5.325 5.788-1.736-2.29h-2.742l3.6 4.632a1.09 1.09 0 0 0 .811.391z" class="cls-2" transform="translate(-2082.43 -745.092)"/>
        </g>
    </g>
</svg>
