<svg xmlns="http://www.w3.org/2000/svg" id="ico_health_03" width="80" height="50" viewBox="0 0 80 50">
    <defs>
    </defs>
    <g id="그룹_465" transform="translate(-1606.516 -746.021)">
        <circle id="타원_12" cx="4.88" cy="4.88" r="4.88" class="cls-2" transform="translate(1626.081 754.309)"/>
        <g id="그룹_462" transform="translate(1622.883 751.11)">
            <path id="패스_198" d="M1630.193 766.654a8.079 8.079 0 1 1 8.079-8.079 8.089 8.089 0 0 1-8.079 8.079zm0-15.014a6.935 6.935 0 1 0 6.935 6.935 6.942 6.942 0 0 0-6.935-6.934z" class="cls-2" transform="translate(-1622.114 -750.497)"/>
        </g>
        <g id="그룹_464" transform="translate(1621.517 750.021)">
            <g id="그룹_463" transform="translate(0 .721)">
                <path id="패스_201" d="M1655.584 773.363a11.215 11.215 0 0 1-3.888.505h-13.818q-2.385 3.637-4.769 7.267a6.667 6.667 0 0 1-2.521 2.523 11.32 11.32 0 0 1-3.886.506h-5.186q5-7.634 10.012-15.272a6.723 6.723 0 0 1 2.523-2.523 11.4 11.4 0 0 1 3.889-.506h13.818q2.384-3.633 4.762-7.267a6.739 6.739 0 0 1 2.523-2.523 11.413 11.413 0 0 1 3.888-.5h5.188q-5 7.641-10.014 15.272a6.676 6.676 0 0 1-2.521 2.518z" class="cls-2" transform="translate(-1621.517 -743.598)"/>
                <path id="패스_202" d="M1643.48 760.6q-4.755 0-4.751-4.822v-.688q0-4.755 4.751-4.751h.686q4.755 0 4.751 4.751v.688q0 4.821-4.751 4.822z" class="cls-2" transform="translate(-1599.36 -750.336)"/>
            </g>
            <path id="패스_203" d="M1628.731 750.021v.011c0 4.069-.947 9.341 3.31 10.542v5.746c-1.912.1-3.353.528-3.353 1.045 0 .59 1.885 1.068 4.211 1.068s4.209-.478 4.209-1.068c0-.517-1.439-.945-3.351-1.045v-5.746c4.415-1.256 3.31-6.473 3.31-10.542v-.011" class="cls-2" transform="translate(-1612.342 -750.021)"/>
        </g>
    </g>
</svg>
