<svg xmlns="http://www.w3.org/2000/svg" id="ico_auto_06" width="80" height="50" viewBox="0 0 80 50">
    <defs>
    </defs>
    <g id="그룹_1299" transform="translate(-1090.439 -744.455)">
        <circle id="타원_45" cx="1.928" cy="1.928" r="1.928" class="cls-2" transform="translate(1146.852 771.848)"/>
        <circle id="타원_46" cx="1.658" cy="1.658" r="1.658" class="cls-2" transform="translate(1149.051 767.518)"/>
        <circle id="타원_47" cx="1.658" cy="1.658" r="1.658" class="cls-2" transform="translate(1145.195 777.23)"/>
        <circle id="타원_48" cx="1.439" cy="1.439" r="1.439" class="cls-2" transform="translate(1152.731 764.422)"/>
        <circle id="타원_49" cx="1.439" cy="1.439" r="1.439" class="cls-2" transform="translate(1141.777 780.546)"/>
        <circle id="타원_50" cx="1.22" cy="1.22" r="1.22" class="cls-2" transform="translate(1157.2 763.74)"/>
        <circle id="타원_51" cx="1.22" cy="1.22" r="1.22" class="cls-2" transform="translate(1137.571 780.984)"/>
        <g id="그룹_1298" transform="translate(1101.241 750.451)">
            <path id="패스_726" d="M1125.863 759.885q-4.373 0-4.368-4.433v-.632q0-4.373 4.368-4.368h.63q4.373 0 4.37 4.368v.632q0 4.434-4.37 4.433z" class="cls-2" transform="translate(-1078.364 -750.451)"/>
            <path id="패스_727" d="M1146.252 755.619a10.442 10.442 0 0 0-3.576.464 6.182 6.182 0 0 0-2.319 2.319q-2.194 3.344-4.38 6.682h-12.7c-.1 0-.192.006-.292.008-5.692-.072-16.324 0-21.74-.077l2.545 4.006a10.38 10.38 0 0 0 2.293 2.749 6.078 6.078 0 0 0 3.184.711c.3 0 .679.006 1.126.006 1.048 0 2.46-.011 3.976-.026q-3.1 4.724-6.195 9.448h4.77a10.461 10.461 0 0 0 3.571-.464 6.132 6.132 0 0 0 2.319-2.319q2.191-3.344 4.385-6.682h12.7a10.371 10.371 0 0 0 3.575-.464 6.169 6.169 0 0 0 2.319-2.321q4.606-7.018 9.208-14.042zm-35.863 14.766h-1.1a4.788 4.788 0 0 1-1.959-.3 8.163 8.163 0 0 1-1.768-2.185l-.471-.743c2.193.009 4.677.009 7.11.009 1.923 0 3.857 0 5.677.006-.183.238-.354.479-.5.7q-.814 1.239-1.627 2.481c-2.029.015-3.999.032-5.362.032z" class="cls-2" transform="translate(-1101.241 -744.614)"/>
        </g>
    </g>
</svg>
