<svg xmlns="http://www.w3.org/2000/svg" id="ico_auto_11" width="80" height="50" viewBox="0 0 80 50">
    <defs>
    </defs>
    <g id="그룹_1322" transform="translate(-744.654 -174.629)">
        <path id="패스_747" d="M795.974 193.139a5.905 5.905 0 0 0-2.886 1.23q-3.14 2.181-6.273 4.364l-11.272-4.539a10.017 10.017 0 0 0-3.337-.865 5.89 5.89 0 0 0-2.887 1.23q-6.594 4.583-13.184 9.169 2.116.854 4.231 1.7a10 10 0 0 0 3.333.865 5.875 5.875 0 0 0 2.887-1.23q3.139-2.184 6.277-4.362l11.272 4.537a9.914 9.914 0 0 0 3.339.867 5.917 5.917 0 0 0 2.886-1.23q6.591-4.583 13.185-9.171l-4.232-1.7a10.025 10.025 0 0 0-3.339-.865z" class="cls-2" transform="translate(2.08 10.689)"/>
        <path id="패스_748" d="M784.591 189.55l-.561-.226q-3.88-1.562-5.436 2.315l-.226.561q-1.583 3.931 2.291 5.493l.561.226q3.88 1.559 5.46-2.375l.226-.559q1.56-3.88-2.315-5.435z" class="cls-2" transform="translate(23.501 6.494)"/>
        <path id="패스_749" d="M770.912 190.561a.61.61 0 0 0 .468 1.01l5.412.038-.318-1.228-3.745-.052 3.561-3.981a.609.609 0 0 0-.452-1.01l-4.466-.05-.639 1.21 3.773.044z" class="cls-2" transform="translate(16.443 2.965)"/>
        <path id="패스_750" d="M774.726 191.541a.476.476 0 0 0 .367.788l4.22.03-.248-.958-2.92-.04 2.777-3.1a.476.476 0 0 0-.353-.788l-3.484-.04-.5.944 2.942.034z" class="cls-2" transform="translate(20.233 5.072)"/>
        <path id="패스_751" d="M759.4 192.314a14.092 14.092 0 0 0 7.8 2.228c6.388 0 11.566-3.789 11.566-8.465 0 0-1.061 1.906-4.551 3.16a13.63 13.63 0 0 1-9.907 3.861 15.557 15.557 0 0 1-4.908-.784z" class="cls-2" transform="translate(5.296 3.741)"/>
        <path id="패스_752" d="M759.913 186.793v10.4h1.508v-4.987a7.381 7.381 0 0 0 .909 1.643 13.716 13.716 0 0 0 7.281 1.984 13.548 13.548 0 0 0 7.664-2.234 23.7 23.7 0 0 1-4.771.452c-6.985 0-10.016-2.416-11.082-3.6v-3.515l.012-.022c.853-.7 2.533-.417 4.291 1.833 0 0 .5-3.753-3.315-3.851l.012-.02c.438-.46 1.889-1.609 4.864-.635 0 0-3.311-4.366-6.632-.1-3.321-4.269-6.632.1-6.632.1 2.994-.98 4.444.188 4.872.643a3.155 3.155 0 0 0-3.283 3.736c1.765-2.255 3.405-2.234 4.302-1.827z" class="cls-2"/>
    </g>
</svg>
