<svg xmlns="http://www.w3.org/2000/svg" id="ico_auto_04" width="80" height="50" viewBox="0 0 80 50">
    <defs>
    </defs>
    <g id="그룹_1294" transform="translate(-856.107 -744.463)">
        <g id="그룹_1292" transform="translate(873.322 750.46)">
            <g id="그룹_1291">
                <path id="패스_720" d="M904.646 771.984a10.307 10.307 0 0 1-3.575.465h-12.705l-4.385 6.683a6.145 6.145 0 0 1-2.319 2.319 10.457 10.457 0 0 1-3.571.463h-4.769q4.6-7.019 9.207-14.042a6.144 6.144 0 0 1 2.319-2.319 10.479 10.479 0 0 1 3.575-.465h12.706l4.379-6.683a6.183 6.183 0 0 1 2.319-2.317 10.434 10.434 0 0 1 3.577-.465h4.769q-4.6 7.025-9.207 14.042a6.143 6.143 0 0 1-2.32 2.319z" class="cls-2" transform="translate(-873.322 -744.617)"/>
                <path id="패스_721" d="M894.671 759.893q-4.371 0-4.368-4.434v-.631q0-4.371 4.368-4.368h.633q4.371 0 4.368 4.368v.631q0 4.435-4.368 4.434z" class="cls-2" transform="translate(-854.103 -750.46)"/>
            </g>
        </g>
        <g id="그룹_1293" transform="translate(885.946 780.65)">
            <path id="패스_722" d="M886.829 764.622l10.772.019-1.2 2.085h-9.57a2.775 2.775 0 0 0-2.155 1.027l-2.784 3.807-2.648.049 3.782-5.15a4.858 4.858 0 0 1 3.803-1.837z" class="cls-2" transform="translate(-879.244 -764.622)"/>
        </g>
    </g>
</svg>
