<svg xmlns="http://www.w3.org/2000/svg" id="ico_auto_02" width="80" height="50" viewBox="0 0 80 50">
    <defs>
    </defs>
    <g id="그룹_1286" transform="translate(-624.58 -744.455)">
        <g id="그룹_1284" transform="translate(641.582 750.453)">
            <path id="패스_714" d="M672.908 771.982a10.371 10.371 0 0 1-3.576.464h-12.706l-4.384 6.682a6.119 6.119 0 0 1-2.32 2.319 10.452 10.452 0 0 1-3.57.464h-4.771q4.6-7.019 9.208-14.043a6.164 6.164 0 0 1 2.319-2.319 10.437 10.437 0 0 1 3.574-.464h12.705q2.192-3.342 4.379-6.682a6.194 6.194 0 0 1 2.32-2.319 10.44 10.44 0 0 1 3.576-.464h4.769q-4.6 7.026-9.206 14.043a6.164 6.164 0 0 1-2.317 2.319z" class="cls-2" transform="translate(-641.582 -744.614)"/>
            <path id="패스_715" d="M662.947 759.884q-4.374 0-4.369-4.432v-.633q0-4.371 4.369-4.366h.63q4.374 0 4.369 4.366v.633q0 4.435-4.369 4.432z" class="cls-2" transform="translate(-622.377 -750.453)"/>
        </g>
        <g id="그룹_1285" transform="translate(676.521 761.599)">
            <path id="패스_716" d="M660.525 772.387l-2.54-.015 11.029-16.686 2.54.013z" class="cls-2" transform="translate(-657.985 -755.686)"/>
        </g>
    </g>
</svg>
