<svg xmlns="http://www.w3.org/2000/svg" id="ico_auto_10" width="80" height="50" viewBox="0 0 80 50">
    <defs>
    </defs>
    <g id="그룹_1321" transform="translate(-510.283 -178.959)">
        <g id="그룹_1309" transform="translate(524.081 192.541)">
            <g id="그룹_1306" transform="translate(0 7.083)">
                <path id="패스_743" d="M555.278 207.494a9.866 9.866 0 0 1-3.323-.861l-11.221-4.517-6.248 4.343a5.858 5.858 0 0 1-2.874 1.224 9.921 9.921 0 0 1-3.319-.861l-4.212-1.7q6.556-4.566 13.126-9.13a5.86 5.86 0 0 1 2.872-1.224 9.977 9.977 0 0 1 3.323.861l11.223 4.517q3.125-2.171 6.244-4.345a5.918 5.918 0 0 1 2.873-1.224 9.989 9.989 0 0 1 3.323.861l4.212 1.7q-6.559 4.569-13.126 9.13a5.865 5.865 0 0 1-2.873 1.226z" class="cls-2" transform="translate(-524.081 -186.161)"/>
                <path id="패스_744" d="M548.534 199.109q-3.862-1.557-2.281-5.47l.224-.559q1.557-3.862 5.41-2.305l.558.226q3.862 1.554 2.305 5.41l-.224.558q-1.577 3.915-5.434 2.363z" class="cls-2" transform="translate(-502.793 -190.33)"/>
            </g>
            <g id="그룹_1307" transform="translate(28.832)">
                <path id="패스_745" d="M544.67 193.045l-5.387-.038a.606.606 0 0 1-.467-1l3.579-4-3.755-.044.636-1.2 4.446.049a.605.605 0 0 1 .449 1l-3.545 3.965 3.729.049z" class="cls-2" transform="translate(-538.64 -186.753)"/>
            </g>
            <g id="그룹_1308" transform="translate(36.443 4.228)">
                <path id="패스_746" d="M547.184 193.8l-4.2-.03a.474.474 0 0 1-.364-.784l2.79-3.119-2.927-.034.495-.941 3.468.04a.472.472 0 0 1 .351.782l-2.765 3.093 2.907.038z" class="cls-2" transform="translate(-542.483 -188.888)"/>
            </g>
        </g>
        <g id="그룹_1320" transform="translate(528.001 180.849)">
            <g id="그룹_1319">
                <g id="그룹_1310" transform="translate(4.445 4.428)">
                    <circle id="타원_52" cx="5.625" cy="5.625" r="5.625" class="cls-2"/>
                </g>
                <g id="그룹_1311" transform="translate(9.456)">
                    <path id="사각형_466" d="M0 0H1.229V3.097H0z" class="cls-2"/>
                </g>
                <g id="그룹_1312" transform="translate(2.36 2.441)">
                    <path id="사각형_467" d="M0 0H1.229V3.098H0z" class="cls-2" transform="rotate(-45 1.049 .435)"/>
                </g>
                <g id="그룹_1313" transform="translate(0 9.536)">
                    <path id="사각형_468" d="M0 0H3.098V1.229H0z" class="cls-2"/>
                </g>
                <g id="그룹_1314" transform="translate(14.706 2.441)">
                    <path id="사각형_469" d="M0 0H3.098V1.229H0z" class="cls-2" transform="rotate(-45 2.645 1.095)"/>
                </g>
                <g id="그룹_1315" transform="translate(9.456 16.974)">
                    <path id="사각형_470" d="M0 0H1.229V3.098H0z" class="cls-2"/>
                </g>
                <g id="그룹_1316" transform="translate(2.36 14.572)">
                    <path id="사각형_471" d="M0 0H3.098V1.229H0z" class="cls-2" transform="rotate(-45 2.645 1.095)"/>
                </g>
                <g id="그룹_1317" transform="translate(14.706 14.572)">
                    <path id="사각형_472" d="M0 0H1.229V3.098H0z" class="cls-2" transform="rotate(-45 1.049 .435)"/>
                </g>
                <g id="그룹_1318" transform="translate(17.028 9.536)">
                    <path id="사각형_473" d="M0 0H3.097V1.229H0z" class="cls-2"/>
                </g>
            </g>
        </g>
    </g>
</svg>
