<svg xmlns="http://www.w3.org/2000/svg" id="ico_auto_09" width="80" height="50" viewBox="0 0 80 50">
    <defs>
    </defs>
    <g id="그룹_1305" transform="translate(-163.628 -742.633)">
        <g id="그룹_1302" transform="translate(177.426 763.299)">
            <path id="패스_739" d="M208.625 774.2a9.846 9.846 0 0 1-3.324-.861l-11.22-4.519-6.249 4.344a5.856 5.856 0 0 1-2.873 1.224 9.963 9.963 0 0 1-3.32-.861l-4.213-1.7q6.557-4.563 13.127-9.13a5.853 5.853 0 0 1 2.873-1.222 9.924 9.924 0 0 1 3.322.861l11.22 4.517 6.247-4.344a5.9 5.9 0 0 1 2.873-1.224 9.966 9.966 0 0 1 3.322.861l4.213 1.7q-6.56 4.569-13.127 9.13a5.877 5.877 0 0 1-2.871 1.224z" class="cls-2" transform="translate(-177.426 -752.871)"/>
            <path id="패스_740" d="M202.09 765.778q-3.86-1.556-2.281-5.47l.226-.557q1.553-3.863 5.411-2.306l.557.226q3.863 1.556 2.3 5.411l-.224.559q-1.577 3.916-5.435 2.361z" class="cls-2" transform="translate(-156.35 -756.999)"/>
        </g>
        <g id="그룹_1303" transform="translate(197.531 750.444)">
            <path id="패스_741" d="M197.636 760.837l-8.9-.063a1 1 0 0 1-.771-1.659l5.909-6.609-6.2-.071 1.051-1.991 7.341.083a1 1 0 0 1 .743 1.659l-5.854 6.549 6.158.082z" class="cls-2" transform="translate(-187.677 -750.444)"/>
        </g>
        <g id="그룹_1304" transform="translate(210.098 757.43)">
            <path id="패스_742" d="M201.852 762.108l-6.937-.049a.78.78 0 0 1-.6-1.292l4.609-5.154-4.836-.055.82-1.551 5.725.063a.78.78 0 0 1 .579 1.294l-4.566 5.105 4.8.065z" class="cls-2" transform="translate(-194.085 -754.006)"/>
        </g>
    </g>
</svg>
