<svg xmlns="http://www.w3.org/2000/svg" id="ico_auto_12" width="80" height="50" viewBox="0 0 80 50">
    <defs>
    </defs>
    <g id="그룹_1329" transform="translate(-625.854 -176.178)">
        <g id="그룹_1323" transform="translate(639.684 197.015)">
            <path id="패스_753" d="M670.881 206.547a9.856 9.856 0 0 1-3.324-.861l-11.219-4.517q-3.127 2.175-6.249 4.343a5.842 5.842 0 0 1-2.873 1.223 9.912 9.912 0 0 1-3.318-.861l-4.213-1.7 13.125-9.127a5.838 5.838 0 0 1 2.873-1.223 9.931 9.931 0 0 1 3.322.861l11.221 4.517 6.243-4.345a5.881 5.881 0 0 1 2.873-1.223 9.942 9.942 0 0 1 3.324.861l4.211 1.7q-6.56 4.571-13.124 9.129a5.854 5.854 0 0 1-2.872 1.223z" class="cls-2" transform="translate(-639.684 -185.217)"/>
            <path id="패스_754" d="M663.9 198.21q-3.863-1.556-2.281-5.468l.224-.559q1.553-3.86 5.41-2.3l.559.224q3.859 1.556 2.3 5.412l-.226.557q-1.574 3.917-5.432 2.363z" class="cls-2" transform="translate(-618.159 -189.432)"/>
        </g>
        <g id="그룹_1328" transform="translate(644.618 181.867)">
            <g id="그룹_1324" transform="translate(21.109 5.569)">
                <path id="패스_755" d="M654.716 185.271l4.159.739a.575.575 0 0 1 .264 1.009l-3.939 3.166 3.488.627.106 1.2-5.044-.873a.576.576 0 0 1-.28-1.013l3.975-3.2-3.512-.623.783-1.031m-.244-.623l-.21.278-.783 1.031-.567.743.921.164 2.275.4-3 2.409a1.146 1.146 0 0 0 .555 2.022l5.03.869.731.128-.064-.741-.106-1.193-.038-.435-.43-.078-2.253-.4 2.961-2.379a1.147 1.147 0 0 0-.523-2.018l-4.159-.737-.344-.062z" class="cls-2" transform="translate(-652.69 -184.648)"/>
            </g>
            <g id="그룹_1325" transform="translate(29.187 10.278)">
                <path id="패스_756" d="M658.43 187.623l3.244.575a.448.448 0 0 1 .206.787l-3.07 2.469 2.719.489.082.931-3.933-.679a.45.45 0 0 1-.22-.791l3.1-2.491-2.739-.487.611-.8m-.242-.623l-.212.276-.611.8-.565.743.919.164 1.5.266-2.12 1.7a1.018 1.018 0 0 0 .493 1.8l3.919.679.731.126-.064-.739-.084-.931-.038-.435-.428-.078-1.486-.266 2.094-1.682a1.021 1.021 0 0 0-.465-1.8l-3.244-.575-.342-.06z" class="cls-2" transform="translate(-656.724 -187)"/>
            </g>
            <g id="그룹_1327">
                <path id="패스_757" d="M642.887 183.093a.669.669 0 0 0-.739.567v7.006a.67.67 0 0 0 .739.567h2.761v-8.14z" class="cls-2" transform="translate(-642.148 -180.638)"/>
                <path id="패스_758" d="M648.675 181.925a.954.954 0 0 0-.328-.058.885.885 0 0 0-.447.116l-3.712 2.167v8.484l3.712 2.166a.921.921 0 0 0 .775.056.573.573 0 0 0 .41-.507v-11.915a.579.579 0 0 0-.41-.509" class="cls-2" transform="translate(-640.103 -181.867)"/>
                <g id="그룹_1326" transform="translate(11.987 .38)">
                    <path id="패스_759" d="M649 182.538a.4.4 0 0 1 .2.054 6.463 6.463 0 0 1 0 11.1.387.387 0 1 1-.4-.663 5.689 5.689 0 0 0 0-9.777.386.386 0 0 1 .2-.717m0-.481a.872.872 0 0 0-.745.423.865.865 0 0 0 .3 1.187 5.211 5.211 0 0 1 0 8.955.866.866 0 0 0-.3 1.191.865.865 0 0 0 1.187.294 6.944 6.944 0 0 0 0-11.926.87.87 0 0 0-.444-.124z" class="cls-2" transform="translate(-648.134 -182.057)"/>
                </g>
                <path id="패스_760" d="M648.4 183.545a.577.577 0 0 0-.857.637.565.565 0 0 0 .264.354 2.548 2.548 0 0 1 0 4.4.58.58 0 0 0-.2.793.574.574 0 0 0 .356.264.564.564 0 0 0 .142.018.574.574 0 0 0 .294-.082 3.7 3.7 0 0 0 0-6.38z" class="cls-2" transform="translate(-636.76 -180.268)"/>
            </g>
        </g>
    </g>
</svg>
