<svg xmlns="http://www.w3.org/2000/svg" id="ico_auto_03" width="80" height="50" viewBox="0 0 80 50">
    <defs>
    </defs>
    <g id="그룹_1290" transform="translate(-740.602 -744.463)">
        <g id="그룹_1288" transform="translate(757.817 750.46)">
            <g id="그룹_1287">
                <path id="패스_717" d="M789.141 771.984a10.3 10.3 0 0 1-3.575.465h-12.705l-4.385 6.683a6.145 6.145 0 0 1-2.319 2.319 10.45 10.45 0 0 1-3.571.463h-4.769q4.6-7.019 9.207-14.042a6.159 6.159 0 0 1 2.319-2.319 10.478 10.478 0 0 1 3.575-.465h12.706l4.379-6.683a6.184 6.184 0 0 1 2.319-2.317 10.435 10.435 0 0 1 3.577-.465h4.769q-4.6 7.025-9.207 14.042a6.143 6.143 0 0 1-2.32 2.319z" class="cls-2" transform="translate(-757.817 -744.617)"/>
                <path id="패스_718" d="M779.166 759.893q-4.371 0-4.368-4.434v-.631q0-4.371 4.368-4.368h.633q4.371 0 4.368 4.368v.631q0 4.435-4.368 4.434z" class="cls-2" transform="translate(-738.598 -750.46)"/>
            </g>
        </g>
        <g id="그룹_1289" transform="translate(783.505 772.925)">
            <path id="패스_719" d="M775.542 769.883l-5.675-.017 1.2-2.087h4.475a2.767 2.767 0 0 0 2.153-1.028l4.27-5.7 2.648-.049-5.266 7.048a4.858 4.858 0 0 1-3.805 1.833z" class="cls-2" transform="translate(-769.867 -760.998)"/>
        </g>
    </g>
</svg>
