<svg xmlns="http://www.w3.org/2000/svg" id="ico_auto_01" width="80" height="50" viewBox="0 0 80 50">
    <defs>
    </defs>
    <g id="그룹_287" transform="translate(-1952.055 -62.637)">
        <g id="그룹_285" transform="translate(1967.055 68.638)">
            <path id="패스_13" d="M1998.378 90.233a10.356 10.356 0 0 1-3.575.463h-12.7q-2.192 3.344-4.385 6.684a6.117 6.117 0 0 1-2.32 2.318 10.39 10.39 0 0 1-3.571.465h-4.77q4.6-7.019 9.207-14.042a6.178 6.178 0 0 1 2.32-2.32 10.491 10.491 0 0 1 3.575-.463h12.7q2.189-3.344 4.379-6.684a6.2 6.2 0 0 1 2.32-2.32 10.493 10.493 0 0 1 3.575-.463h4.77q-4.6 7.025-9.208 14.042a6.15 6.15 0 0 1-2.317 2.32z" class="cls-2" transform="translate(-1967.055 -62.866)"/>
            <path id="패스_14" d="M1988.636 78.07q-4.373 0-4.368-4.433V73q0-4.369 4.368-4.366h.631q4.373 0 4.368 4.366v.633q0 4.432-4.368 4.433z" class="cls-2" transform="translate(-1948.068 -68.638)"/>
        </g>
        <g id="그룹_286" transform="translate(2006.04 70.766)">
            <path id="패스_15" d="M1988.072 88.5h-2.479s5.308-8.238 7.367-11.645a8.8 8.8 0 0 0 .8-6.341l1.971-.869c.057.179 1.228 4.759-1.005 8.351-2.099 3.377-6.654 10.504-6.654 10.504z" class="cls-2" transform="translate(-1985.592 -69.65)"/>
        </g>
    </g>
</svg>
