<svg xmlns="http://www.w3.org/2000/svg" id="ico_auto_14" width="80" height="50" viewBox="0 0 80 50">
    <defs>
    </defs>
    <g id="그룹_1335" transform="translate(-971.953 -176.277)">
        <g id="그룹_1333" transform="translate(990.132 182.276)">
            <g id="그룹_1332">
                <g id="그룹_1331">
                    <path id="패스_766" d="M1020.434 203.8a10.365 10.365 0 0 1-3.575.463h-12.7l-4.383 6.684a6.146 6.146 0 0 1-2.32 2.32 10.468 10.468 0 0 1-3.571.463h-4.771q4.6-7.02 9.208-14.044a6.153 6.153 0 0 1 2.32-2.318 10.426 10.426 0 0 1 3.575-.465h12.7q2.191-3.342 4.379-6.684a6.184 6.184 0 0 1 2.32-2.317 10.43 10.43 0 0 1 3.575-.465h4.771q-4.6 7.026-9.208 14.043a6.174 6.174 0 0 1-2.32 2.32z" class="cls-2" transform="translate(-989.108 -176.433)"/>
                    <path id="패스_767" d="M1010.456 191.708q-4.371 0-4.368-4.432v-.633q0-4.372 4.368-4.366h.631q4.372 0 4.368 4.366v.633q0 4.432-4.368 4.432z" class="cls-2" transform="translate(-969.886 -182.276)"/>
                </g>
            </g>
        </g>
        <g id="그룹_1334" transform="translate(988.203 182.686)">
            <path id="패스_768" fill="#fff" fill-rule="evenodd" d="M1001.264 183.95c5.383-5.594 8.323 6.748 13.063 2.731-1.752 5.993-9.012 5.185-13.063-1.241-4.049 6.426-11.31 7.234-13.061 1.241 4.74 4.017 7.68-8.326 13.061-2.731z" transform="translate(-988.203 -182.468)"/>
        </g>
    </g>
</svg>
