<svg xmlns="http://www.w3.org/2000/svg" id="ico_auto_05" width="80" height="50" viewBox="0 0 80 50">
    <defs>
    </defs>
    <g id="그룹_1297" transform="translate(-973.453 -744.461)">
        <g id="그룹_1295" transform="translate(987.203 750.458)">
            <path id="패스_723" d="M1011.807 759.891q-4.37 0-4.367-4.433v-.633q0-4.37 4.367-4.367h.633q4.37 0 4.367 4.367v.633q0 4.434-4.367 4.433z" class="cls-2" transform="translate(-964.309 -750.458)"/>
            <path id="패스_724" d="M1032.214 755.622a10.42 10.42 0 0 0-3.574.465 6.179 6.179 0 0 0-2.321 2.319q-2.19 3.344-4.38 6.684h-12.7c-.1 0-.192.006-.292.006-5.691-.073-16.324 0-21.739-.075l2.545 4a10.353 10.353 0 0 0 2.293 2.752 6.108 6.108 0 0 0 3.182.712c.3 0 .682.006 1.127.006 1.049 0 2.462-.013 3.975-.026q-3.1 4.725-6.194 9.446h4.77a10.471 10.471 0 0 0 3.572-.463 6.147 6.147 0 0 0 2.319-2.319l4.384-6.684h12.7a10.314 10.314 0 0 0 3.576-.465 6.14 6.14 0 0 0 2.319-2.319q4.607-7.02 9.207-14.043zM996.35 770.39c-.435 0-.806 0-1.1-.007a4.862 4.862 0 0 1-1.959-.3 8.323 8.323 0 0 1-1.767-2.187l-.471-.742c2.2.008 4.678.008 7.112.008h5.676c-.183.241-.352.482-.5.7q-.812 1.241-1.626 2.481c-2.031.028-4.001.047-5.365.047z" class="cls-2" transform="translate(-987.203 -744.616)"/>
        </g>
        <g id="그룹_1296" transform="translate(1014.211 779.74)">
            <path id="패스_725" d="M1007.56 764.2l10.917.019-1.217 2.112h-9.7a2.8 2.8 0 0 0-2.182 1.044l-2.822 3.858-2.683.049 3.83-5.22a4.922 4.922 0 0 1 3.857-1.862z" class="cls-2" transform="translate(-999.875 -764.197)"/>
        </g>
    </g>
</svg>
