<svg xmlns="http://www.w3.org/2000/svg" width="45" height="45" viewBox="0 0 45 45">
    <g>
        <g>
            <path fill="#ffffff" stroke="#ffffff" stroke-width="0.5px" d="M34.133 16.183a5.439 5.439 0 0 0-2.084-4.283v-1.413a10.487 10.487 0 1 0-20.974 0v1.033A5.452 5.452 0 0 0 13.9 21.634v-10.9a5.514 5.514 0 0 0-1.131.118v-.362a8.791 8.791 0 0 1 17.583 0v.506a5.438 5.438 0 0 0-1.673-.262v10.9a5.441 5.441 0 0 0 1.032-.1 6.058 6.058 0 0 1-4.482 3.452.944.944 0 0 0-.706-.319h-1.7a.953.953 0 0 0 0 1.906h1.7a.951.951 0 0 0 .89-.619 7.115 7.115 0 0 0 5.507-4.806 5.443 5.443 0 0 0 3.213-4.965z" transform="translate(1.186 9.652) translate(8.449) translate(-8.449)"/>
        </g>
    </g>
</svg>
