<svg xmlns="http://www.w3.org/2000/svg" width="129.651" height="123.484" viewBox="0 0 129.651 123.484">
    <defs>
    </defs>
    <g id="img_logo" transform="translate(-320.333 -201.743)">
        <path id="패스_1521" d="M427.986 220.8a61.846 61.846 0 0 1-.883 6.921c-.395 2.566-1.964 8.793-4.66 12.744a16.484 16.484 0 0 1-1.935 2.336 21.082 21.082 0 0 1 4.062 1.632.4.4 0 0 1 .15.55.413.413 0 0 1-.559.147c-1.244-.31-2.853-.763-4.88-1.186a22.222 22.222 0 0 1-4.1 2.766 29.04 29.04 0 0 1-10.786 2.82 60.852 60.852 0 0 1-14.142-1.013c-.5-.1-.972-.2-1.432-.3a28.193 28.193 0 0 0-7.879 11.105 62.73 62.73 0 0 0-3.544 16.935.409.409 0 0 1-.817 0c-.019-1.344.088-3.775.247-7.153a61.888 61.888 0 0 1 .883-6.921c.395-2.565 1.964-8.792 4.66-12.744a16.484 16.484 0 0 1 1.935-2.336 21.127 21.127 0 0 1-4.062-1.631.4.4 0 0 1-.15-.551.412.412 0 0 1 .559-.147c1.244.309 2.853.763 4.88 1.186a22.158 22.158 0 0 1 4.1-2.766 29.036 29.036 0 0 1 10.786-2.82 60.777 60.777 0 0 1 14.142 1.014c.5.1.972.2 1.432.294a28.192 28.192 0 0 0 7.879-11.1 62.765 62.765 0 0 0 3.544-16.935.409.409 0 0 1 .817 0c.019 1.344-.088 3.776-.247 7.152m-59.632 67.362h68.108v-86.418h-68.108zm37.475-45.282c-.924.037-8.687-.027-14.8 3.759-.075.047-.144.1-.218.145a57.072 57.072 0 0 0 8.177.244c.924-.037 8.687.027 14.8-3.76.075-.046.144-.1.218-.145a57.072 57.072 0 0 0-8.177-.244" class="cls-1" data-name="패스 1521" transform="translate(-17.249)"/>
        <g id="그룹_26" data-name="그룹 26" transform="translate(320.333 304.723)">
            <path id="패스_1522" d="M325.191 378.65h-1.433v-6.131h1.106c2.044 0 2.818 1.02 2.818 3.063 0 2.02-.664 3.068-2.491 3.068m-1.433-14.313h1.3c1.523 0 2.24.966 2.24 2.818A2.268 2.268 0 0 1 325 369.7h-1.241zm4.588 6.632a4.289 4.289 0 0 0 2.372-4.176c0-3.4-1.626-5.275-5.3-5.275h-5.084v19.949h5.411c3.9 0 5.364-2.486 5.364-5.776 0-2.568-1.025-3.949-2.762-4.723" class="cls-1" data-name="패스 1522" transform="translate(-320.333 -361.242)"/>
            <path id="패스_1523" d="M349.564 376.4c0 1.491-.441 2.2-1.821 2.2s-1.823-.711-1.823-2.2v-10.119c0-1.491.443-2.212 1.823-2.212s1.821.721 1.821 2.212zm-1.821-15.309c-3.593 0-5.247 2.293-5.247 5.112v10.279c0 2.818 1.654 5.112 5.247 5.112s5.251-2.294 5.251-5.112V366.2c0-2.819-1.659-5.112-5.251-5.112" class="cls-1" data-name="패스 1523" transform="translate(-328.294 -361.087)"/>
            <path id="패스_1524" d="M489.994 372.932h-.058l-4.175-11.413h-3.174v19.95h3.092v-12.457h.058l4.363 12.456h2.986v-19.95h-3.092z" class="cls-1" data-name="패스 1524" transform="translate(-377.699 -361.242)"/>
            <path id="패스_1525" d="M466.23 372.629h4.427v-2.982h-4.427v-5.141h5.752v-2.987h-9.176v19.95h9.56v-2.982h-6.136z" class="cls-1" data-name="패스 1525" transform="translate(-370.807 -361.242)"/>
            <path id="패스_1526" d="M511.913 375.86c0 2.1-.632 2.79-2.456 2.79h-1.187v-14.318h1.188c1.823 0 2.456.7 2.456 2.8zm-1.984-14.341h-5.083v19.95h5.083c3.535 0 5.416-1.934 5.416-6.021v-7.9c0-4.089-1.88-6.027-5.416-6.027" class="cls-1" data-name="패스 1526" transform="translate(-385.694 -361.242)"/>
            <path id="사각형_193" d="M0 0H3.432V19.95H0z" class="cls-1" data-name="사각형 193" transform="translate(84.656 .276)"/>
            <path id="패스_1527" d="M391.218 369.118h-.054l-2.4-7.6h-3.477l4.141 11.658v8.291h3.429v-8.291l4.141-11.658h-3.482z" class="cls-1" data-name="패스 1527" transform="translate(-343.337 -361.242)"/>
            <path id="패스_1528" d="M372.682 375.86c0 2.1-.629 2.79-2.459 2.79h-1.185v-14.313h1.185c1.83 0 2.459.693 2.459 2.789zm-1.982-14.341h-5.083v19.95h5.083c3.535 0 5.416-1.934 5.416-6.021v-7.9c0-4.093-1.881-6.027-5.416-6.027" class="cls-1" data-name="패스 1528" transform="translate(-336.373 -361.242)"/>
            <path id="패스_1529" d="M433.174 370.474h-1.216v-6.138h1.216c1.851 0 2.545.693 2.545 3.068s-.694 3.069-2.545 3.069m5.968-3.069c0-4.255-1.963-5.886-5.8-5.886h-4.812v19.95h3.425v-8.176a17.105 17.105 0 0 0 1.769-.082l2.434 8.258h3.483l-2.906-9.032c1.164-.524 2.4-1.823 2.4-5.032" class="cls-1" data-name="패스 1529" transform="translate(-358.658 -361.242)"/>
            <path id="패스_1530" d="M408.126 381.468h3.429v-8.84h4.589v-2.981h-4.589v-5.142h6.137v-2.987h-9.566z" class="cls-1" data-name="패스 1530" transform="translate(-351.435 -361.242)"/>
        </g>
    </g>
</svg>