<svg width="45" height="45" viewBox="0 0 45 45" fill="none" xmlns="http://www.w3.org/2000/svg">
<path d="M38.3372 24.1742C37.8168 29.0668 35.0462 33.6517 30.4617 36.3002C22.8449 40.7004 13.1053 38.0891 8.70773 30.4677L8.23934 29.656M6.66173 20.826C7.1822 15.9333 9.95276 11.3484 14.5373 8.69998C22.1541 4.29978 31.8937 6.91106 36.2912 14.5324L36.7596 15.3442M6.5625 33.8718L7.93402 28.7501L13.0526 30.1225M31.9474 14.8777L37.066 16.25L38.4375 11.1284" stroke="white" stroke-width="2" stroke-linecap="round" stroke-linejoin="round"/>
<path d="M22.5 25.4883C24.1504 25.4883 25.4883 24.1504 25.4883 22.5C25.4883 20.8496 24.1504 19.5117 22.5 19.5117C20.8496 19.5117 19.5117 20.8496 19.5117 22.5C19.5117 24.1504 20.8496 25.4883 22.5 25.4883Z" fill="white"/>
</svg>
