<svg width="45" height="45" viewBox="0 0 45 45" fill="none" xmlns="http://www.w3.org/2000/svg">
<path d="M22.5 37.5L20.5461 35.7533C17.5855 33.1332 15.1431 30.877 13.2188 28.9847C11.2944 27.0924 9.76974 25.4109 8.64474 23.9402C7.51974 22.4706 6.7352 21.1314 6.29112 19.9227C5.84704 18.7151 5.625 17.4854 5.625 16.2336C5.625 13.7591 6.47645 11.6846 8.17934 10.01C9.88105 8.33668 11.9901 7.5 14.5066 7.5C16.0461 7.5 17.5115 7.85633 18.903 8.569C20.2944 9.28282 21.4934 10.3093 22.5 11.6485C23.5066 10.3093 24.7056 9.28282 26.097 8.569C27.4885 7.85633 28.9539 7.5 30.4934 7.5C33.0099 7.5 35.1189 8.33668 36.8207 10.01C38.5236 11.6846 39.375 13.7591 39.375 16.2336C39.375 17.4854 39.153 18.7151 38.7089 19.9227C38.2648 21.1314 37.4803 22.4706 36.3553 23.9402C35.2303 25.4109 33.7056 27.0924 31.7813 28.9847C29.8569 30.877 27.4145 33.1332 24.4539 35.7533L22.5 37.5Z" stroke="white" stroke-width="2" stroke-linejoin="round"/>
</svg>
