<svg width="45" height="45" viewBox="0 0 45 45" fill="none" xmlns="http://www.w3.org/2000/svg">
<path d="M7.78113 20.3544C7.78113 15.075 7.78113 12.4353 8.40443 11.5473C9.02773 10.6592 11.5098 9.80959 16.4738 8.11038L17.4196 7.78664C20.0072 6.90089 21.301 6.45801 22.6407 6.45801C23.9803 6.45801 25.2741 6.90089 27.8618 7.78664L28.8075 8.11038C33.7716 9.80959 36.2536 10.6592 36.8769 11.5473C37.5002 12.4353 37.5002 15.075 37.5002 20.3544C37.5002 21.1519 37.5002 22.0166 37.5002 22.9543C37.5002 32.2631 30.5014 36.7805 26.1103 38.6987C24.9191 39.219 24.3235 39.4792 22.6407 39.4792C20.9578 39.4792 20.3622 39.219 19.1711 38.6987C14.7799 36.7805 7.78113 32.2631 7.78113 22.9543C7.78113 22.0166 7.78113 21.1519 7.78113 20.3544Z" stroke="white" stroke-width="2"/>
<path d="M22.6407 32.4747L21.4821 31.4551C19.7266 29.9257 18.2783 28.6088 17.1372 27.5042C15.9961 26.3997 15.092 25.4182 14.4249 24.5597C13.7578 23.7019 13.2926 22.9202 13.0293 22.2146C12.7659 21.5098 12.6343 20.792 12.6343 20.0613C12.6343 18.6169 13.1392 17.406 14.1489 16.4285C15.158 15.4518 16.4086 14.9634 17.9008 14.9634C18.8137 14.9634 19.6827 15.1714 20.5078 15.5874C21.3329 16.004 22.0439 16.6032 22.6407 17.3849C23.2376 16.6032 23.9486 16.004 24.7737 15.5874C25.5988 15.1714 26.4678 14.9634 27.3806 14.9634C28.8728 14.9634 30.1234 15.4518 31.1325 16.4285C32.1423 17.406 32.6472 18.6169 32.6472 20.0613C32.6472 20.792 32.5155 21.5098 32.2522 22.2146C31.9889 22.9202 31.5236 23.7019 30.8565 24.5597C30.1895 25.4182 29.2854 26.3997 28.1443 27.5042C27.0032 28.6088 25.5549 29.9257 23.7994 31.4551L22.6407 32.4747Z" stroke="white" stroke-width="2" stroke-linejoin="round"/>
</svg>
