<svg width="45" height="45" viewBox="0 0 45 45" fill="none" xmlns="http://www.w3.org/2000/svg">
<path d="M21.3136 4.39014C12.8804 4.39014 6.03662 11.1728 6.03662 19.5486C6.03662 24.4374 8.36926 28.7844 11.9868 31.5552V37.4773C11.9868 38.6899 12.7753 39.7864 14.0094 40.0167C15.4962 40.2941 17.931 40.6096 21.3136 40.6096C24.6961 40.6096 24.0099 40.5655 25.2439 40.3353C26.478 40.105 27.1647 38.9633 27.1647 37.4773L27.2561 35.3962L31.5653 35.3799C33.2013 35.3799 34.5763 34.4138 34.7101 32.8205L35.1719 27.3232C36.5149 26.9673 37.5148 26.4791 38.1993 26.0595C39.1026 25.5057 39.1613 24.3676 38.6049 23.5898L35.4897 19.2356C35.3217 11.0044 29.6415 4.39014 21.3136 4.39014Z" stroke="white" stroke-width="2" stroke-linejoin="round"/>
<path d="M24.7791 27.7452C24.248 27.8967 23.6946 27.5891 23.543 27.058C23.3915 26.527 23.6991 25.9735 24.2302 25.822L24.7791 27.7452ZM24.2302 25.822C26.5919 25.1479 27.7579 23.098 27.7998 20.3607L29.7996 20.3913C29.7492 23.6771 28.2709 26.7486 24.7791 27.7452L24.2302 25.822Z" fill="white"/>
<path d="M29.1687 18.6755C28.9534 18.4481 28.5913 18.4481 28.3761 18.6755L26.6349 20.5147C26.3055 20.8626 26.5521 21.4357 27.0312 21.4357H30.5136C30.9926 21.4357 31.2392 20.8626 30.9099 20.5147L29.1687 18.6755Z" fill="white"/>
<path d="M29.7343 15.5396C29.8859 16.0707 29.5782 16.6241 29.0472 16.7757C28.5161 16.9273 27.9627 16.6196 27.8111 16.0885L29.7343 15.5396ZM27.8111 16.0885C27.137 13.7268 25.0872 12.5609 22.3498 12.5189L22.3804 10.5192C25.6662 10.5695 28.7377 12.0478 29.7343 15.5396L27.8111 16.0885Z" fill="white"/>
<path d="M20.6646 11.1504C20.4372 11.3657 20.4372 11.7278 20.6646 11.943L22.5039 13.6842C22.8518 14.0136 23.4248 13.7669 23.4248 13.2879L23.4248 9.80551C23.4248 9.32647 22.8518 9.07985 22.5039 9.40918L20.6646 11.1504Z" fill="white"/>
<path d="M17.6368 10.8632C18.1679 10.7116 18.7213 11.0193 18.8728 11.5504C19.0244 12.0814 18.7168 12.6348 18.1857 12.7864L17.6368 10.8632ZM18.1857 12.7864C15.824 13.4605 14.658 15.5104 14.6161 18.2477L12.6163 18.2171C12.6667 14.9313 14.145 11.8598 17.6368 10.8632L18.1857 12.7864Z" fill="white"/>
<path d="M13.2471 19.9329C13.4623 20.1603 13.8244 20.1603 14.0397 19.9329L15.7809 18.0936C16.1102 17.7458 15.8636 17.1727 15.3846 17.1727L11.9022 17.1727C11.4231 17.1727 11.1765 17.7458 11.5059 18.0936L13.2471 19.9329Z" fill="white"/>
<path d="M12.6813 22.7905C12.5298 22.2594 12.8374 21.706 13.3685 21.5544C13.8996 21.4028 14.453 21.7105 14.6045 22.2415L12.6813 22.7905ZM14.6045 22.2415C15.2786 24.6033 17.3285 25.7692 20.0659 25.8112L20.0352 27.8109C16.7494 27.7606 13.678 26.2823 12.6813 22.7905L14.6045 22.2415Z" fill="white"/>
<path d="M21.7513 27.1797C21.9787 26.9644 21.9787 26.6023 21.7513 26.387L19.912 24.6458C19.5641 24.3165 18.9911 24.5631 18.9911 25.0422L18.9911 28.5246C18.9911 29.0036 19.5641 29.2502 19.912 28.9209L21.7513 27.1797Z" fill="white"/>
</svg>
