<svg width="24" height="24" viewBox="0 0 24 24" fill="none" xmlns="http://www.w3.org/2000/svg">
<g opacity="0.5">
<path fill-rule="evenodd" clip-rule="evenodd" d="M17.6577 5.35266C17.6577 6.62061 18.267 7.25003 19.4944 7.25003H19.7632C20.9906 7.25003 21.5999 6.62061 21.5999 5.35266V5.079C21.5999 3.8384 20.9906 3.20898 19.7632 3.20898H19.4944C18.267 3.20898 17.6577 3.82928 17.6577 5.079V5.35266ZM14.0919 16.7405C14.7639 16.7405 15.2656 16.6767 15.5971 16.5398C15.9734 16.3939 16.3407 15.9104 16.5737 15.5455C17.2188 14.5421 17.8661 13.5387 18.5134 12.5353C19.1607 11.5319 19.808 10.5284 20.4531 9.52502H18.4462C17.7742 9.52502 17.2725 9.598 16.941 9.72571C16.5737 9.87166 16.2063 10.3551 15.9644 10.72C15.6553 11.1989 15.3484 11.6756 15.0416 12.1522C14.7347 12.6288 14.4279 13.1054 14.1188 13.5843H8.76108C8.08912 13.5843 7.5874 13.6573 7.2559 13.785C6.8796 13.931 6.51227 14.4144 6.27932 14.7793C5.63427 15.7827 4.98697 16.7861 4.33968 17.7895C3.69234 18.7929 3.045 19.7964 2.3999 20.7998H4.41577C5.08772 20.7998 5.58945 20.7268 5.92095 20.5991C6.28828 20.4532 6.66458 19.9697 6.89752 19.6048C7.20659 19.126 7.51342 18.6494 7.82025 18.1728C8.12714 17.6962 8.43403 17.2195 8.74316 16.7405H14.0919Z" fill="white"/>
</g>
</svg>
