<svg width="45" height="45" viewBox="0 0 45 45" fill="none" xmlns="http://www.w3.org/2000/svg">
<path d="M13.0078 24.375L12.1875 24.8286L8.1334 27.0702C6.66387 27.8833 6.66387 30.2033 8.1334 31.0163L20.7211 37.9765C21.8426 38.5912 23.1574 38.5912 24.2789 37.9765L36.8666 31.0163C38.3361 30.2033 38.3361 27.8833 36.8666 27.0702L32.8125 24.8286L31.9922 24.375" stroke="white" stroke-width="2" stroke-linecap="round" stroke-linejoin="round"/>
<path d="M24.2789 6.99959L36.8666 13.5982C38.3361 14.369 38.3361 16.5686 36.8666 17.3393L24.2789 23.938C23.1574 24.5208 21.8426 24.5208 20.7211 23.938L8.1334 17.3393C6.66387 16.5686 6.66387 14.369 8.1334 13.5982L20.7211 6.99959C21.8426 6.4168 23.1574 6.4168 24.2789 6.99959Z" stroke="white" stroke-width="2" stroke-linecap="round" stroke-linejoin="round"/>
</svg>
