<svg width="45" height="45" viewBox="0 0 45 45" fill="none" xmlns="http://www.w3.org/2000/svg">
<path d="M18.5028 39.3751V25.7452C18.5028 24.8845 18.8447 24.0591 19.4533 23.4505C20.0619 22.8419 20.8873 22.5 21.748 22.5V22.5C22.6087 22.5 23.4341 22.8419 24.0427 23.4505C24.6513 24.0591 24.9932 24.8845 24.9932 25.7452V32.8847H30.1855C31.5626 32.8847 32.8833 33.4317 33.857 34.4055C34.8308 35.3792 35.3778 36.6999 35.3778 38.077V39.3751" stroke="white" stroke-width="2" stroke-linecap="round" stroke-linejoin="round"/>
<path d="M13.2608 26.9409C11.5228 25.194 10.3395 22.9687 9.86044 20.5464C9.38141 18.1242 9.62819 15.6136 10.5696 13.3322C11.511 11.0508 13.1047 9.10089 15.1493 7.72904C17.1939 6.3572 19.5975 5.625 22.0564 5.625C24.5153 5.625 26.9189 6.3572 28.9635 7.72904C31.0081 9.10089 32.6018 11.0508 33.5432 13.3322C34.4846 15.6136 34.7314 18.1242 34.2524 20.5464C33.7733 22.9687 32.59 25.194 30.852 26.9409" stroke="white" stroke-width="2" stroke-linecap="round" stroke-linejoin="round"/>
</svg>
