<svg width="24" height="24" viewBox="0 0 24 24" fill="none" xmlns="http://www.w3.org/2000/svg">
<path d="M21.8932 7.7633C20.7936 7.95811 19.7443 7.22464 19.5495 6.12505C19.3547 5.02546 20.0882 3.97615 21.1878 3.78134C22.2873 3.58654 23.3367 4.32001 23.5315 5.4196C23.7263 6.51918 22.9928 7.5685 21.8932 7.7633Z" fill="white"/>
<path d="M7.46757 8.44882L13.6287 10.6859L17.5813 7.90812L21.1103 9.19039L14.0823 14.1276L7.92115 11.8906L3.966 14.6666L0.437378 13.3865L7.46757 8.44882Z" fill="white"/>
<path d="M22.9449 15.2061C18.1544 18.7138 11.9507 19.9251 6.32944 17.9525C4.48725 17.3279 2.73548 16.3879 1.05521 15.2061C2.24129 16.8905 3.92155 18.249 5.82263 19.1743C11.4943 22.0133 19.2437 20.4529 22.9449 15.2061Z" fill="white"/>
</svg>
