<svg width="24" height="24" viewBox="0 0 24 24" fill="none" xmlns="http://www.w3.org/2000/svg">
<g opacity="0.5">
<circle cx="12" cy="12" r="3" stroke="white" stroke-width="1.5"/>
<path d="M12 21C11.4825 21 10.9576 21 10.4401 21C9.77264 21 9.18018 20.5125 9.06018 19.8825C8.99269 19.545 8.94019 19.2075 8.8802 18.87C8.7677 18.21 8.05525 17.8275 7.39529 18.0675C7.08031 18.1875 6.76533 18.3 6.45035 18.405C5.77539 18.6225 5.10043 18.39 4.74046 17.7975C4.20799 16.9275 3.69052 16.0575 3.18055 15.18C2.84308 14.6025 2.99307 13.89 3.51053 13.4625C3.77302 13.245 4.0505 13.035 4.32048 12.81C4.80045 12.4125 4.83795 11.7375 4.41048 11.295C4.26049 11.145 4.0805 11.0175 3.91551 10.8825C3.72802 10.725 3.52553 10.5825 3.36054 10.4025C2.94057 9.945 2.88807 9.315 3.21055 8.775C3.71302 7.935 4.20799 7.095 4.71046 6.255C5.03294 5.715 5.5954 5.445 6.22536 5.55C6.46535 5.5875 6.69033 5.6925 6.91532 5.7675C7.1628 5.85 7.40279 5.9475 7.65777 6C8.16774 6.105 8.73021 5.7525 8.8502 5.2575C8.92519 4.935 8.98519 4.6125 9.03019 4.2825C9.11268 3.645 9.54765 3.1725 10.1926 3.0375C10.2901 3.015 10.3951 3.0075 10.4926 3C10.9951 3 11.4975 3 12 3" stroke="white" stroke-width="1.5" stroke-miterlimit="10"/>
<path d="M12 3C12.5025 3 13.0049 3 13.5074 3C13.6124 3 13.7099 3.015 13.8074 3.0375C14.4598 3.18 14.8873 3.6525 14.9698 4.2825C15.0148 4.6125 15.0748 4.935 15.1498 5.2575C15.2698 5.7525 15.8248 6.105 16.3422 6C16.5972 5.9475 16.8372 5.85 17.0847 5.7675C17.3172 5.6925 17.5422 5.5875 17.7746 5.55C18.3971 5.445 18.9596 5.715 19.2895 6.255C19.792 7.095 20.2945 7.935 20.7894 8.775C21.1044 9.315 21.0594 9.945 20.6395 10.4025C20.4745 10.5825 20.272 10.725 20.0845 10.8825C19.9195 11.0175 19.7395 11.145 19.5895 11.295C19.1621 11.7375 19.207 12.4125 19.6795 12.81C19.942 13.035 20.2195 13.2375 20.4895 13.4625C21.0069 13.8975 21.1569 14.6025 20.8194 15.18C20.3095 16.0575 19.792 16.935 19.2595 17.7975C18.8996 18.39 18.2171 18.6225 17.5497 18.405C17.2272 18.3 16.9197 18.18 16.6047 18.0675C15.9448 17.8275 15.2323 18.21 15.1198 18.87C15.0673 19.2075 15.0073 19.545 14.9398 19.8825C14.8198 20.5125 14.2274 21 13.5599 21C13.0424 21 12.5175 21 12 21" stroke="white" stroke-width="1.5" stroke-miterlimit="10"/>
</g>
</svg>
