<svg width="24" height="24" viewBox="0 0 24 24" fill="none" xmlns="http://www.w3.org/2000/svg">
<path d="M21.8932 5.76327C20.7936 5.95808 19.7443 5.2246 19.5495 4.12502C19.3547 3.02543 20.0882 1.97612 21.1878 1.78131C22.2873 1.58651 23.3367 2.31998 23.5315 3.41957C23.7263 4.51915 22.9928 5.56847 21.8932 5.76327Z" fill="white"/>
<path d="M7.46757 6.44879L13.6287 8.68588L17.5813 5.90809L21.1103 7.19036L14.0823 12.1276L7.92115 9.89053L3.966 12.6665L0.437378 11.3864L7.46757 6.44879Z" fill="white"/>
<path d="M4.33807 19.2075C6.73965 23.1338 12.4155 24.2883 16.4007 22.1685C17.7402 21.4745 18.9074 20.463 19.6624 19.2075C17.2734 20.6628 14.7456 21.546 12.0013 21.5397C9.2569 21.5481 6.72704 20.667 4.34017 19.2075H4.33807Z" fill="white"/>
<path d="M22.9448 13.2061C18.1543 16.7138 11.9505 17.9251 6.32932 15.9525C4.48713 15.3279 2.73536 14.3879 1.05509 13.2061C2.24116 14.8905 3.92143 16.249 5.82251 17.1743C11.4942 20.0133 19.2436 18.4529 22.9448 13.2061Z" fill="white"/>
</svg>
