<svg width="24" height="24" viewBox="0 0 24 24" fill="none" xmlns="http://www.w3.org/2000/svg">
<path d="M21 8.5C19.7812 7.43704 18.4051 6.58796 16.8717 5.95278C15.3382 5.31759 13.7143 5 12 5C10.2857 5 8.66183 5.31759 7.12835 5.95278C5.59487 6.58796 4.21875 7.43704 3 8.5" stroke="white" stroke-width="1.8" stroke-linecap="round"/>
<path d="M18 12.7002C17.1875 11.9409 16.2701 11.3345 15.2478 10.8808C14.2254 10.427 13.1429 10.2002 12 10.2002C10.8571 10.2002 9.77455 10.427 8.75223 10.8808C7.72991 11.3345 6.8125 11.9409 6 12.7002" stroke="white" stroke-width="1.8" stroke-linecap="round"/>
<circle cx="1.5" cy="1.5" r="1.5" transform="matrix(1 0 0 -1 10.5 18)" fill="white"/>
</svg>
